<svg xmlns="http://www.w3.org/2000/svg" viewBox="0 0 84.33 77.56"><defs><style>.cls-1{fill:none;}.cls-2{fill:#d8c7aa;}.cls-3{fill:#773336;}.cls-4{fill:#5c2629;}.cls-5{fill:#b5a385;}.cls-6{fill:#0071bc;}.cls-7{fill:#4e6855;}.cls-8{fill:#f7a187;}.cls-9{fill:#48568c;}.cls-10{fill:#6674ac;}.cls-11{fill:#6e8d76;}.cls-12{fill:#de465a;}.cls-13{fill:#fdbe9d;}.cls-14{fill:#0b0807;}.cls-15{fill:#434650;}.cls-16{fill:#29abe2;}</style></defs><g id="Layer_2" data-name="Layer 2"><g id="Layer_1-2" data-name="Layer 1"><path class="cls-1" d="M75.6,65h0a5.54,5.54,0,0,1-.68-.25A5.54,5.54,0,0,0,75.6,65Z"/><path class="cls-1" d="M13.43,64.33l-.3-1.15h0l.3,1.15a19,19,0,0,1,.86,2.43A19,19,0,0,0,13.43,64.33Z"/><path class="cls-1" d="M25.05,50.93c-.53-1-1.1-2-1.55-3,.45,1,1,2,1.55,3l5.13,0Z"/><path class="cls-1" d="M44.77,63.78q.09,6.85.19,13.69-.09-6.84-.19-13.69a22.5,22.5,0,0,1-2.26.35A22.5,22.5,0,0,0,44.77,63.78Z"/><path class="cls-1" d="M55.33,43.17a4.15,4.15,0,0,1,.32-.53A4.15,4.15,0,0,0,55.33,43.17Z"/><path class="cls-1" d="M71.38,64.55c-.11,0-.23,0-.34,0h0C71.15,64.56,71.27,64.55,71.38,64.55Z"/><path class="cls-1" d="M33,48.3a16.49,16.49,0,0,0,5,2.41,16.49,16.49,0,0,1-5-2.41,17.11,17.11,0,0,1-4.53-5.68,2.42,2.42,0,0,0-.21-.89,2.42,2.42,0,0,1,.21.89A17.11,17.11,0,0,0,33,48.3Z"/><path class="cls-1" d="M52.56,51a3,3,0,0,0-1.23-.5v0l0-1.4h0c0,.47,0,.93,0,1.4v0A3,3,0,0,1,52.56,51Z"/><path class="cls-1" d="M54.11,51h0a7.2,7.2,0,0,0-1-.88A7.2,7.2,0,0,1,54.11,51Z"/><path class="cls-1" d="M24.58,42.61Z"/><path class="cls-1" d="M54,77.37l-.66.1H56.2a2,2,0,0,0-.35-.09Z"/><path class="cls-1" d="M32.93,52.71l.07.07-.07-.07Z"/><path class="cls-1" d="M66.72,50.92l1.55.24L70,52.31l-1.73-1.15Z"/><path class="cls-1" d="M56.19,24.44h0a.68.68,0,0,1,.2.26A.68.68,0,0,0,56.19,24.44Z"/><path class="cls-1" d="M27.78,32.22a3.77,3.77,0,0,0-.18,1.63,3.77,3.77,0,0,1,.18-1.63c0-1.12,0-2.24,0-3.35C27.78,30,27.78,31.1,27.78,32.22Z"/><path class="cls-1" d="M25,52.08l.06-1.15L25,52.08a.65.65,0,0,0-.34.53A.67.67,0,0,1,25,52.08Z"/><path class="cls-1" d="M54.73,35.76a6.24,6.24,0,0,0,1.52-3.17h0A6.24,6.24,0,0,1,54.73,35.76Z"/><path class="cls-1" d="M39.48,63.69a.77.77,0,0,0-.26.47.77.77,0,0,1,.26-.47Z"/><path class="cls-1" d="M15.76,51.15,17,50.93h0Z"/><path class="cls-1" d="M13.22,62.82a3.46,3.46,0,0,0,.78-.21,3.46,3.46,0,0,1-.78.21l-.09.36Z"/><path class="cls-1" d="M39.81,63.07c-.19.11-.35.21-.35.46C39.46,63.28,39.62,63.18,39.81,63.07Z"/><path class="cls-1" d="M8.17,65.36a1,1,0,0,0,.11-.17h0A1,1,0,0,1,8.17,65.36Z"/><path class="cls-1" d="M58.63,51a1.46,1.46,0,0,0,.07.72,1.46,1.46,0,0,1-.07-.72,7.46,7.46,0,0,0,.58-8.32v0A7.46,7.46,0,0,1,58.63,51Z"/><path class="cls-1" d="M16.77,42.86a1.86,1.86,0,0,0,.39-.75,1.86,1.86,0,0,1-.39.75,31.37,31.37,0,0,0-.4,3.34A31.37,31.37,0,0,1,16.77,42.86Z"/><path class="cls-1" d="M66.65,60.39c.24,1,.88,1.25,2.6,1.66.41.14.78.36,1.19.48-.41-.12-.78-.34-1.19-.48C67.53,61.64,66.89,61.37,66.65,60.39Z"/><path class="cls-1" d="M32.87,49.3A5.55,5.55,0,0,0,30.18,51a2.35,2.35,0,0,1-.78,1,2.35,2.35,0,0,0,.78-1,5.55,5.55,0,0,1,2.69-1.65l.09-1Z"/><path class="cls-1" d="M55.23,52.14A20,20,0,0,0,58,55.56a20,20,0,0,1-2.78-3.42,2.5,2.5,0,0,1-.7-.59A2.5,2.5,0,0,0,55.23,52.14Z"/><path class="cls-2" d="M37.45,75.69c0-.32,0-.63,0-1s0-.6.07-.9c.06-.54.12-1.08.22-1.61.37-2,0-4.07.6-6.23-1,.56-.64,1.38-.9,2-.09.19,0,.51-.26.58s-.38-.21-.51-.39c-2.21-3-4.67-5.71-6.87-8.68-.62-.83-1.38-1.56-2-2.42-.29-.43-.58-.47-1.06-.14-1.37,1-2.52,2.2-4,3l-.52.26h0l.5,1.49c.11.33.23.66.35,1,.18.49.37,1,.59,1.46a17.45,17.45,0,0,1,.83,3.33c.49,2.28.79,4.61,1.47,6.83.31,1,.61,2.09.9,3.14H37.37C37.4,76.88,37.43,76.28,37.45,75.69Z"/><path class="cls-3" d="M23.82,70.32c-.71-2.8-1.08-5.7-2.24-8.39-.31-.73-.61-.82-1.23-.47a35.22,35.22,0,0,1-5.21,2c-.49.18-.57.35-.37.75,1.74,3.45,1.72,7.35,2.77,11,.22.75.43,1.5.65,2.24h7.42C25,75.11,24.42,72.71,23.82,70.32Z"/><path class="cls-4" d="M17.19,42l0,.12a1.86,1.86,0,0,1-.39.75,31.37,31.37,0,0,0-.4,3.34,10.54,10.54,0,0,0,.17,2.62c.14.7.3,1.41.45,2.11h0a1.24,1.24,0,0,1,.27,1.22c.07,2.21.08,4.42,0,6.62,0,.32,0,.63,0,.94s-.05.72-.08,1.08a1,1,0,0,1-.78,1c-.66.19-1.31.41-2,.62l-.13.08-.24.12a3.46,3.46,0,0,1-.78.21l-.09.36.3,1.15a19,19,0,0,1,.86,2.43c.14.5.27,1,.4,1.5.75,3.06,1.4,6.15,2.14,9.21h1.36c-.22-.74-.43-1.49-.65-2.24-1.05-3.62-1-7.52-2.77-11-.2-.4-.12-.57.37-.75a35.22,35.22,0,0,0,5.21-2c.62-.35.92-.26,1.23.47,1.16,2.69,1.53,5.59,2.24,8.39.6,2.39,1.13,4.79,1.79,7.15H27c-.29-1-.59-2.1-.9-3.14-.68-2.22-1-4.55-1.47-6.83a17.45,17.45,0,0,0-.83-3.33c-.22-.48-.41-1-.59-1.46-.12-.33-.24-.66-.35-1l-.5-1.49c-.19-.22-.24-.58-.61-.63a2.93,2.93,0,0,0-1,.27c-.3.13-.58.3-.88.46s-.38.21-.58.3c-.57.25-.85.11-.76-.5a62.27,62.27,0,0,0,.18-7.36c0-.53.26-.66.73-.66,1,0,2,0,3,0,.63,0,.79.25.77.82,0,1.31,0,2.63,0,3.94,0,.35-.11.73.23,1a1.64,1.64,0,0,0,.39-.14,1.74,1.74,0,0,0,.81-.84c0-1.36,0-2.72-.05-4.07v-.12a.38.38,0,0,1,0-.1.65.65,0,0,1,.34-.53l.06-1.15c-.53-1-1.1-2-1.55-3a3.13,3.13,0,0,1-.07-2.49c.28-.7.48-1.43.79-2.12.05-.11.11-.22.17-.33s.12-.22.19-.33h0l0-1.12h0a1.77,1.77,0,0,0-1.53-.7c-1.4,0-2.8,0-4.21,0a1.72,1.72,0,0,0-1.54.67h0C17.28,41.64,17.24,41.82,17.19,42Zm.49,3.15c.22-.88.64-1.69.8-2.58a.67.67,0,0,1,.75-.51c1.08,0,2.16,0,3.25,0,.5,0,.64.21.45.68-.12.3-.18.63-.31.93A7.12,7.12,0,0,0,23,49.91c.33.65.22.89-.52.84l-.42,0c-.41,0-.83,0-1.25,0h-.59c-1.73,0-2.41-.64-2.45-2.39A11.88,11.88,0,0,1,17.68,45.14Z"/><path class="cls-4" d="M22.32,60.23h0l.5,1.49-.5-1.49Z"/><path class="cls-5" d="M3,72.49a13.38,13.38,0,0,1,5.8-6,25.52,25.52,0,0,1,4.63-2.13l-.3-1.15a9.24,9.24,0,0,0-2.91,1.18,10.26,10.26,0,0,1-1.3.61l-.64.22a1,1,0,0,1-.11.17,1.85,1.85,0,0,1-1.11.6,1.08,1.08,0,0,1-.18.23c-3.7,2.39-5.65,6-6.62,10.1-.09.39-.18.79-.26,1.18H1.47A15.25,15.25,0,0,1,3,72.49Z"/><path class="cls-5" d="M75.6,65a5.54,5.54,0,0,1-.68-.25l-.47-.21-.38-.19c-.49-.25-1-.52-1.48-.74a2,2,0,0,0-1.09-.36h0L71,64.55c.11,0,.23,0,.34,0a1.2,1.2,0,0,1,.54.08c2.45,1.18,5,2.21,6.91,4.26a16.79,16.79,0,0,1,4.1,8.58h1.4L84.27,77c-.35-3.06-2-5.56-3.62-8.06-.07-.1-.21-.16-.29-.26a15.51,15.51,0,0,0-3.47-3,2,2,0,0,1-1-.48A2.16,2.16,0,0,1,75.6,65Z"/><path class="cls-3" d="M33.76,16.75c.52-.19.55-.4.24-.85a5.21,5.21,0,0,1-1.17-4.24A7.56,7.56,0,0,0,35.32,15a10.22,10.22,0,0,0,4.55,2,11.91,11.91,0,0,0,6.47-.57c.22-.08.48-.08.53-.36s-.18-.4-.35-.54a2.09,2.09,0,0,1-.9-1.17c.71.47,1.25.87,1.83,1.21,2.33,1.37,4.74,2,7.35.71a5.07,5.07,0,0,0,2.05-1.92,6.79,6.79,0,0,0,.95-4.95,10.65,10.65,0,0,0-.58-1.64c-.07-.21-.26-.42,0-.63a9.56,9.56,0,0,0-7.82-4.9A5.32,5.32,0,0,0,45.23,3.6c-.42.39-.57.19-.83-.12A9.67,9.67,0,0,0,39.93.42a6.9,6.9,0,0,0-5.46.3,5.34,5.34,0,0,0-2.88,4c-.09.57-.47.44-.8.47a6.91,6.91,0,0,0-6.48,6.68c.61.76.72,1.76,1.34,2.54A7.18,7.18,0,0,0,33.76,16.75ZM33.1,8.62a8.62,8.62,0,0,0,8.57,3.8c1.74-.18,2.72-1,4.27-3.48A5,5,0,0,1,41,13.59a8.94,8.94,0,0,1-8.63-5,5.8,5.8,0,0,1-.8-3A14.87,14.87,0,0,0,33.1,8.62Z"/><path class="cls-4" d="M59.21,42.45v.19A7.46,7.46,0,0,1,58.63,51a1.46,1.46,0,0,0,.07.72c0,.14.09.28.13.42.44.87.13,1.79.2,2.69a15.32,15.32,0,0,1,0,1.66,4,4,0,0,0,.54.55,6.55,6.55,0,0,0,.53.39l.09.07a5.31,5.31,0,0,0,.17-.77,8.76,8.76,0,0,0,.08-1c0-.77-.07-1.55-.09-2.31,0-1,.25-1.36,1.27-1.26a21,21,0,0,0,2.75,0c.54,0,.77.17.76.74q0,3.43,0,6.89c0,.74-.33.65-.78.39a2.05,2.05,0,0,0-1.64-.48l-.52.77a42.3,42.3,0,0,1-1.72,4.46,5.73,5.73,0,0,0-.37,1.32,17.14,17.14,0,0,1-2.69,6c-1.17,1.68-2.15,3.49-3.38,5.14h1.81a5.7,5.7,0,0,1,1.41-2.54,47.46,47.46,0,0,0,3-5c1.1-1.78,1.18-3.85,1.91-5.73.3-.79.64-1.58.92-2.38.17-.53.47-.57.9-.36a44.34,44.34,0,0,0,5.57,2.18c.24.08.58.14.37.51-1.52,2.64-1.64,5.79-3.05,8.45Q65.53,75,64,77.47h1.47a13,13,0,0,1,.77-1.06,3.93,3.93,0,0,0,.35-.6,32.73,32.73,0,0,0,3.35-8.22,12.9,12.9,0,0,1,1.11-3h0l.46-1.35-.67-.59-.21,0-.18,0c-.41-.12-.78-.34-1.19-.48-1.72-.41-2.36-.68-2.6-1.66a1.55,1.55,0,0,1,0-.21,9.67,9.67,0,0,1-.1-1.49c0-2.19,0-4.37,0-6.56L66.46,52l0-.14a1,1,0,0,1,.29-.9c.1-.46.22-.93.32-1.39,0-.22.1-.45.14-.67s.09-.56.12-.84l0-.43a18.55,18.55,0,0,0-.48-4.93c-.13-.39-.26-.78-.38-1.16a3.08,3.08,0,0,0-2.34-.72c-1.17.06-2.34,0-3.52,0a1.5,1.5,0,0,0-1.42.67h0C59.2,41.79,59.2,42.12,59.21,42.45Zm5.37-.4a.7.7,0,0,1,.71.56,13.15,13.15,0,0,1,.19,7.56.65.65,0,0,1-.69.57c-1.47,0-2.94,0-4.61,0,2.15-2.87,1.75-5.68.24-8.69C61.9,42.05,63.24,42.06,64.58,42.05Z"/><path class="cls-4" d="M71.5,63.2h0L71,64.55h0l.46-1.35Z"/><path class="cls-6" d="M28.43,42.62A17.11,17.11,0,0,0,33,48.3a16.49,16.49,0,0,0,5,2.41,14.76,14.76,0,0,0,2.52.46,15.39,15.39,0,0,0,10.83-3,15.87,15.87,0,0,0,3.5-4.07c.19-.3.33-.61.5-.92a4.15,4.15,0,0,1,.32-.53h0c0-.1.05-.2.08-.3a2,2,0,0,1,.32-.89,13.13,13.13,0,0,0,.23-2.8c0-.18-.13-.38.1-.51a1.77,1.77,0,0,0,0-1,1.1,1.1,0,0,0-.37.67,12.17,12.17,0,0,1-5.45,7.63,14.72,14.72,0,0,1-14.5,1.43,13.3,13.3,0,0,1-8-8.63c-.12-.36.11-.91-.45-1.1a17.59,17.59,0,0,0,.39,4.34,1.91,1.91,0,0,1,.16.27A2.42,2.42,0,0,1,28.43,42.62Z"/><path class="cls-4" d="M35.76,17.71c.24-.18.42,0,.63.06a11.73,11.73,0,0,0,11.74-.27c.57-.32,1,0,1.36.19a7.69,7.69,0,0,0,4.36.88,8.07,8.07,0,0,0,2.58-.8c.5-.65,1.26-1,1.71-1.73,1.59-2.48.91-7.23-.92-8.93-.26.21-.07.42,0,.63a10.65,10.65,0,0,1,.58,1.64,6.79,6.79,0,0,1-.95,4.95,5.07,5.07,0,0,1-2.05,1.92c-2.61,1.31-5,.66-7.35-.71-.58-.34-1.12-.74-1.83-1.21a2.09,2.09,0,0,0,.9,1.17c.17.14.4.27.35.54s-.31.28-.53.36a11.91,11.91,0,0,1-6.47.57,10.22,10.22,0,0,1-4.55-2,7.56,7.56,0,0,1-2.49-3.32A5.21,5.21,0,0,0,34,15.9c.31.45.28.66-.24.85a7.18,7.18,0,0,1-8.11-2.36c-.62-.78-.73-1.78-1.34-2.54a6.87,6.87,0,0,0,1.65,5c.49.6,1.3.84,1.72,1.53l2.5.83A8.31,8.31,0,0,0,35.76,17.71Z"/><path class="cls-7" d="M66.72,50.92a1,1,0,0,0-.29.9l0,.14.06.17a2.91,2.91,0,0,1,3,3.12c0,1.93,0,3.86,0,5.79,0,.35.09.73-.23,1,.41.14.78.36,1.19.48l.18,0,.21,0c0-1.28,0-2.57,0-3.85,0-.48.13-.69.66-.73a5.3,5.3,0,0,1,3.13.66,2.06,2.06,0,0,1,1,1.92c0,1.45,0,2.9,0,4.34h0a2.16,2.16,0,0,0,.25.27,2,2,0,0,0,1,.48c0-1.64,0-3.28,0-4.92a3.74,3.74,0,0,0-2.71-3.67,6.91,6.91,0,0,0-2.63-.24c-.6,0-.83-.18-.78-.78A6.1,6.1,0,0,0,70,52.31l-1.73-1.15Z"/><path class="cls-7" d="M75.6,65h0a2.16,2.16,0,0,0,.25.27A2.16,2.16,0,0,1,75.6,65Z"/><path class="cls-7" d="M66.72,50.92h0a1,1,0,0,0-.29.9A1,1,0,0,1,66.72,50.92Z"/><path class="cls-8" d="M27.6,33.85a3.77,3.77,0,0,1,.18-1.63c0-1.12,0-2.24,0-3.35s0-2.24,0-3.36c0-.35-.12-.73.19-1l-.41-.82a2.64,2.64,0,0,0-2.36,1.63,9.07,9.07,0,0,0-.37,7.32,3.47,3.47,0,0,0,2.74,2.51A6.74,6.74,0,0,0,27.6,33.85Z"/><path class="cls-7" d="M8.17,65.36a1,1,0,0,0,.11-.17c0-.38,0-.75,0-1.13,0-1.13,0-2.26,0-3.39A2.84,2.84,0,0,1,11,58.06c2.1-.28,2.19-.19,2.2,1.91,0,1,0,1.9,0,2.85a3.46,3.46,0,0,0,.78-.21l.24-.12.13-.08c0-2.34,0-4.67,0-7,0-2,.84-3,2.9-3.26A1.24,1.24,0,0,0,17,50.93l-1.23.22A8.33,8.33,0,0,0,14,52.34a5,5,0,0,0-.8,2.29c0,.69.2,1.56-.14,2s-1.34.17-2,.21A3.91,3.91,0,0,0,7,60.93c0,1.67,0,3.35,0,5A1.85,1.85,0,0,0,8.17,65.36Z"/><path class="cls-7" d="M17,50.93h0a1.24,1.24,0,0,1,.27,1.22h0A1.24,1.24,0,0,0,17,50.93Z"/><path class="cls-9" d="M72,42.83A2.31,2.31,0,0,1,74,45.39c0,.86,0,1.72,0,2.57.16,2.41-1.28,3-3.11,3.16-.88.06-1.78,0-2.66,0L70,52.31h1c2.94,0,4.54-1.64,4.54-4.59,0-.72,0-1.44,0-2.17a4.06,4.06,0,0,0-3.84-4.06c-1.74-.08-3.48,0-5.22,0,.12.38.25.77.38,1.16A26.45,26.45,0,0,1,72,42.83Z"/><path class="cls-8" d="M56.39,24.7a.59.59,0,0,1,0,.19.81.81,0,0,1,0,.16c0,.13,0,.26,0,.39a58.77,58.77,0,0,1-.18,7.15h0a1.6,1.6,0,0,1,.25,1v.17c0,.06,0,.11,0,.17s0,.21,0,.31a2.14,2.14,0,0,0,.08.75,3.43,3.43,0,0,0,2.35-2.42,9.88,9.88,0,0,0,.21-5.82,3.91,3.91,0,0,0-2.6-3.08c-.11.26-.21.52-.32.77A.68.68,0,0,1,56.39,24.7Z"/><path class="cls-8" d="M56.25,32.59h0a1.6,1.6,0,0,1,.25,1A1.6,1.6,0,0,0,56.25,32.59Z"/><path class="cls-8" d="M56.5,33.59v0Z"/><path class="cls-9" d="M12.71,51.13a2.81,2.81,0,0,1-2.89-3V45.52a2.56,2.56,0,0,1,2-2.69,11.59,11.59,0,0,1,4.94,0,1.86,1.86,0,0,0,.39-.75l0-.12c0-.17.09-.35.14-.52h0c-1.61,0-3.22,0-4.83,0a4.05,4.05,0,0,0-4.09,4.12c0,1,0,2,0,3.06A3.37,3.37,0,0,0,9.55,51a5.58,5.58,0,0,0,4.4,1.3,8.33,8.33,0,0,1,1.81-1.19C14.74,51.14,13.73,51.15,12.71,51.13Z"/><path class="cls-9" d="M17.19,42c0-.17.09-.35.14-.52h0C17.28,41.64,17.24,41.82,17.19,42Z"/><path class="cls-3" d="M53.9,23.09c0,1.58.89,2.1,2.29,1.35h0l.32-.77c0-2,0-3.93-.08-5.9a8.07,8.07,0,0,1-2.58.8C53.87,20.08,53.88,21.58,53.9,23.09Z"/><path class="cls-3" d="M56.19,24.44c.11-.25.21-.51.32-.77l-.32.77Z"/><path class="cls-3" d="M30.19,23.11c0-1.31,0-2.62,0-3.93l-2.5-.83c0,1.77-.07,3.54-.1,5.31l.41.82C29.42,25.16,30.19,24.68,30.19,23.11Z"/><path class="cls-9" d="M28.43,42.62a2.42,2.42,0,0,0-.21-.89,1.91,1.91,0,0,0-.16-.27l-3.45,0h0l0,1.12Z"/><path class="cls-9" d="M24.58,42.61l0-1.12,0,1.12Z"/><path class="cls-9" d="M55.65,42.64h3.56v-.19l0-1H56.05a2,2,0,0,0-.32.89C55.7,42.44,55.68,42.54,55.65,42.64Z"/><path class="cls-9" d="M59.21,42.45c0-.33,0-.66,0-1h0Z"/><path class="cls-9" d="M55.65,42.64h0c0-.1.05-.2.08-.3C55.7,42.44,55.68,42.54,55.65,42.64Z"/><path class="cls-8" d="M56.28,38.65c.39-.1.46-.26.1-.51C56.15,38.27,56.25,38.47,56.28,38.65Z"/><path class="cls-5" d="M21.71,59.6h0c.37,0,.42.41.61.63l.52-.26c1.45-.84,2.6-2.09,4-3,.48-.33.77-.29,1.06.14.6.86,1.36,1.59,2,2.42,2.2,3,4.66,5.73,6.87,8.68.13.18.25.46.51.39s.17-.39.26-.58c.26-.6-.08-1.42.9-2-.57,2.16-.23,4.19-.6,6.23-.1.53-.16,1.07-.22,1.61,0,.3,0,.6-.07.9s0,.63,0,1c0,.59-.05,1.19-.08,1.78h1.39c.07-.65.15-1.3.2-2,0-.29,0-.58.07-.87q.22-4,.39-8a5.53,5.53,0,0,0-.13-1.85,2.61,2.61,0,0,1-.06-.27.77.77,0,0,1,0-.15h0a1.41,1.41,0,0,1,0-.2.77.77,0,0,1,.26-.47,1.15,1.15,0,0,1,0-.16c0-.25.16-.35.35-.46l.23-.14c1-.72,1.19-1.21.42-2.3a49,49,0,0,0-6.67-7l-.23-.23-.33-.37L33,52.78l-.07-.07-.12-.08-.12-.08c-1.39-1.16-1.39-1.16.23-2h0l-.06-1.22A5.55,5.55,0,0,0,30.18,51a2.35,2.35,0,0,1-.78,1,2,2,0,0,1-.38.22,13,13,0,0,1-4.33,4.73h0a1.74,1.74,0,0,1-.81.84,1.64,1.64,0,0,1-.39.14C23,58.55,22.07,58.79,21.71,59.6ZM29,54.41a8.25,8.25,0,0,0,1.3-1.47c.22-.34.47-.49.87-.13q3.3,3,6.32,6.19a12.17,12.17,0,0,1,1.64,1.8c.34.52.65.93-.31,1.3A2.59,2.59,0,0,0,37.18,64c-.14.62-.39,1.22-.65,2a35.43,35.43,0,0,0-2.63-3.31c-1.59-2.15-3.29-4.21-5-6.25C28.08,55.52,28.1,55.23,29,54.41Z"/><path class="cls-5" d="M37.45,75.69c0,.59-.05,1.19-.08,1.78h0C37.4,76.88,37.43,76.28,37.45,75.69Z"/><path class="cls-5" d="M37.45,75.69c0-.32,0-.63,0-1C37.48,75.06,37.47,75.37,37.45,75.69Z"/><path class="cls-5" d="M21.71,59.6h0c.37,0,.42.41.61.63h0C22.13,60,22.08,59.65,21.71,59.6Z"/><path class="cls-5" d="M24.69,56.9h0a1.74,1.74,0,0,1-.81.84A1.74,1.74,0,0,0,24.69,56.9Z"/><path class="cls-2" d="M14.69,68.26c-.13-.5-.26-1-.4-1.5a19,19,0,0,0-.86-2.43A25.52,25.52,0,0,0,8.8,66.46a13.38,13.38,0,0,0-5.8,6,15.25,15.25,0,0,0-1.53,5H16.83C16.09,74.41,15.44,71.32,14.69,68.26Z"/><path class="cls-10" d="M30.18,51a5.55,5.55,0,0,1,2.69-1.65l.09-1a17.11,17.11,0,0,1-4.53-5.68H24.58c-.07.11-.13.22-.19.33s-.12.22-.17.33c-.31.69-.51,1.42-.79,2.12a3.13,3.13,0,0,0,.07,2.49c.45,1,1,2,1.55,3Z"/><path class="cls-10" d="M24.58,42.61c-.07.11-.13.22-.19.33.06-.11.12-.22.19-.33Z"/><path class="cls-10" d="M16.54,48.82a10.54,10.54,0,0,1-.17-2.62,31.37,31.37,0,0,1,.4-3.34,11.59,11.59,0,0,0-4.94,0,2.56,2.56,0,0,0-2,2.69v2.66a2.81,2.81,0,0,0,2.89,3c1,0,2,0,3,0L17,50.93C16.84,50.23,16.68,49.52,16.54,48.82Z"/><path class="cls-3" d="M20.18,50.74h.59c.42,0,.84,0,1.25,0l.42,0c.74,0,.85-.19.52-.84a7.12,7.12,0,0,1-.34-6.25c.13-.3.19-.63.31-.93.19-.47.05-.68-.45-.68-1.09,0-2.17,0-3.25,0a.67.67,0,0,0-.75.51c-.16.89-.58,1.7-.8,2.58a11.88,11.88,0,0,0,.05,3.21C17.77,50.1,18.45,50.74,20.18,50.74Z"/><path class="cls-3" d="M20.18,50.74h.59c.42,0,.84,0,1.25,0-.41,0-.83,0-1.25,0Z"/><path class="cls-3" d="M23.49,57.88c-.34-.28-.23-.66-.23-1,0-1.31,0-2.63,0-3.94,0-.57-.14-.84-.77-.82-1,0-2,0-3,0-.47,0-.72.13-.73.66a62.27,62.27,0,0,1-.18,7.36c-.09.61.19.75.76.5.2-.09.39-.2.58-.3s.58-.33.88-.46a2.93,2.93,0,0,1,1-.27C22.07,58.79,23,58.55,23.49,57.88Z"/><path class="cls-3" d="M20.75,59.87a2.93,2.93,0,0,1,1-.27h0A2.93,2.93,0,0,0,20.75,59.87Z"/><path class="cls-11" d="M13.22,62.82c0-1,0-1.9,0-2.85,0-2.1-.1-2.19-2.2-1.91a2.84,2.84,0,0,0-2.73,2.61c0,1.13,0,2.26,0,3.39,0,.38,0,.75,0,1.13h0L8.92,65a10.26,10.26,0,0,0,1.3-.61,9.24,9.24,0,0,1,2.91-1.18h0Z"/><path class="cls-11" d="M10.22,64.36a9.24,9.24,0,0,1,2.91-1.18h0A9.24,9.24,0,0,0,10.22,64.36Z"/><path class="cls-11" d="M17.11,60.79c0-.36.06-.72.08-1.08s0-.62,0-.94c.1-2.2.09-4.41,0-6.62h0c-2.06.3-2.9,1.23-2.9,3.26,0,2.33,0,4.66,0,7,.65-.21,1.3-.43,2-.62A1,1,0,0,0,17.11,60.79Z"/><path class="cls-11" d="M17.24,58.77c.1-2.2.09-4.41,0-6.62h0C17.33,54.36,17.34,56.57,17.24,58.77Z"/><path class="cls-11" d="M29,52.17l-4-.09a.67.67,0,0,0-.34.53.38.38,0,0,0,0,.1v.12c0,1.35,0,2.71.05,4.07A13,13,0,0,0,29,52.17Z"/><path class="cls-11" d="M24.64,52.83c0,1.35,0,2.71.05,4.07h0C24.68,55.54,24.66,54.18,24.64,52.83Z"/><path class="cls-7" d="M29,52.17A2,2,0,0,0,29.4,52a2.35,2.35,0,0,0,.78-1l-5.13,0L25,52.08Z"/><path class="cls-2" d="M57.42,72.23a17.14,17.14,0,0,0,2.69-6,5.73,5.73,0,0,1,.37-1.32,42.3,42.3,0,0,0,1.72-4.46,25.8,25.8,0,0,1-3.66-2.76c-.18-.15-.33-.32-.5-.47-.95-.85-1-.86-1.77.16C54.1,60.3,51.62,63,49.47,66c-.61.83-1.33,1.6-2,2.43-.25.34-.46.36-.55-.12a16.84,16.84,0,0,1-.35-1.83,2.59,2.59,0,0,0-.61-1.2c-.09,4.18.27,8.21.19,12.24h7.2l.66-.1C55.27,75.72,56.25,73.91,57.42,72.23Z"/><path class="cls-3" d="M66.88,72.47c1.41-2.66,1.53-5.81,3.05-8.45.21-.37-.13-.43-.37-.51A44.34,44.34,0,0,1,64,61.33c-.43-.21-.73-.17-.9.36-.28.8-.62,1.59-.92,2.38-.73,1.88-.81,4-1.91,5.73a47.46,47.46,0,0,1-3,5,5.7,5.7,0,0,0-1.41,2.54,2,2,0,0,1,.35.09H64Q65.54,75,66.88,72.47Z"/><path class="cls-2" d="M78.83,68.89c-1.89-2-4.46-3.08-6.91-4.26a1.2,1.2,0,0,0-.54-.08c-.11,0-.23,0-.34,0a12.9,12.9,0,0,0-1.11,3,32.73,32.73,0,0,1-3.35,8.22,3.93,3.93,0,0,1-.35.6,13,13,0,0,0-.77,1.06H82.93A16.79,16.79,0,0,0,78.83,68.89Z"/><path class="cls-11" d="M72.59,63.56c.51.22,1,.49,1.48.74l.38.19.47.21a5.54,5.54,0,0,0,.68.25c0-1.44,0-2.89,0-4.34a2.06,2.06,0,0,0-1-1.92A5.3,5.3,0,0,0,71.51,58c-.53,0-.67.25-.66.73,0,1.28,0,2.57,0,3.85l.67.59A2,2,0,0,1,72.59,63.56Z"/><path class="cls-11" d="M74.92,64.7l-.47-.21Z"/><path class="cls-11" d="M70.83,62.61l.67.59h0Z"/><path class="cls-5" d="M58,55.56a20,20,0,0,1-2.78-3.42,2.5,2.5,0,0,1-.7-.59c-.06-.08-.13-.16-.19-.25L54.11,51a7.2,7.2,0,0,0-1-.88,6.4,6.4,0,0,0-1.78-1l0,1.4v0a3,3,0,0,1,1.23.5.57.57,0,0,1,.15.23.51.51,0,0,1,0,.22c0,.71-.84.93-1.42,1.26-1.65,1.72-3.35,3.38-5.09,5A10.47,10.47,0,0,0,43.78,61a1.39,1.39,0,0,0,.44,1.83c.34.25.65.44.55.92q.09,6.85.19,13.69h1.22c.08-4-.28-8.06-.19-12.24a2.59,2.59,0,0,1,.61,1.2A16.84,16.84,0,0,0,47,68.26c.09.48.3.46.55.12.64-.83,1.36-1.6,2-2.43,2.15-3,4.63-5.65,6.8-8.6.74-1,.82-1,1.77-.16.17.15.32.32.5.47a25.8,25.8,0,0,0,3.66,2.76l.52-.77a11.49,11.49,0,0,0-2.53-2.19h0l-.09-.07a6.55,6.55,0,0,1-.53-.39,4,4,0,0,1-.54-.55L58.48,56ZM55.17,56.8a18.43,18.43,0,0,0-1.52,1.79c-1.77,2.2-3.53,4.42-5.3,6.64-.12.16-.22.33-.27.41-.54,0-.47-.37-.55-.6-.35-1-.47-2.14-1.54-2.74-.06,0-.1-.09-.15-.12-1.13-.72-1.2-.82-.28-1.81a77.29,77.29,0,0,1,6.72-6.58c.47-.39.81-1.2,1.39-1.12s.8.79,1.2,1.21c.09.09.21.15.31.25C56.27,55.25,56.31,55.72,55.17,56.8Z"/><path class="cls-5" d="M59.57,57a6.55,6.55,0,0,0,.53.39A6.55,6.55,0,0,1,59.57,57Z"/><path class="cls-5" d="M60.19,57.46l-.09-.07.09.07Z"/><path class="cls-12" d="M45,77.47q-.09-6.84-.19-13.69a22.5,22.5,0,0,1-2.26.35l-.36,0h0a8.19,8.19,0,0,1-1,0l-.33-.05a5.53,5.53,0,0,1-1.31-.38.77.77,0,0,0-.26.47,1.41,1.41,0,0,0,0,.2h0a.77.77,0,0,0,0,.15,2.61,2.61,0,0,0,.06.27,5.53,5.53,0,0,1,.13,1.85q-.16,4-.39,8c0,.29,0,.58-.07.87-.05.65-.13,1.3-.2,2Z"/><path class="cls-12" d="M39,75.52c-.05.65-.13,1.3-.2,2h0C38.83,76.82,38.91,76.17,39,75.52Z"/><path class="cls-4" d="M41,13.59a5,5,0,0,0,4.94-4.65c-1.55,2.45-2.53,3.3-4.27,3.48a8.62,8.62,0,0,1-8.57-3.8,14.87,14.87,0,0,1-1.53-3,5.8,5.8,0,0,0,.8,3A8.94,8.94,0,0,0,41,13.59Z"/><path class="cls-13" d="M28,24.48c-.31.3-.19.68-.19,1,0,1.12,0,2.24,0,3.36s0,2.23,0,3.35c0,.13,0,.26,0,.39.65,3.26,3.94,5.75,7.05,6.11,1.94.22,5-3.22,6.9-3.23,2.89,0,4.71,3.52,7.59,3.21A7.54,7.54,0,0,0,52,37.89c.19-.1.38-.2.56-.31l.27-.17c.13-.08.25-.17.37-.26l.3-.21a9.36,9.36,0,0,0,.81-.73c.15-.14.29-.3.43-.45a6.24,6.24,0,0,0,1.52-3.17,58.77,58.77,0,0,0,.18-7.15c0-.13,0-.26,0-.39a.81.81,0,0,0,0-.16.59.59,0,0,0,0-.19.68.68,0,0,0-.2-.26c-1.4.75-2.27.23-2.29-1.35s0-3,0-4.52a7.69,7.69,0,0,1-4.36-.88c-.39-.2-.79-.51-1.36-.19a11.73,11.73,0,0,1-11.74.27c-.21-.1-.39-.24-.63-.06a8.31,8.31,0,0,1-5.58,1.47c0,1.31,0,2.62,0,3.93C30.19,24.68,29.42,25.16,28,24.48ZM46.79,27c0-.8.38-1.33,1.24-1.34A1.45,1.45,0,0,1,49.36,27c0,.2,0,.4,0,.66s.18.87-.21,1.24-.87.83-1.55.57A1.29,1.29,0,0,1,46.79,28C46.79,27.67,46.78,27.31,46.79,27Zm-6.94.47c0-1.42.33-1.75,1.71-1.75,2.63,0,2.63,0,2.63,2.57v5.21c0,1.78-.63,2.31-2.43,2s-1.91-.45-1.91-2.27ZM35,26.26c.44-.51.87-.8,1.51-.58A1.2,1.2,0,0,1,37.32,27c0,.2,0,.4,0,.59,0,1.06-.22,1.65-.71,1.85l-.22.07a1.45,1.45,0,0,1-.3,0c-.8,0-1.36-.85-1.35-2A1.65,1.65,0,0,1,35,26.26Z"/><path class="cls-10" d="M66.72,50.92l1.55.24c.88,0,1.78,0,2.66,0C72.76,51,74.2,50.37,74,48c-.06-.85,0-1.71,0-2.57A2.31,2.31,0,0,0,72,42.83a26.45,26.45,0,0,0-5.11-.17,18.55,18.55,0,0,1,.48,4.93l0,.43q0,.42-.12.84c0,.22-.09.45-.14.67-.1.46-.22.93-.32,1.39Z"/><path class="cls-10" d="M66.72,50.92c.1-.46.22-.93.32-1.39-.1.46-.22.93-.32,1.39Z"/><path class="cls-10" d="M67,49.53c0-.22.1-.45.14-.67C67.14,49.08,67.09,49.31,67,49.53Z"/><path class="cls-10" d="M51.37,49.11h0a6.4,6.4,0,0,1,1.78,1,7.2,7.2,0,0,1,1,.88h4.52a7.46,7.46,0,0,0,.58-8.32H55.65a4.15,4.15,0,0,0-.32.53c-.17.31-.31.62-.5.92a15.87,15.87,0,0,1-3.5,4.07c0,.32,0,.63,0,1Z"/><path class="cls-10" d="M51.37,49.11h0a6.4,6.4,0,0,1,1.78,1A6.4,6.4,0,0,0,51.37,49.11Z"/><path class="cls-3" d="M60.18,50.74c1.67,0,3.14,0,4.61,0a.65.65,0,0,0,.69-.57,13.15,13.15,0,0,0-.19-7.56.7.7,0,0,0-.71-.56c-1.34,0-2.68,0-4.16,0C61.93,45.06,62.33,47.87,60.18,50.74Z"/><path class="cls-3" d="M62.72,59.65a2.05,2.05,0,0,1,1.64.48c.45.26.78.35.78-.39q0-3.45,0-6.89c0-.57-.22-.75-.76-.74a21,21,0,0,1-2.75,0c-1-.1-1.28.26-1.27,1.26,0,.76.09,1.54.09,2.31a8.76,8.76,0,0,1-.08,1,5.31,5.31,0,0,1-.17.77A11.49,11.49,0,0,1,62.72,59.65Z"/><path class="cls-3" d="M60.36,56.69a5.31,5.31,0,0,1-.17.77h0A5.31,5.31,0,0,0,60.36,56.69Z"/><polygon class="cls-3" points="60.19 57.45 60.19 57.45 60.19 57.45 60.19 57.45"/><path class="cls-11" d="M69.25,62.05c.32-.28.23-.66.23-1,0-1.93,0-3.86,0-5.79a2.91,2.91,0,0,0-3-3.12c0,2.19,0,4.37,0,6.56a9.67,9.67,0,0,0,.1,1.49,1.55,1.55,0,0,0,0,.21C66.89,61.37,67.53,61.64,69.25,62.05Z"/><path class="cls-11" d="M58,55.56l.47.43.55.46a15.32,15.32,0,0,0,0-1.66c-.07-.9.24-1.82-.2-2.69l-3.6,0A20,20,0,0,0,58,55.56Z"/><path class="cls-7" d="M58.63,51H54.11l.23.34c.06.09.13.17.19.25a2.5,2.5,0,0,0,.7.59l3.6,0c0-.14-.09-.28-.13-.42A1.46,1.46,0,0,1,58.63,51Z"/><path class="cls-7" d="M58.63,51h0Z"/><path class="cls-8" d="M32.87,49.3l.06,1.22c1,.44,1.64,1.43,2.62,2a13.79,13.79,0,0,0,5.32,1.81,12.65,12.65,0,0,0,8.36-2.07c.77-.49,1.17-1.43,2.09-1.74,0-.47,0-.93,0-1.4s0-.63,0-1a15.39,15.39,0,0,1-10.83,3A14.76,14.76,0,0,1,38,50.71a16.49,16.49,0,0,1-5-2.41Z"/><path class="cls-13" d="M40.79,64.07l.33.05a8.19,8.19,0,0,0,1,0h0l.36,0a22.5,22.5,0,0,0,2.26-.35c.1-.48-.21-.67-.55-.92A1.39,1.39,0,0,1,43.78,61a10.47,10.47,0,0,1,2.46-3.27c1.74-1.64,3.44-3.3,5.09-5V50.51c-.92.31-1.32,1.25-2.09,1.74a12.65,12.65,0,0,1-8.36,2.07,13.79,13.79,0,0,1-5.32-1.81c-1-.56-1.58-1.55-2.62-2h0c0,.73,0,1.45,0,2.18l.07.07.23.27.33.37.23.23a49,49,0,0,1,6.67,7c.77,1.09.56,1.58-.42,2.3l-.23.14c-.19.11-.35.21-.35.46a1.15,1.15,0,0,0,0,.16h0A5.53,5.53,0,0,0,40.79,64.07Z"/><path class="cls-13" d="M41.12,64.12a8.19,8.19,0,0,0,1,0A8.19,8.19,0,0,1,41.12,64.12Z"/><path class="cls-13" d="M42.51,64.13l-.36,0Z"/><path class="cls-13" d="M39.46,63.53a1.15,1.15,0,0,0,0,.16h0A1.15,1.15,0,0,1,39.46,63.53Z"/><path class="cls-2" d="M33.9,62.68A35.43,35.43,0,0,1,36.53,66c.26-.82.51-1.42.65-2A2.59,2.59,0,0,1,38.8,62.1c1-.37.65-.78.31-1.3A12.17,12.17,0,0,0,37.47,59q-3-3.22-6.32-6.19c-.4-.36-.65-.21-.87.13A8.25,8.25,0,0,1,29,54.41c-.88.82-.9,1.11-.11,2C30.61,58.47,32.31,60.53,33.9,62.68Z"/><path class="cls-2" d="M32.92,50.53c-1.62.86-1.62.86-.23,2l.12.08.12.08h0C32.93,52,32.93,51.26,32.92,50.53Z"/><path class="cls-2" d="M32.81,52.63l.12.08h0Z"/><path class="cls-2" d="M54.87,53.88c-.4-.42-.75-1.14-1.2-1.21s-.92.73-1.39,1.12a77.29,77.29,0,0,0-6.72,6.58c-.92,1-.85,1.09.28,1.81,0,0,.09.09.15.12,1.07.6,1.19,1.74,1.54,2.74.08.23,0,.55.55.6.05-.08.15-.25.27-.41,1.77-2.22,3.53-4.44,5.3-6.64a18.43,18.43,0,0,1,1.52-1.79c1.14-1.08,1.1-1.55,0-2.67C55.08,54,55,54,54.87,53.88Z"/><path class="cls-2" d="M51.33,52.74c.58-.33,1.44-.55,1.42-1.26a.51.51,0,0,0,0-.22.57.57,0,0,0-.15-.23,3,3,0,0,0-1.23-.5Z"/><path class="cls-8" d="M41.76,35.49c1.8.27,2.43-.26,2.43-2V28.24c0-2.58,0-2.58-2.63-2.57-1.38,0-1.71.33-1.71,1.75v5.8C39.85,35,40,35.22,41.76,35.49Z"/><path class="cls-14" d="M36.09,29.53a1.45,1.45,0,0,0,.3,0l.22-.07c.49-.2.71-.79.71-1.85,0-.19,0-.39,0-.59a1.2,1.2,0,0,0-.77-1.33c-.64-.22-1.07.07-1.51.58a1.65,1.65,0,0,0-.3,1.26C34.73,28.68,35.29,29.5,36.09,29.53Z"/><path class="cls-14" d="M37.32,27.6c0,1.06-.22,1.65-.71,1.85.49-.2.71-.79.71-1.85,0-.19,0-.39,0-.59C37.31,27.21,37.32,27.41,37.32,27.6Z"/><path class="cls-14" d="M47.6,29.46c.68.26,1.11-.17,1.55-.57s.13-.87.21-1.24,0-.46,0-.66A1.45,1.45,0,0,0,48,25.61c-.86,0-1.22.54-1.24,1.34,0,.36,0,.72,0,1.09A1.29,1.29,0,0,0,47.6,29.46Z"/><path class="cls-15" d="M41.71,77.56l.54,0Z"/><path class="cls-15" d="M42.25,77.54h0Z"/><path class="cls-16" d="M52.15,37.79a5,5,0,0,1-2.8-.09c-2.75-.92-4.44-5.12-7.33-5.11-1.94,0-5.22,5.35-7.16,5.13-3.11-.36-6.4-1.85-7-5.11,0-.13,0-.26,0-.39a3.77,3.77,0,0,0-.18,1.63,6.74,6.74,0,0,1,0,1.27c0,.67.05,1.33.08,2,.56.19.33.74.45,1.1a13.3,13.3,0,0,0,8,8.63,14.72,14.72,0,0,0,14.5-1.43,12.17,12.17,0,0,0,5.45-7.63,1.1,1.1,0,0,1,.37-.67L56.55,35a2.14,2.14,0,0,1-.08-.75c0-.1,0-.21,0-.31s0-.11,0-.17v-.17a1.6,1.6,0,0,0-.25-1,6.24,6.24,0,0,1-1.52,3.17c-.14.15-.28.31-.43.45a9.36,9.36,0,0,1-.81.73"/></g></g></svg>