<svg xmlns="http://www.w3.org/2000/svg" viewBox="0 0 3879.33 531.42"><defs><style>.cls-1{fill:#414651;}.cls-2{fill:#c5b683;}.cls-3{fill:#6cc;}.cls-4{fill:#366;}.cls-15,.cls-5{fill:#033;}.cls-6{fill:#3c6;}.cls-7{fill:#396;}.cls-8{fill:#699;}.cls-9{fill:#fcfdfd;}.cls-10{fill:#fbfcfc;}.cls-11{fill:#fafcfc;}.cls-12{fill:#c3f4ce;}.cls-13{fill:#019f9e;}.cls-14{fill:#52e68c;}.cls-15{stroke:#033;stroke-miterlimit:10;stroke-width:0.1px;}.cls-16{fill:none;}.cls-17{fill:#c08d67;}.cls-18{fill:#00788a;}.cls-19{fill:#e4443e;}.cls-20{fill:#ed443d;}</style></defs><g id="Layer_2" data-name="Layer 2"><g id="Layer_1-2" data-name="Layer 1"><g id="ZngLAO.tif"><path class="cls-1" d="M1875.29,437.22c2.49,2,4.91,4,7.33,6.08a5.45,5.45,0,0,0,1.79,1c2.34.83,4.65,1.76,7,2.49a21.73,21.73,0,0,1,9,5.06"/><path class="cls-2" d="M1882.37,452.57c-2.07-4.64-6.27-7.17-9.88-10.23-10.19-8.66-20.53-17.16-30.81-25.72-2-1.67-4-3.32-6-5-.56-.47-1.18-.92-1.81-.34-.93.87-1.51.24-2.23-.27-1-.73-1.19-1.42-.29-2.41s1.88-2.32,2.84-3.46c.38-.46.81-1.2,1.49-.7s2.16,1,1.72,2.14c-.65,1.66.36,2.28,1.3,3.07,12.48,10.4,25.09,20.64,37.37,31.26a39.72,39.72,0,0,0,14.84,8.16c2.61.79,5.27,1.56,7.09,3.84"/></g><rect class="cls-3" x="389.66" y="483.01" width="3489.67" height="48.41"/><rect class="cls-3" x="608.97" y="448.55" width="3270.36" height="35.01"/><path class="cls-4" d="M273.67,11.36q12.49,24.69,25,49.39c.71,1.4,1.58,2.72,2.37,4.08L316.09,95.5c3.21,7.25,6.37,14.53,10.84,21.13.7,5.64,4,8,9.56,8.78,9.05,1.27,17.93,4.35,27,4.84,14.76.78,24.87,6,27,21.82l27.47,89.09c15.74-10.34,28.15-23.59,43.55-32.82-.66,9.1-1.25,18.19-2,27.27-2,25.37-4,50.74-6.28,76.08-.54,6.05,1.92,9.08,7.2,11.73,21.14,10.6,42,21.75,63.07,32.48,3.47,1.77,5.61,3.75,5.84,7.78,1,17.4,2.11,34.79,3.19,52.18-12.66,0-25.32.16-38,.11-6.6,0-9.36,3.31-8.83,9.6.23,2.65.93,5.26,1.41,7.89-4.85,0-9.7,0-14.55.08-11,.15-13.61,4.31-9.21,14.79-8.55,3.42-17.43,1-26.15,1.5-1.05-8.55-10-14.53-7.88-24.11-5.89-21.69-11.79-43.37-18.21-67l-7.59,23.64c-2.66-1.24-3.49-3.92-5-6.12-3.47-5-4.73-11.48-9.85-15.45l-13.21-45.15-4.7,9.82c-4.59-8.95-8.73-18.17-15.7-25.86A280,280,0,0,0,366.1,339.9a43.34,43.34,0,0,1-1.6,12c-5.3,19.17-10.45,38.39-15.6,57.61-2.62,9.78-2.56,9.75,7.16,9.84,5.11,0,10.22.27,15.33.41q-.15,15.07-.31,30.15l-79.69-.08q13.26-15.73,27.88-30.22c4.17-4.12,11.45-7.69,11.35-12.95-.13-6.22-8.89-6.38-13.74-9.36s-4.71-4.61-.25-8c8.14-6.13,15.61-13.16,23.72-19.34,3.15-2.4,4.27-4.87,4.59-8.68q2.18-25.65,5-51.22c.52-4.66,2.28-9.21,0-15.45-1.51,2-2.52,3.16-3.34,4.45-12.79,20.12-25.51,40.3-38.35,60.4-11.86,18.56-23.9,37-35.73,55.59-7.33,11.51-14.41,23.18-21.6,34.78-8.54-.48-17.24,1.89-25.62-1.48l-.1-18c2.41,0,4.83,0,7.24,0,9.52,0,9.87-.35,7.48-9.31q-6.52-24.45-13.13-48.87c2.64-.23,3.46-2.28,4.24-4.31,4.34-11.3,8.27-22.77,13.07-33.87,5.23-12.07,7.29-25.68,14.8-36.48,28.07-40.35,56.74-80.27,85.44-120.17,4.37-6.09,3.42-9.62-2.44-13.71-16.3-11.39-32.31-23.19-48.43-34.83a12.77,12.77,0,0,1-5.59-9.28c-3-22-6.5-44-9.39-66.06C276.73,39.45,273.08,25.64,273.67,11.36Z"/><path class="cls-5" d="M273.67,11.36c-.59,14.28,3.06,28.09,4.9,42.1,2.89,22.05,6.43,44,9.39,66.06a12.77,12.77,0,0,0,5.59,9.28c16.12,11.64,32.13,23.44,48.43,34.83,5.86,4.09,6.81,7.62,2.44,13.71-28.7,39.9-57.37,79.82-85.44,120.17-7.51,10.8-9.57,24.41-14.8,36.48-4.8,11.1-8.73,22.57-13.07,33.87-.78,2-1.6,4.08-4.24,4.31-1.33-3-.9-6.79-3.7-9.22-3.42,2-3,5.33-3.76,8-3.92,13.88-7.73,27.8-11.3,41.77-1.37,5.37-4.79,10.27-3.93,16.17l2.85,3.79c-23.12,1.66-46.28.44-69.42.65l-1.48.27c-5.21,4.6-4.76,9.69-1.33,15-11,2.94-22.09.85-33.13,1.23l.33-19.73a43.86,43.86,0,0,1,15.58-.37l-.14.05a16.71,16.71,0,0,0-.14-3.95q-8.11-30.24-16.4-60.45c-.38-1.36-.19-3.41-3.35-3.45-2.83,10.9-5.7,22-8.57,33a106.75,106.75,0,0,1-8-29.18l79.8-150.45c2-3.8,4-7.63,5.94-11.45,2.95-.11,5.9-.31,8.85-.32,22.61,0,45.22.17,67.82-.12,12.42-.16,21.73-7.4,21.89-16.07s-9.22-16-21.65-16.11c-19.1-.18-38.21.07-57.31.13-.33-9,6.82-14.82,9.63-22.48,7.44-.49,15.14,1.21,22.25-2.09,5.54-2.56,10.3-6.14,10.14-13.13-.15-6.47-4.3-10.13-9.76-12.51a42.25,42.25,0,0,0-6.14-1.72c1.81-7.4,6.28-13.54,9.72-20.14,15.39-29.47,31-58.82,46.5-88.25C270.72,7.13,272.24,5.42,273.67,11.36Z"/><path class="cls-6" d="M353.43,530.77c-13.71.08-27.42-.09-41.12.24"/><path class="cls-6" d="M195.6,530.76c-9.12-.11-18.24-.26-27.35-.39,5.2-3.46,4.06-8.51,2.62-13s-5.69-4.24-9.56-4.21c-5.93,0-11.86-.18-17.78.07-4.94.2-7.43-.5-6.09-6.64,1.4-6.46-1.67-10-9-9.73-11.57.37-23.17.15-34.76,0-6.33-.07-10.51,2.72-9.22,9.08,1.66,8.23-3.09,7.35-8.11,7.24-4-.08-8.6-.81-10.61,3.84s-1.54,9.47,2.4,13.36c-8.79.11-58.69.51-68.06.17-.1-27,0-39.48,0-46.79-2.1-3.17,29.83-1.27,41.78-.95,5.38-.11,10.75-.31,16.13-.31q294.51,0,589,0c4.58,0,9.15.22,13.72.34.13,2.31,2.07,2.86,3.64,3.86,9.43,6,13.44,16.54,10.39,27.12-2.81,9.78-12.19,16.89-23.06,16.93q-47.22.18-94.45,0c-9.95,0-19.89-.29-29.84-.45,3.94-10.42,2.66-15.64-4.38-15.7q-46.47-.36-92.93,0c-6.09,0-8.58,4.14-6.77,9.88a64,64,0,0,0,2.51,5.94l-6.6.6L369,530.82"/><path class="cls-7" d="M.32,450.24c12.33-.25,24.66-.22,37-.31H61.68c2.65.38,5.3,1.77,7.94,0l26.29-.06c1.91,1.46,3.83.79,5.76,0,11-.38,22.18,1.71,33.13-1.23,2.34.47,4.68,1.35,7,1.35,23.34,0,46.67-.1,70-.18l8.43.05c2.21,1.19,4.13,1.42,5.12-1.52,8.38,3.37,17.08,1,25.62,1.48l40.39,0,79.69.08c2.64,1.4,5.29,1.06,7.95.07l29.11-.21c1.69.64,3.37,1.62,5.14.18l23.9-.07c8.72-.52,17.6,1.92,26.15-1.5,3.14,2,6.67,1.73,10.15,1.73l110.3,0c3.5,0,7,.16,10.08-2,2.1,2.38,4.93,1.82,7.57,1.82q27.92,0,55.82-.07c2.64.36,5.26,1.51,7.9,0l24.34,0c8.08.08,16.17.11,24.25.23,11.39.17,16.23,5,16.26,16.26,0,11.73-4.28,16.26-15.88,16.33-17.79.1-35.58.05-53.36.07-4.57-.12-9.14-.34-13.72-.34q-294.51,0-589,0c-5.38,0-10.75.2-16.13.31l-7.56-.12h-2c-10.73,0-21.46.2-32.18.06"/><path class="cls-8" d="M657.25,449.85q-27.9,0-55.82.07c-2.64,0-5.47.56-7.56-1.82,3.63-11.53,1.57-14.31-10.57-14.36-3.45,0-6.9-.1-10.35-.15-2.92-1.56-5.34-3.24-4.83-7.3,1-8-3.76-10.34-10.7-10.34-8.31,0-16.62-.06-24.93-.09-1.08-17.39-2.2-34.78-3.19-52.18-.23-4-2.37-6-5.84-7.78-21.07-10.73-41.93-21.88-63.07-32.48-5.28-2.65-7.74-5.68-7.2-11.73,2.25-25.34,4.24-50.71,6.28-76.08.73-9.08,1.32-18.17,2-27.27,9.76,2.9,17.3,10.17,26.82,13.54,21.94,14,45,26.08,67.58,38.83A42.16,42.16,0,0,1,571,274.63c7.35,11.19,15.24,22,22.91,33q22,32.85,44,65.69c1.18,1.76,3.71,4.45,4.79,6.28,1.06,2-.69,3.22-1.29,5.42-2.53,9.33-4.62,18.78-7.37,28-1.51,5.08.38,6.25,4.91,6.2,6.19-.08,12.39.12,18.58.2Z"/><path class="cls-9" d="M316.09,95.5,301,64.83c1.27-4.61,5.09-3.16,8.05-3.18,19.41-.1,38.82,0,58.22-.06,2.16,0,4.41.34,6.45-.16,5.45-1.35,10.65-3.86,11-10.14.34-5.8-4.32-8.23-9.33-9.48a46.79,46.79,0,0,0-7.13-1.21c-13.06-1.21-21.68-8.78-21.9-19.35-.22-10.87,8.43-19.51,21.21-21.1A39,39,0,0,1,372.45,0Q444,0,515.58.06a28.36,28.36,0,0,1,8.75,1c11.7,3.86,17.72,12.19,16.25,21.88-1.37,9-11.74,17.43-22.46,17.55-21,.25-42,.15-63.07.11-4.1,0-8,.36-11.71,2.36s-6.07,4.7-6,8.83c.07,4.31,3.22,6.57,6.83,8.14a26.64,26.64,0,0,0,9.46,1.76c11.49.59,19.24,7.76,19.12,17.43-.12,9.23-8.62,16.28-20.11,16.44-10,.13-19.95,0-29.92.1a86.49,86.49,0,0,0-9.57,1.08c-6.31.82-10.42,4.66-9.56,10.75.79,5.63,5.31,9.14,11.58,9.15,17.52,0,35,.16,52.56,0,5.28,0,10.1,1.32,14.91,3.1,7,2.59,9.83,8.34,10.29,15.08.41,6-6.68,13.67-13.75,15.27A66.56,66.56,0,0,1,464,152.12c-24.53-.16-49.06-.06-73.59-.05-2.09-15.82-12.2-21-27-21.82-9.05-.49-17.93-3.57-27-4.84-5.6-.78-8.86-3.14-9.56-8.78,3.48,0,7-.07,10.45,0,6.77.22,11.69-2.07,12.26-9.53.48-6.34-5.06-11.3-12.65-11.49C330,95.47,323.06,95.54,316.09,95.5Z"/><path class="cls-10" d="M212.4,119.52a42.25,42.25,0,0,1,6.14,1.72c5.46,2.38,9.61,6,9.76,12.51.16,7-4.6,10.57-10.14,13.13-7.11,3.3-14.81,1.6-22.25,2.09-5.66,0-11.34-.22-17,.12-5.86.35-10.67,3.25-11.81,9.17s3,9.2,8.18,11.32c3.57,1.45,7.11,2.46,11,1.87,19.1-.06,38.21-.31,57.31-.13,12.43.11,21.81,7.38,21.65,16.11s-9.47,15.91-21.89,16.07c-22.6.29-45.21.09-67.82.12-2.95,0-5.9.21-8.85.32-22.89,0-45.78-.08-68.67,0a35.22,35.22,0,0,1-12.65-2.07c-9-3.34-13.14-8.82-12.07-15.85,1.21-7.88,8.42-14.07,17-14.41,4.57-.17,9.16-.24,13.73-.07a19.31,19.31,0,0,0,10.71-3.05c7.11-4.21,7.24-12.65.16-16.88a21.76,21.76,0,0,0-11.63-2.71c-11.31.1-22.63.19-33.93,0s-19.87-6.56-20.25-14.72c-.32-6.9,9.6-15.19,19.65-15.71,8.59-.45,17.23-.13,25.84-.14q50.91,0,101.8,0A79.54,79.54,0,0,1,212.4,119.52Z"/><path class="cls-11" d="M593.87,307.62c-7.67-11-15.56-21.8-22.91-33a42.16,42.16,0,0,0-15.11-13.92c-22.63-12.75-45.64-24.87-67.58-38.83q59.37,0,118.75-.08a30.21,30.21,0,0,1,11.83,2.1c6.42,2.69,10.64,7,10.92,14.51.29,7.88-4.68,11.45-11,14.17-7.68,3.31-16,.6-23.92,2.7-6.2,1.65-12.16,3.42-11.81,10.71.36,7.5,6.78,10.25,13.21,10.55,12.09.57,24.23.26,36.34.22,3.81,0,7.7-.05,11,1.85,5.17,2.93,10.49,6.2,10.18,13.23-.33,7.42-5,11.58-11.69,13.8-6.24,2.08-12.73,1.83-19.19,1.82C613.25,307.45,603.56,307.56,593.87,307.62Z"/><path class="cls-7" d="M645.21,371.94c5.27-18.63,10.25-37.34,15.91-58.22,4.91,17.85,9.26,33.53,13.53,49.22,4.6,16.89,9,33.83,13.78,50.68,1.25,4.41.22,5.74-4.29,5.81-4.74.07-9.68-1.21-14.23,1.22l-5.15-1.1-7.24-.11c-6.19-.08-12.39-.28-18.58-.2-4.53.05-6.42-1.12-4.91-6.2,2.75-9.25,4.84-18.7,7.37-28"/><path class="cls-6" d="M80.94,365.84A106.75,106.75,0,0,0,89,395c-3.34,7.9-3.19,17-8.15,24.34l-11.17.31-7.9.05-9.32-.22c-15.56-.43-15.64-.45-11.61-15.42q10.81-40.14,21.81-80.22c.74-2.74,1.78-5.41,3-9.12C72.19,332.16,74.19,349.72,80.94,365.84Z"/><path class="cls-7" d="M68.16,530.36c-3.94-3.89-4.47-8.6-2.4-13.36s6.62-3.92,10.61-3.84c5,.11,9.77,1,8.11-7.24-1.29-6.36,2.89-9.15,9.22-9.08,11.59.14,23.19.36,34.76,0,7.31-.24,10.38,3.27,9,9.73-1.34,6.14,1.15,6.84,6.09,6.64,5.92-.25,11.85,0,17.78-.07,3.87,0,8.18-.17,9.56,4.21s2.58,9.57-2.62,13l-14.4.89L85,530.66C79.37,530.6,73.77,530.46,68.16,530.36Z"/><path class="cls-7" d="M425.87,530.41a64,64,0,0,1-2.51-5.94c-1.81-5.74.68-9.85,6.77-9.88q46.46-.27,92.93,0c7,.06,8.32,5.28,4.38,15.7C493.58,531.26,459.72,531.07,425.87,530.41Z"/><path class="cls-12" d="M369,530.82l50.32.19"/><path class="cls-5" d="M52.44,419.5l9.32.22q0,15.11-.08,30.23l-24.37,0Q44.89,434.72,52.44,419.5Z"/><path class="cls-13" d="M664.76,419.55l5.15,1.1,19.58,29.28-24.34,0Z"/><path class="cls-14" d="M32.28,482.67h0Z"/><path class="cls-15" d="M291.39,449.78l-40.39,0c7.19-11.6,14.27-23.27,21.6-34.78,11.83-18.58,23.87-37,35.73-55.59,12.84-20.1,25.56-40.28,38.35-60.4.82-1.29,1.83-2.45,3.34-4.45,2.24,6.24.48,10.79,0,15.45q-2.87,25.57-5,51.22c-.32,3.81-1.44,6.28-4.59,8.68-8.11,6.18-15.58,13.21-23.72,19.34-4.46,3.35-4.54,5,.25,8s13.61,3.14,13.74,9.36c.1,5.26-7.18,8.83-11.35,12.95Q304.62,434,291.39,449.78Z"/><path class="cls-7" d="M371.39,419.71c-5.11-.14-10.22-.37-15.33-.41-9.72-.09-9.78-.06-7.16-9.84,5.15-19.22,10.3-38.44,15.6-57.61a43.34,43.34,0,0,0,1.6-12,23.12,23.12,0,0,0,4.64-14.45l4.7-9.82,13.21,45.15c2.42,13.26,5.53,26.32,11,38.72.55,3.38.93,6.8,1.69,10.13,2.14,9.36,2.2,9.34-7.49,9.76l-13.48,0a6.06,6.06,0,0,0-1.59.18Z"/><path class="cls-6" d="M573,433.59c3.45.05,6.9.13,10.35.15,12.14.05,14.2,2.83,10.57,14.36-3.07,2.14-6.59,2-10.09,2l-110.3,0c-3.48,0-7,.28-10.15-1.73-4.4-10.48-1.82-14.64,9.21-14.79,4.85-.06,9.7-.05,14.55-.07Z"/><path class="cls-6" d="M573,433.59l-85.86-.12c-.48-2.64-1.18-5.25-1.41-7.9-.53-6.29,2.23-9.63,8.83-9.6,12.66,0,25.32-.07,38-.11,8.31,0,16.62.09,24.93.09,6.94,0,11.7,2.34,10.7,10.34C567.61,430.35,570,432,573,433.59Z"/><path class="cls-6" d="M204.18,428.9c-.86-5.91,2.56-10.81,3.93-16.18,3.57-14,7.38-27.89,11.3-41.77.76-2.67.34-6,3.76-8,2.8,2.43,2.37,6.22,3.7,9.22Q233.44,396.6,240,421c2.39,9,2,9.36-7.48,9.31-2.41,0-4.83,0-7.24,0-1.41-1.59-3.17-1.1-4.9-.84Z"/><path class="cls-6" d="M393.81,419.39c9.68-.42,9.62-.4,7.48-9.76-.76-3.33-1.14-6.75-1.69-10.12,1.69-5.63,3.57-11.22,3.9-17.16l7.59-23.64c6.42,23.64,12.32,45.32,18.21,67-.7,3.57-3.49,3.31-6.13,3.38-3.41.08-6.82.23-10.23.35l-4.78.07c-2.1-.13-4.2-.36-6.3-.39C392.2,429,392.2,429,393.81,419.39Z"/><path class="cls-16" d="M316.09,95.5c7,0,13.94,0,20.9.15,7.59.19,13.13,5.15,12.65,11.49-.57,7.46-5.49,9.75-12.26,9.53-3.48-.11-7,0-10.45,0C322.46,110,319.3,102.75,316.09,95.5Z"/><path class="cls-8" d="M413,429.45c3.4-.12,6.81-.27,10.22-.35,2.64-.07,5.43.19,6.13-3.38-2.09,9.58,6.83,15.56,7.88,24.11l-23.9.07Z"/><path class="cls-17" d="M371.39,419.71l7.34-.16.3,30.38c-2.66,1-5.31,1.33-7.95-.07Q371.23,434.79,371.39,419.71Z"/><path class="cls-8" d="M370.74,325.45a23.12,23.12,0,0,1-4.64,14.45A280,280,0,0,1,355,299.59C362,307.28,366.15,316.5,370.74,325.45Z"/><path class="cls-8" d="M403.5,382.35c-.33,5.94-2.21,11.53-3.9,17.16-5.42-12.41-8.53-25.47-11-38.73,5.12,4,6.38,10.41,9.85,15.45C400,378.43,400.84,381.11,403.5,382.35Z"/><path class="cls-17" d="M220.38,429.5c1.73-.26,3.49-.75,4.9.84q0,9,.1,18c-1,2.94-2.91,2.71-5.12,1.52Z"/><path class="cls-7" d="M80.83,419.36c5-7.36,4.81-16.44,8.15-24.34,2.87-11.07,5.74-22.15,8.57-33,3.16,0,3,2.09,3.35,3.45q8.28,30.21,16.4,60.45a16.71,16.71,0,0,1,.14,3.95l.14-.05a43.74,43.74,0,0,0-15.56.37c-1.92-1.31-3.94-1.15-6-.36-1.82-.19-3.72-.81-5.46-.51C82.37,430.68,79.05,427.59,80.83,419.36Z"/><path class="cls-14" d="M211.83,449.81c-23.34.08-46.67.2-70,.18-2.34,0-4.68-.88-7-1.35-3.43-5.35-3.88-10.44,1.33-15a2.38,2.38,0,0,0,1.48-.27c23.14-.21,46.3,1,69.42-.65C216.56,436.45,217.7,440.51,211.83,449.81Z"/><path class="cls-16" d="M186.28,171.45c-3.87.59-7.41-.42-11-1.87-5.21-2.12-9.32-5.36-8.18-11.32s5.95-8.82,11.81-9.17c5.64-.34,11.32-.11,17-.12C193.1,156.63,186,162.44,186.28,171.45Z"/><path class="cls-4" d="M211.83,449.81c5.87-9.3,4.73-13.36-4.8-17.13l-2.85-3.79,16.2.61-.12,20.36Z"/><path class="cls-17" d="M96,429.78c2.07-.79,4.09-.95,6,.36q-.19,9.87-.35,19.73c-1.93.78-3.85,1.45-5.76,0Q96,439.83,96,429.78Z"/><path class="cls-18" d="M137.61,433.33a2.38,2.38,0,0,1-1.48.27Z"/><path class="cls-17" d="M117.58,429.77l-.14.05Z"/><path class="cls-5" d="M96,429.78q0,10.05-.1,20.08l-26.29.06q0-15.12,0-30.25l11.17-.31c-1.78,8.23,1.54,11.32,9.72,9.91C92.29,429,94.19,429.59,96,429.78Z"/><path class="cls-8" d="M379,449.93l-.3-30.38a6.06,6.06,0,0,1,1.59-.18A10.76,10.76,0,0,0,385,429.62c7.87,5.93,15.3,12.45,22.91,18.73a2.92,2.92,0,0,1,.27,1.37Z"/><path class="cls-17" d="M69.66,419.67c-.29,9.83.45,20,0,30.25-2.84,1.46-5.36.72-7.94,0,.29-10.26-.43-20.12.08-30.22C64.38,420,67.05,419.37,69.66,419.67Z"/><path class="cls-17" d="M664.76,419.55l.39,30.34c-2.64,1.47-5.26.32-7.9,0l.27-30.41Z"/><path class="cls-17" d="M408.14,449.72a2.92,2.92,0,0,0-.27-1.37q.15-9.42.29-18.83l4.78-.07q.18,10.23.34,20.45C411.51,451.34,409.83,450.36,408.14,449.72Z"/><path class="cls-8" d="M408.16,429.52q-.15,9.42-.29,18.83c-7.61-6.28-15-12.8-22.91-18.73a10.76,10.76,0,0,1-4.64-10.25l13.48,0c-1.6,9.62-1.6,9.6,8.06,9.74C404,429.16,406.06,429.39,408.16,429.52Z"/><g id="UotMCa.tif"><path class="cls-5" d="M1900.34,449.07a9.45,9.45,0,0,1-5.34,1.46c-1.24,0-2.23,0-7.44.05h-.2c-2.47,0-28.78.66-100.23-2.28-2.76-3.56-7.12-8.6-8.37-11.15,0,0-2.71-3.26-3.87-11.22-.2-1.35-.28-2.72-.42-4.07s.18-1.71,1.6-1.12a138.29,138.29,0,0,0,23.61,7.44,201.8,201.8,0,0,0,32.64,4.49c6.51.37,13,.7,19.52.5,20.18-.64,40.09-3,59.32-9.58a77.13,77.13,0,0,0,9.25-3.63c1.17-.58,1.8-.5,1.75,1.06a31.92,31.92,0,0,1-8.85,21.52"/><path class="cls-19" d="M1873,450.34h-22.26"/></g><g id="ZngLAO.tif-2" data-name="ZngLAO.tif"><path class="cls-1" d="M1880.12,474a2.16,2.16,0,0,0,1.44,1.44c.74.75,1.46,1.52,2.23,2.24,1.55,1.45,2.46,1.45,4-.08s2.9-3.08,4.37-4.6c2.43-2.5,2.44-3.07,0-5.47-.48-.48-1-.92-1.5-1.39a2.12,2.12,0,0,0-1.4-1.24l-1.5-1.5a2.21,2.21,0,0,0-1.32-1.22c-1.66-2.4-4.26-3.36-6.81-4.32a39.74,39.74,0,0,1-14.23-9.17c-11.52-11.46-23.38-22.56-35.1-33.8-.89-.85-1.85-1.55-1.09-3.15.52-1.1-.85-1.66-1.56-2.26s-1.13.17-1.54.59c-1,1.08-2,2.24-3.07,3.26s-.87,1.62.12,2.42c.68.56,1.21,1.23,2.21.43.66-.53,1.25,0,1.78.47,1.88,1.81,3.79,3.59,5.67,5.4,9.66,9.26,19.38,18.46,29,27.81,3.39,3.31,7.4,6.13,9.14,10.9.84,2.32,2.19,4.46,3.21,6.72a9.29,9.29,0,0,0,3,3.75c.25.65,1,.79,1.4,1.23Z"/><path class="cls-2" d="M1877.1,471.19a9.29,9.29,0,0,1-3-3.75c-1-2.26-2.37-4.4-3.21-6.72-1.74-4.77-5.75-7.59-9.14-10.9-9.57-9.35-19.29-18.55-29-27.81-1.88-1.81-3.79-3.59-5.67-5.4-.53-.51-1.12-1-1.78-.47-1,.8-1.53.13-2.21-.43-1-.8-1.09-1.5-.12-2.42s2-2.18,3.07-3.26c.41-.42.89-1.14,1.54-.59s2.08,1.16,1.56,2.26c-.76,1.6.2,2.3,1.09,3.15,11.72,11.24,23.58,22.34,35.1,33.8a39.74,39.74,0,0,0,14.23,9.17c2.55,1,5.15,1.92,6.81,4.32Z"/><path class="cls-2" d="M1890.66,466.1c.5.47,1,.91,1.5,1.39,2.4,2.4,2.39,3,0,5.47-1.47,1.52-2.88,3.1-4.37,4.6s-2.41,1.53-4,.08c-.77-.72-1.49-1.49-2.23-2.24Z"/><path class="cls-2" d="M1887.76,463.36l1.5,1.5-9.14,9.1-1.62-1.54Q1883,467.73,1887.76,463.36Z"/><path class="cls-20" d="M1880.12,474l9.14-9.1a2.12,2.12,0,0,1,1.4,1.24l-9.1,9.3A2.16,2.16,0,0,1,1880.12,474Z"/><path class="cls-20" d="M1887.76,463.36q-4.8,4.35-9.26,9.06c-.44-.44-1.15-.58-1.4-1.23l9.34-9.05A2.21,2.21,0,0,1,1887.76,463.36Z"/></g></g></g></svg>