<svg xmlns="http://www.w3.org/2000/svg" viewBox="0 0 5130.83 368.53"><defs><style>.cls-1,.cls-9{fill:#033;}.cls-2{fill:#52e68c;}.cls-3{fill:#6cc;}.cls-4{fill:#366;}.cls-5{fill:#3c6;}.cls-6{fill:#396;}.cls-7{fill:#699;}.cls-8{fill:#c3f4ce;}.cls-9{stroke:#033;stroke-miterlimit:10;stroke-width:0.1px;}.cls-10{fill:none;}.cls-11{fill:#c08d67;}.cls-12{fill:#00788a;}</style></defs><g id="Layer_2" data-name="Layer 2"><g id="Layer_1-2" data-name="Layer 1"><path class="cls-1" d="M36.89,289.81l6.55.15q0,10.64,0,21.26H26.25Q31.56,300.52,36.89,289.81Z"/><path class="cls-2" d="M22.7,334.24h0Z"/><rect class="cls-3" x="274.09" y="334.48" width="4856.74" height="34.05"/><rect class="cls-3" x="428.36" y="310.24" width="4702.11" height="24.62"/><path class="cls-4" d="M192.5,2.72q8.79,17.37,17.58,34.74c.5,1,1.11,1.91,1.67,2.87L222.34,61.9c2.26,5.1,4.48,10.22,7.63,14.87.49,4,2.78,5.62,6.72,6.17,6.37.89,12.61,3.06,19,3.4,10.38.56,17.5,4.22,19,15.35L294,164.36c11.07-7.27,19.81-16.59,30.64-23.08-.46,6.39-.88,12.79-1.4,19.18-1.43,17.84-2.83,35.68-4.41,53.51-.38,4.26,1.35,6.39,5.07,8.25,14.86,7.46,29.53,15.3,44.35,22.85,2.45,1.24,3.95,2.64,4.11,5.48.7,12.23,1.49,24.46,2.25,36.69-8.91,0-17.81.12-26.71.08-4.65,0-6.59,2.33-6.22,6.76.16,1.86.66,3.7,1,5.55-3.42,0-6.83,0-10.24.06-7.76.1-9.57,3-6.48,10.4-6,2.4-12.26.69-18.39,1.05-.74-6-7-10.22-5.55-17-4.14-15.25-8.29-30.51-12.81-47.13l-5.33,16.62c-1.87-.87-2.46-2.75-3.52-4.3-2.44-3.54-3.33-8.07-6.93-10.87-3-10.31-6-20.63-9.29-31.76l-3.31,6.91c-3.22-6.3-6.14-12.78-11-18.19a197.2,197.2,0,0,0,7.78,28.36,30.74,30.74,0,0,1-1.12,8.4c-3.73,13.49-7.36,27-11,40.52-1.84,6.89-1.8,6.87,5,6.93,3.59,0,7.19.18,10.78.29q-.11,10.59-.22,21.2l-56-.05c6.22-7.38,12.73-14.48,19.61-21.26,2.93-2.9,8-5.41,8-9.11-.09-4.38-6.25-4.49-9.66-6.58s-3.32-3.24-.18-5.6c5.73-4.32,11-9.26,16.69-13.61a7.59,7.59,0,0,0,3.23-6.11q1.52-18,3.54-36c.36-3.28,1.61-6.48,0-10.87-1.06,1.41-1.77,2.23-2.35,3.13-9,14.16-18,28.35-27,42.48-8.34,13.06-16.81,26-25.13,39.11-5.15,8.1-10.13,16.31-15.19,24.46-6-.33-12.13,1.33-18-1l-.08-12.67h5.1c6.7,0,6.94-.25,5.26-6.55q-4.59-17.2-9.24-34.38c1.86-.15,2.44-1.6,3-3,3.05-7.94,5.81-16,9.19-23.82,3.68-8.49,5.13-18.07,10.41-25.66,19.74-28.38,39.91-56.47,60.1-84.53,3.08-4.28,2.41-6.76-1.72-9.65-11.46-8-22.72-16.31-34.07-24.49a9,9,0,0,1-3.92-6.53c-2.09-15.51-4.58-31-6.61-46.47C194.65,22.48,192.09,12.76,192.5,2.72Z"/><path class="cls-1" d="M131,115.33c-.23-6.34,4.8-10.43,6.77-15.82"/><path class="cls-1" d="M149.4,78.8c1.28-5.21,4.42-9.53,6.84-14.17C167.07,43.9,178.07,23.26,189,2.56c1.48-2.82,2.55-4,3.55.16-.41,10,2.15,19.76,3.45,29.61,2,15.51,4.52,31,6.61,46.47a9,9,0,0,0,3.92,6.53c11.35,8.18,22.61,16.48,34.07,24.49,4.13,2.89,4.8,5.37,1.72,9.65-20.19,28.06-40.36,56.15-60.1,84.53-5.28,7.59-6.73,17.17-10.41,25.66-3.38,7.8-6.14,15.88-9.19,23.82-.55,1.43-1.13,2.88-3,3-.93-2.11-.63-4.77-2.6-6.48-2.41,1.39-2.11,3.75-2.64,5.63-2.76,9.76-5.44,19.55-8,29.38-1,3.78-3.37,7.22-2.77,11.38l2,2.66c-16.27,1.17-32.56.31-48.83.45l-1,.2c-3.67,3.23-3.35,6.81-.94,10.58-7.7,2.06-15.54.59-23.31.86l.24-13.88a30.77,30.77,0,0,1,11-.26l-.09,0a11.66,11.66,0,0,0-.1-2.78Q76.8,273,71,251.77c-.26-1-.13-2.41-2.35-2.43l-6,23.25a75.55,75.55,0,0,1-5.66-20.53Q85,199.15,113.06,146.23c1.42-2.67,2.79-5.37,4.18-8"/><path class="cls-5" d="M248.6,368.08c-9.64.05-19.28-.07-28.92.17"/><path class="cls-5" d="M137.59,368.07q-9.63-.12-19.24-.28c3.65-2.43,2.85-6,1.84-9.16s-4-3-6.72-3c-4.17,0-8.35-.13-12.51,0-3.47.15-5.22-.34-4.29-4.66,1-4.55-1.17-7-6.31-6.85-8.14.26-16.3.11-24.45,0-4.45,0-7.4,1.91-6.49,6.39,1.17,5.78-2.17,5.17-5.7,5.09-2.81-.06-6-.57-7.47,2.7a7.94,7.94,0,0,0,1.69,9.4c-6.18.08-41.28.36-47.87.12-.07-19,0-27.78,0-32.91-1.47-2.24,21-.9,29.39-.67,3.78-.08,7.56-.22,11.34-.22q207.18,0,414.34,0c3.21,0,6.43.15,9.64.24.1,1.62,1.46,2,2.56,2.71a16.64,16.64,0,0,1,7.32,19.08,16.88,16.88,0,0,1-16.23,11.91q-33.21.12-66.43,0c-7,0-14-.21-21-.32,2.77-7.33,1.87-11-3.09-11q-32.67-.25-65.37,0c-4.28,0-6,2.91-4.75,7a44.44,44.44,0,0,0,1.76,4.17l-4.64.42-35.4-.13"/><path class="cls-6" d="M.22,311.43c8.67-.18,17.35-.15,26-.22H43.39c1.86.27,3.72,1.24,5.58,0l18.49,0c1.35,1,2.7.56,4.05,0,7.77-.27,15.61,1.2,23.31-.87a25.94,25.94,0,0,0,4.94.95c16.41,0,32.83-.06,49.25-.12l5.92,0c1.56.84,2.91,1,3.61-1.06,5.89,2.36,12,.7,18,1l28.41,0,56,.05a6.55,6.55,0,0,0,5.59,0l20.48-.15c1.19.45,2.37,1.15,3.61.13l16.82-.05c6.13-.36,12.38,1.35,18.39-1.06,2.21,1.42,4.69,1.22,7.14,1.22h77.59c2.46,0,4.93.12,7.09-1.39,1.47,1.68,3.46,1.29,5.32,1.29q19.63,0,39.27,0c1.85.25,3.7,1.06,5.56,0l17.12,0c5.68.05,11.37.08,17.05.16,8,.12,11.42,3.54,11.44,11.44,0,8.25-3,11.44-11.17,11.48-12.51.08-25,0-37.54.06-3.21-.09-6.43-.24-9.64-.24q-207.17,0-414.34,0c-3.78,0-7.56.14-11.34.22l-5.32-.09H22.7c-7.54,0-15.09.14-22.63,0"/><path class="cls-7" d="M462.32,311.16q-19.63,0-39.27,0c-1.86,0-3.85.39-5.32-1.29,2.56-8.1,1.11-10.06-7.43-10.1-2.43,0-4.86-.07-7.28-.1-2.06-1.1-3.76-2.28-3.4-5.14.71-5.62-2.64-7.27-7.52-7.27-5.85,0-11.7,0-17.54-.07-.76-12.23-1.55-24.46-2.25-36.69-.16-2.84-1.66-4.24-4.11-5.48-14.82-7.55-29.49-15.39-44.35-22.85-3.72-1.86-5.45-4-5.07-8.25,1.58-17.83,3-35.67,4.41-53.51.52-6.39.94-12.79,1.4-19.18,6.86,2,12.17,7.15,18.86,9.52,15.44,9.82,31.62,18.35,47.54,27.32a29.47,29.47,0,0,1,10.63,9.79c5.17,7.86,10.72,15.48,16.11,23.2q15.5,23.1,31,46.2c.83,1.25,2.62,3.13,3.37,4.42s-.48,2.27-.9,3.82c-1.78,6.56-3.25,13.2-5.19,19.71-1.06,3.58.27,4.4,3.46,4.36,4.35-.05,8.71.09,13.07.14Q462.41,300.46,462.32,311.16Z"/><path class="cls-6" d="M453.84,256.35c3.72-13.1,7.22-26.26,11.2-41C468.49,228,471.55,239,474.56,250c3.23,11.88,6.33,23.8,9.69,35.65.87,3.1.15,4-3,4.09-3.34.05-6.8-.85-10,.86l-3.62-.78-5.09-.08c-4.36-.05-8.72-.19-13.07-.14-3.19,0-4.52-.78-3.46-4.36,1.94-6.51,3.41-13.15,5.19-19.71"/><path class="cls-5" d="M56.93,252.06a75.55,75.55,0,0,0,5.66,20.53c-2.35,5.56-2.24,11.94-5.73,17.12l-7.86.22-5.56,0-6.55-.15c-10.95-.31-11-.32-8.17-10.85q7.61-28.23,15.34-56.43c.53-1.93,1.26-3.8,2.13-6.41C50.78,228.37,52.18,240.72,56.93,252.06Z"/><path class="cls-6" d="M47.94,367.79a7.94,7.94,0,0,1-1.69-9.4c1.42-3.27,4.66-2.76,7.47-2.7,3.53.08,6.87.69,5.7-5.09-.91-4.48,2-6.44,6.49-6.39,8.15.1,16.31.25,24.45,0,5.14-.17,7.3,2.3,6.31,6.85-.93,4.32.82,4.81,4.29,4.66,4.16-.17,8.34,0,12.51,0,2.72,0,5.75-.12,6.72,3s1.81,6.73-1.84,9.16l-10.13.63L59.78,368C55.83,368,51.89,367.86,47.94,367.79Z"/><path class="cls-6" d="M299.56,367.82a44.44,44.44,0,0,1-1.76-4.17c-1.28-4,.47-6.93,4.75-7q32.68-.19,65.37,0c5,0,5.86,3.71,3.09,11C347.19,368.42,323.38,368.29,299.56,367.82Z"/><path class="cls-8" d="M259.52,368.11l35.4.13"/><path class="cls-7" d="M467.6,289.84l3.62.78q6.88,10.29,13.78,20.59l-17.12,0Q467.73,300.52,467.6,289.84Z"/><path class="cls-9" d="M205,311.11l-28.41,0c5.06-8.15,10-16.36,15.19-24.46,8.32-13.07,16.79-26.05,25.13-39.11,9-14.13,18-28.32,27-42.48.58-.9,1.29-1.72,2.35-3.13,1.58,4.39.33,7.59,0,10.87q-2,18-3.54,36a7.59,7.59,0,0,1-3.23,6.11c-5.71,4.35-11,9.29-16.69,13.61-3.14,2.36-3.19,3.52.18,5.6s9.57,2.2,9.66,6.58c.07,3.7-5.05,6.21-8,9.11C217.7,296.63,211.19,303.73,205,311.11Z"/><path class="cls-6" d="M261.24,290c-3.59-.11-7.19-.26-10.78-.29-6.84-.06-6.88,0-5-6.93,3.62-13.51,7.25-27,11-40.52a30.74,30.74,0,0,0,1.12-8.4,16.25,16.25,0,0,0,3.26-10.17l3.31-6.91c3.25,11.13,6.27,21.45,9.29,31.77,1.7,9.32,3.89,18.51,7.7,27.23.39,2.38.66,4.78,1.19,7.12,1.5,6.59,1.55,6.58-5.27,6.87l-9.48,0a4.7,4.7,0,0,0-1.12.13Z"/><path class="cls-5" d="M403,299.72c2.42,0,4.85.09,7.28.1,8.54,0,10,2,7.43,10.1-2.16,1.51-4.63,1.4-7.09,1.39H333.05c-2.45,0-4.93.2-7.14-1.22-3.09-7.37-1.28-10.29,6.48-10.39,3.41-.05,6.82,0,10.24-.06Z"/><path class="cls-5" d="M403,299.72l-60.39-.09c-.34-1.85-.84-3.69-1-5.55-.37-4.43,1.57-6.78,6.22-6.76,8.9,0,17.8,0,26.71-.08,5.84,0,11.69.07,17.54.07,4.88,0,8.23,1.65,7.52,7.27C399.26,297.44,401,298.62,403,299.72Z"/><path class="cls-5" d="M143.63,296.42c-.61-4.16,1.8-7.6,2.76-11.38,2.51-9.83,5.19-19.62,8-29.38.53-1.88.23-4.24,2.64-5.63,2,1.71,1.67,4.37,2.6,6.48q4.62,17.19,9.24,34.38c1.68,6.3,1.44,6.58-5.26,6.55h-5.1c-1-1.12-2.23-.77-3.44-.59Z"/><path class="cls-5" d="M277,289.73c6.81-.29,6.76-.28,5.26-6.87-.53-2.34-.8-4.74-1.18-7.12,1.19-4,2.5-7.89,2.74-12.07l5.33-16.62c4.52,16.62,8.67,31.88,12.81,47.13-.49,2.51-2.45,2.33-4.31,2.38-2.4.06-4.79.16-7.19.24l-3.37.06c-1.47-.1-3-.26-4.43-.28C275.88,296.48,275.88,296.5,277,289.73Z"/><path class="cls-10" d="M222.34,61.9c4.9,0,9.81,0,14.7.11,5.34.13,9.24,3.62,8.9,8.08-.4,5.25-3.86,6.86-8.62,6.71-2.45-.08-4.9,0-7.35,0C226.82,72.12,224.6,67,222.34,61.9Z"/><path class="cls-7" d="M290.47,296.81c2.4-.09,4.79-.19,7.19-.25,1.86-.05,3.82.13,4.31-2.38-1.46,6.74,4.81,10.95,5.55,17l-16.82.05Q290.6,304,290.47,296.81Z"/><path class="cls-11" d="M261.24,290l5.16-.12.21,21.37a6.55,6.55,0,0,1-5.59,0Q261.13,300.55,261.24,290Z"/><path class="cls-7" d="M260.78,223.65a16.25,16.25,0,0,1-3.26,10.17,197.2,197.2,0,0,1-7.78-28.36C254.64,210.87,257.56,217.35,260.78,223.65Z"/><path class="cls-7" d="M283.83,263.67c-.24,4.18-1.55,8.11-2.74,12.07-3.82-8.72-6-17.91-7.71-27.23,3.6,2.79,4.49,7.32,6.93,10.86C281.37,260.92,282,262.8,283.83,263.67Z"/><path class="cls-11" d="M155,296.84c1.21-.18,2.45-.53,3.44.59q0,6.33.08,12.67c-.7,2.06-2,1.9-3.61,1.06Z"/><path class="cls-6" d="M56.86,289.71c3.49-5.18,3.38-11.56,5.73-17.12l6-23.25c2.22,0,2.09,1.47,2.35,2.43Q76.81,273,82.51,294.29a11.66,11.66,0,0,1,.1,2.78l.09,0a30.71,30.71,0,0,0-10.94.26,4.29,4.29,0,0,0-4.22-.25,14.59,14.59,0,0,0-3.85-.36C57.94,297.67,55.61,295.5,56.86,289.71Z"/><path class="cls-2" d="M149,311.13c-16.42.06-32.84.14-49.25.12a25.94,25.94,0,0,1-4.94-.95c-2.41-3.76-2.73-7.34.93-10.57a1.75,1.75,0,0,0,1-.2c16.27-.14,32.56.72,48.83-.45C152.33,301.73,153.13,304.58,149,311.13Z"/><path class="cls-10" d="M131,115.33a14.42,14.42,0,0,1-7.72-1.32c-3.67-1.49-6.56-3.77-5.75-8s4.18-6.21,8.3-6.45c4-.24,8-.08,11.94-.09C135.83,104.9,130.8,109,131,115.33Z"/><path class="cls-4" d="M149,311.13c4.12-6.55,3.32-9.4-3.38-12.05l-2-2.66,11.4.42-.09,14.32Z"/><path class="cls-11" d="M67.54,297a4.29,4.29,0,0,1,4.22.25q-.14,6.94-.25,13.88c-1.35.55-2.7,1-4.05,0Q67.51,304.1,67.54,297Z"/><path class="cls-12" d="M96.8,299.53a1.75,1.75,0,0,1-1,.2Z"/><path class="cls-11" d="M82.7,297l-.09,0Z"/><path class="cls-1" d="M67.54,297q0,7.06-.08,14.13l-18.49,0,0-21.28,7.86-.22c-1.25,5.79,1.08,8,6.83,7A14.59,14.59,0,0,1,67.54,297Z"/><path class="cls-7" d="M266.61,311.21l-.21-21.37a4.7,4.7,0,0,1,1.12-.13,7.57,7.57,0,0,0,3.26,7.22c5.54,4.17,10.77,8.75,16.12,13.17a2.14,2.14,0,0,1,.19,1Z"/><path class="cls-11" d="M49,289.93c-.2,6.91.32,14.08,0,21.28-2,1-3.77.5-5.58,0,.2-7.22-.3-14.15,0-21.26C45.28,290.17,47.16,289.72,49,289.93Z"/><path class="cls-11" d="M467.6,289.84q.13,10.67.28,21.34c-1.86,1-3.71.23-5.56,0q.09-10.71.19-21.4Z"/><path class="cls-11" d="M287.09,311.06a2.14,2.14,0,0,0-.19-1q.11-6.63.2-13.24l3.37-.06q.12,7.2.23,14.39C289.46,312.21,288.28,311.51,287.09,311.06Z"/><path class="cls-7" d="M287.1,296.86q-.09,6.61-.2,13.24c-5.35-4.42-10.58-9-16.12-13.17a7.57,7.57,0,0,1-3.26-7.22l9.48,0c-1.12,6.77-1.12,6.75,5.67,6.85C284.15,296.6,285.63,296.76,287.1,296.86Z"/></g></g></svg>