<?xml version="1.0" encoding="UTF-8"?>
<svg width="120px" height="98px" viewBox="0 0 120 98" version="1.1" xmlns="http://www.w3.org/2000/svg" xmlns:xlink="http://www.w3.org/1999/xlink">
    <title>Group 12</title>
    <defs>
        <polygon id="path-1" points="0.115987946 1.57397369 15.6693103 1.57397369 15.6693103 17.1332044 0.115987946 17.1332044"></polygon>
    </defs>
    <g id="Mockup" stroke="none" stroke-width="1" fill="none" fill-rule="evenodd">
        <g id="Group-12">
            <ellipse id="Oval" fill-opacity="0.284582605" fill="#000000" cx="60" cy="84.5" rx="60" ry="13.5"></ellipse>
            <g id="Group-78" transform="translate(19.000000, 0.000000)">
                <path d="M40.1103276,30.7495517 C40.1103276,33.1617931 40.1660172,35.5769655 40.0898103,37.9892069 C40.0487759,39.273 40.5001552,40.208 41.3911897,41.0902414 C46.2742931,45.9205862 51.1163621,50.7919655 55.9789483,55.6428276 C57.2627414,56.9266207 59.1913621,57.1288621 60.208431,56.1147241 C61.3280862,54.998 61.1639483,53.4826552 59.7453276,52.0611034 C55.3282586,47.6381724 50.9317069,43.1976552 46.4618793,38.8274828 C45.6294655,38.0126552 45.3217069,37.2212759 45.3363621,36.0869655 C45.3949828,31.878 45.3773966,27.6690345 45.3539483,23.463 C45.3422241,21.6897241 44.2401552,20.5173103 42.7101552,20.5318297 C41.1830862,20.5495517 40.1367069,21.7161034 40.1161897,23.5098966 C40.0927414,25.9221379 40.1103276,28.3343793 40.1103276,30.7495517 M76.5167069,39.5221379 C76.3555,48.4969655 72.7561897,56.7331724 65.6953276,63.4862759 C60.5367069,68.4221379 54.2467069,71.575931 47.4027414,72.3643793 C36.5608448,73.615931 26.6744655,70.5705862 18.7987759,62.5483448 C12.3241207,55.9505862 8.98567241,47.9664483 8.96802544,38.7014483 C8.93291379,20.063 24.1713621,4.92127586 42.8508448,4.95638712 C61.392569,4.98868966 76.5196379,20.1743793 76.5167069,39.5221379" id="Fill-1" fill="#F0B553"></path>
                <path d="M75.324069,44.2581034 C75.327,24.9074138 60.199931,9.72465517 41.6582069,9.69235263 C22.9787241,9.65724138 7.73734483,24.7960345 7.77537699,43.4374138 C7.79010345,52.7024138 11.1285517,60.6836207 17.6061379,67.2843103 C25.4788966,75.3065517 35.3682069,78.3489655 46.2071724,77.1003448 C53.054069,76.3118966 59.344069,73.1551724 64.5056207,68.2222414 C71.5635517,61.4691379 75.159931,53.2358621 75.324069,44.2581034 M38.1292414,4.525 C60.3904483,2.51137931 77.539931,18.89 80.1309655,37.9505172 C81.6375172,49.0151724 78.8442414,59.0451724 71.8771724,67.8206897 C71.0447586,68.87 71.0154483,69.4005172 72.009069,70.3325862 C74.5356207,72.7008621 76.944931,75.1981034 79.3835517,77.6601724 C80.7464828,79.0348276 80.852,80.6468966 79.6942414,81.7284483 C78.5775172,82.7718966 77.0797586,82.64 75.754931,81.3268966 C73.204931,78.8003448 70.6461379,76.2825862 68.1547586,73.6974138 C67.4571724,72.9734483 67.0292414,72.9089655 66.2173448,73.5655172 C57.4887241,80.5794828 47.5144138,83.487069 36.4204483,82.0860345 C29.2980345,81.1862069 22.8351034,78.4486207 17.2544138,73.8615517 C16.1757931,72.9705172 15.5807931,72.9587931 14.6076897,73.9993103 C12.2892414,76.4906897 9.83010345,78.8472414 7.41493103,81.2477586 C6.00803448,82.642931 4.46924138,82.7924138 3.34372414,81.6786207 C2.22113793,80.5648276 2.36182759,79.0055172 3.7482069,77.6074138 C6.23372414,75.1043103 8.70458621,72.5865517 11.2516552,70.145 C12.0342414,69.3917241 12.1016552,68.9491379 11.3894138,68.0610345 C4.63044828,59.602069 1.62906897,49.9648276 2.86303448,39.1756897 C4.14975862,27.9058621 9.44613793,18.8167241 18.547,12.0636207 C25.349931,7.01637931 33.0937241,4.57189655 38.1292414,4.525" id="Fill-3" fill="#1A202E"></path>
                <g id="Group-7" transform="translate(67.413793, 0.360293)">
                    <mask id="mask-2" fill="white">
                        <use xlink:href="#path-1"></use>
                    </mask>
                    <g id="Clip-6"></g>
                    <path d="M3.38651724,1.57836207 C9.86703448,1.83336207 15.4535862,7.4375 15.6675517,13.900431 C15.7291034,15.7938793 14.8820345,16.9750862 13.3578966,17.1187069 C11.7604828,17.2711207 10.7228966,16.2159483 10.5118621,14.2287069 C10.0516897,9.85853448 7.361,7.18543103 2.96737931,6.72818966 C1.06513793,6.52887931 0.0597931034,5.5762931 0.118413793,4.02577586 C0.179965517,2.4225 1.411,1.50215517 3.38651724,1.57836207" id="Fill-5" fill="#1A202E" mask="url(#mask-2)"></path>
                </g>
                <path d="M0.00175862069,14.3410345 C0.139517241,7.8487931 5.8902069,2.08637931 12.3941724,1.93396552 C14.2671034,1.88706897 15.4483103,2.77517241 15.5538276,4.30810345 C15.6593448,5.86155172 14.6305517,6.89327586 12.781069,7.08672414 C8.25262069,7.56155172 5.56486207,10.2434483 5.15744828,14.6927586 C4.98744828,16.5305172 3.94986207,17.5768966 2.39641379,17.4831034 C0.860551724,17.3863793 -0.0392758621,16.2081034 0.00175862069,14.3410345" id="Fill-8" fill="#1A202E"></path>
                <path d="M38.9179828,35.4852241 C38.9179828,37.8974655 38.9736724,40.3126379 38.8945345,42.7248793 C38.8535,44.0086724 39.3078103,44.9436724 40.1988448,45.8259138 C45.0819483,50.6591897 49.9240172,55.5276379 54.7866034,60.381431 C56.0674655,61.6622931 57.9990172,61.8645345 59.0160862,60.8503966 C60.1328103,59.7336724 59.9716034,58.2183276 58.5500517,56.7967759 C54.1359138,52.3738448 49.7393621,47.9333276 45.2695345,43.5631552 C44.4371207,42.7512586 44.126431,41.9569483 44.1440172,40.8226379 C44.2026379,36.6136724 44.1850517,32.4076379 44.1586724,28.1986724 C44.1498793,26.4253966 43.0448793,25.2529828 41.5178103,25.2675021 C39.9907414,25.2852241 38.9443621,26.4517759 38.9238448,28.245569 C38.8974655,30.6578103 38.9179828,33.0729828 38.9179828,35.4852241 M75.3243621,44.2578103 C75.1602241,53.235569 71.5638448,61.4688448 64.5029828,68.2219483 C59.3443621,73.1578103 53.0543621,76.3116034 46.2074655,77.1000517 C35.3685,78.3516034 25.4791897,75.3062586 17.606431,67.2840172 C11.1288448,60.6862586 7.79039655,52.7021207 7.77567009,43.4371207 C7.73763793,24.7986724 22.9790172,9.65694828 41.6585,9.69205954 C60.2002241,9.72436207 75.3272931,24.9100517 75.3243621,44.2578103" id="Fill-10" fill="#F0B553"></path>
                <path d="M38.9179828,35.4852241 C38.9179828,33.0729828 38.8974655,30.6578103 38.9238448,28.245569 C38.9443621,26.4517759 39.9907414,25.2852241 41.5178103,25.2675021 C43.0448793,25.2529828 44.1498793,26.4253966 44.1586724,28.1986724 C44.1850517,32.4076379 44.2026379,36.6136724 44.1440172,40.8226379 C44.126431,41.9569483 44.4371207,42.7512586 45.2695345,43.5631552 C49.7393621,47.9333276 54.1359138,52.3738448 58.5500517,56.7967759 C59.9716034,58.2183276 60.1328103,59.7336724 59.0160862,60.8503966 C57.9990172,61.8645345 56.0674655,61.6622931 54.7866034,60.381431 C49.9240172,55.5276379 45.0819483,50.6591897 40.1988448,45.8259138 C39.3078103,44.9436724 38.8535,44.0086724 38.8945345,42.7248793 C38.9736724,40.3126379 38.9179828,37.8974655 38.9179828,35.4852241" id="Fill-12" fill="#000000"></path>
                <g id="Group-17" transform="translate(49.827586, 12.084431)">
                    <line x1="5.13106897" y1="0.343224138" x2="3.19951724" y2="3.99236207" id="Fill-14" fill="#1A202E"></line>
                    <line x1="5.13106897" y1="0.343224138" x2="3.19951724" y2="3.99236207" id="Stroke-16" stroke="#1A202E"></line>
                </g>
                <g id="Group-21" transform="translate(38.103448, 6.222362)">
                    <line x1="2.8727069" y1="2.2352069" x2="2.75253448" y2="7.73382759" id="Fill-18" fill="#1A202E"></line>
                    <line x1="2.8727069" y1="2.2352069" x2="2.75253448" y2="7.73382759" id="Stroke-20" stroke="#1A202E"></line>
                </g>
                <g id="Group-25" transform="translate(61.551724, 17.946500)">
                    <line x1="3.29184483" y1="1.16889655" x2="0.466327586" y2="3.96510345" id="Fill-22" fill="#1A202E"></line>
                    <line x1="3.29184483" y1="1.16889655" x2="0.466327586" y2="3.96510345" id="Stroke-24" stroke="#1A202E"></line>
                </g>
                <g id="Group-29" transform="translate(70.344828, 41.394776)">
                    <line x1="5.50155172" y1="2.53153448" x2="1.90224138" y2="2.67515517" id="Fill-26" fill="#1A202E"></line>
                    <line x1="5.50155172" y1="2.53153448" x2="1.90224138" y2="2.67515517" id="Stroke-28" stroke="#1A202E"></line>
                </g>
                <g id="Group-33" transform="translate(38.103448, 70.705121)">
                    <line x1="3.36922414" y1="7.72796552" x2="3.27836207" y2="2.84193103" id="Fill-30" fill="#1A202E"></line>
                    <line x1="3.36922414" y1="7.72796552" x2="3.27836207" y2="2.84193103" id="Stroke-32" stroke="#1A202E"></line>
                </g>
                <g id="Group-37" transform="translate(2.931034, 38.463741)">
                    <line x1="7.91467241" y1="4.17731034" x2="2.05260345" y2="4.10110345" id="Fill-34" fill="#1A202E"></line>
                    <line x1="7.91467241" y1="4.17731034" x2="2.05260345" y2="4.10110345" id="Stroke-36" stroke="#1A202E"></line>
                </g>
                <g id="Group-41" transform="translate(67.413793, 26.739603)">
                    <line x1="5.51327586" y1="2.822" x2="1.81137931" y2="4.6157931" id="Fill-38" fill="#1A202E"></line>
                    <line x1="5.51327586" y1="2.822" x2="1.81137931" y2="4.6157931" id="Stroke-40" stroke="#1A202E"></line>
                </g>
                <g id="Group-45" transform="translate(8.793103, 29.670638)">
                    <line x1="1.44294828" y1="0.627827586" x2="5.19760345" y2="2.34541379" id="Fill-42" fill="#1A202E"></line>
                    <line x1="1.44294828" y1="0.627827586" x2="5.19760345" y2="2.34541379" id="Stroke-44" stroke="#1A202E"></line>
                </g>
                <g id="Group-49" transform="translate(14.655172, 17.946500)">
                    <line x1="1.68475862" y1="2.09627586" x2="4.63924138" y2="4.75765517" id="Fill-46" fill="#1A202E"></line>
                    <line x1="1.68475862" y1="2.09627586" x2="4.63924138" y2="4.75765517" id="Stroke-48" stroke="#1A202E"></line>
                </g>
                <g id="Group-53" transform="translate(26.379310, 12.084431)">
                    <line x1="0.506775862" y1="0.466327586" x2="2.51160345" y2="4.05684483" id="Fill-50" fill="#1A202E"></line>
                    <line x1="0.506775862" y1="0.466327586" x2="2.51160345" y2="4.05684483" id="Stroke-52" stroke="#1A202E"></line>
                </g>
                <g id="Group-57" transform="translate(26.379310, 70.705121)">
                    <line x1="1.38139655" y1="4.13422414" x2="3.09605172" y2="0.379568966" id="Fill-54" fill="#1A202E"></line>
                    <line x1="1.38139655" y1="4.13422414" x2="3.09605172" y2="0.379568966" id="Stroke-56" stroke="#1A202E"></line>
                </g>
                <g id="Group-61" transform="translate(14.655172, 64.843052)">
                    <line x1="2.84837931" y1="3.89534483" x2="5.50682759" y2="0.940862069" id="Fill-58" fill="#1A202E"></line>
                    <line x1="2.84837931" y1="3.89534483" x2="5.50682759" y2="0.940862069" id="Stroke-60" stroke="#1A202E"></line>
                </g>
                <g id="Group-65" transform="translate(8.793103, 53.118914)">
                    <line x1="1.21403448" y1="5.0745" x2="4.80455172" y2="3.06967241" id="Fill-62" fill="#1A202E"></line>
                    <line x1="1.21403448" y1="5.0745" x2="4.80455172" y2="3.06967241" id="Stroke-64" stroke="#1A202E"></line>
                </g>
                <g id="Group-69" transform="translate(67.413793, 53.118914)">
                    <line x1="5.42446552" y1="4.61081034" x2="1.66687931" y2="2.90201724" id="Fill-66" fill="#1A202E"></line>
                    <line x1="5.42446552" y1="4.61081034" x2="1.66687931" y2="2.90201724" id="Stroke-68" stroke="#1A202E"></line>
                </g>
                <g id="Group-73" transform="translate(61.551724, 64.843052)">
                    <line x1="5.20258621" y1="3.15408621" x2="2.24224138" y2="0.5015" id="Fill-70" fill="#1A202E"></line>
                    <line x1="5.20258621" y1="3.15408621" x2="2.24224138" y2="0.5015" id="Stroke-72" stroke="#1A202E"></line>
                </g>
                <g id="Group-77" transform="translate(52.758621, 70.705121)">
                    <line x1="3.46506897" y1="4.80689655" x2="1.45144828" y2="1.21931034" id="Fill-74" fill="#1A202E"></line>
                    <line x1="3.46506897" y1="4.80689655" x2="1.45144828" y2="1.21931034" id="Stroke-76" stroke="#1A202E"></line>
                </g>
            </g>
        </g>
    </g>
</svg>