<?xml version="1.0" encoding="UTF-8"?>
<svg width="120px" height="106px" viewBox="0 0 120 106" version="1.1" xmlns="http://www.w3.org/2000/svg" xmlns:xlink="http://www.w3.org/1999/xlink">
    <title>Group 2</title>
    <defs>
        <polygon id="path-1" points="0.372947069 0.237820253 62.0439355 0.237820253 62.0439355 63.9130435 0.372947069 63.9130435"></polygon>
        <polygon id="path-3" points="4.95720424e-05 2.55347826 68.4143478 2.55347826 68.4143478 71.7962285 4.95720424e-05 71.7962285"></polygon>
    </defs>
    <g id="Mockup" stroke="none" stroke-width="1" fill="none" fill-rule="evenodd">
        <g id="iPad-Screen-Portrait" transform="translate(-455.000000, -432.000000)">
            <g id="Group-2" transform="translate(455.000000, 432.000000)">
                <ellipse id="Oval" fill-opacity="0.284582605" fill="#000000" cx="60" cy="92.5" rx="60" ry="13.5"></ellipse>
                <g id="Group-31" transform="translate(26.000000, 0.000000)">
                    <path d="M8.87143478,47.2691739 C7.95534783,47.4000435 7.231,47.8656957 7.23708696,48.8243913 C7.24317391,49.9443913 7.9583913,50.5652609 9.09969565,50.4617826 C10.0766522,50.3765652 10.584913,49.7435217 10.5453478,48.7726522 C10.5027391,47.740913 9.75708696,47.4061304 8.87143478,47.2691739 M15.4636087,63.6339565 C13.9753478,60.5265652 12.5753478,57.5043913 11.0718696,54.537 C10.7218696,53.8491739 9.86665217,53.7365652 9.15143478,54.0348261 C8.25665217,54.403087 7.96143478,55.1943913 8.18056522,56.0922174 C8.95969565,59.2665652 10.4175217,62.1243913 12.3227391,64.757 C12.8766522,65.520913 13.6831739,65.7522174 14.5383913,65.2987391 C15.217087,64.9396087 15.554913,64.3187391 15.4636087,63.6339565 M60.2483913,68.4852609 C58.407087,70.497 56.5627391,72.5087391 54.7244783,74.5265652 C53.3427391,73.3974348 50.7223043,73.4735217 51.4923043,70.3661304 C52.5575217,66.0565652 50.9140435,62.6448261 47.0275217,60.4535217 C45.9531739,59.8478696 45.2592609,59.3426522 45.9623043,58.0035217 C48.5218696,53.1156957 47.3805652,48.6539565 44.6018696,44.2043913 C42.9188261,41.510913 41.1079565,38.7778696 40.767087,35.4483043 C40.6179565,33.9965652 41.5583913,32.0183043 39.6683913,31.3091739 C37.9062174,30.6517826 36.631,32.3439565 35.294913,33.2326522 C34.4305652,33.8078696 33.6696957,34.6935217 33.1553478,35.6035217 C32.1236087,37.4356957 31.1131739,37.5543913 29.2140435,36.5652609 C26.417087,35.1135217 25.1936087,36.133087 25.7505652,39.3287391 C26.2223043,42.0465652 25.8357826,44.5239565 24.6488261,46.9526522 C23.1636087,49.987 22.8014348,53.213087 24.1040435,56.2900435 C25.004913,58.4143913 24.947087,59.1661304 22.5488261,60.0213478 C18.2362174,61.5613478 16.0844783,65.2561304 16.9731739,69.6052609 C17.5575217,72.4478696 16.4588261,73.5252609 14.0940435,74.1552609 C13.2114348,73.4004783 12.3257826,72.6456957 11.4431739,71.890913 C12.1036087,70.630913 11.5923043,69.593087 10.801,68.6283043 C3.16186957,59.3243913 2.24882609,48.7148261 4.93926087,37.5056957 C6.02882609,32.9617826 7.45621739,28.4726522 11.1144783,24.6135217 C11.4644783,26.9174348 11.9788261,28.6126522 12.9192609,30.170913 C16.5592609,36.2091739 18.5679565,36.4800435 23.3766522,31.5039565 C24.1223043,30.7339565 24.8253478,29.9152609 25.4918696,29.0752609 C30.2944783,23.0461304 32.3183913,16.1587391 31.387087,8.31873913 C38.1375217,11.3926522 42.7605652,17.443087 44.4344783,24.7596087 C44.7723043,26.2448261 44.3431739,28.5456957 46.5344783,28.8500435 C48.8596957,29.1726522 48.6983913,26.7713478 49.4379565,25.4139565 C49.721,24.8904783 49.8883913,24.3061304 50.1562174,23.7765652 C53.1692609,17.8478696 58.4223043,14.7678696 64.2231739,15.5652609 C64.0375217,16.2591739 63.9218696,16.9713478 63.6662174,17.6287391 C60.1114348,26.7835217 59.9927391,35.847 63.2066522,45.2513478 C65.4101304,51.6974348 64.1379565,58.240913 60.8205652,64.267 C60.087087,65.603087 58.9853478,66.8813478 60.2483913,68.4852609" id="Fill-1" fill="#F0B553"></path>
                    <g id="Group-5" transform="translate(3.043478, 30.924783)">
                        <mask id="mask-2" fill="white">
                            <use xlink:href="#path-1"></use>
                        </mask>
                        <g id="Clip-4"></g>
                        <path d="M27.3879565,34.0315652 C24.6153478,31.9041739 22.2444783,31.2285217 19.7123043,32.9389565 C17.4723043,34.4515652 16.9823043,36.6033043 17.8983913,39.4641739 C21.0331739,37.6715652 23.9883913,35.9793913 27.3879565,34.0315652 M44.0175217,55.5824348 C43.7253478,51.2789565 45.9896957,48.6311304 49.2827391,46.2602609 C47.3744783,45.758087 46.361,43.7463478 44.1696957,45.2254783 C41.3118696,47.152 38.234913,48.755913 35.0453478,50.6185217 C37.9579565,52.4841739 40.614913,54.228087 44.0175217,55.5824348 M9.47404348,49.5684725 C6.54926087,49.5563478 4.16013043,51.8024348 4.05665217,54.6602609 C3.95013043,57.6367826 6.43056522,60.2511304 9.37969565,60.266446 C12.3531739,60.2846087 14.8214348,57.7524348 14.7544783,54.7546087 C14.6905652,51.8389565 12.3927391,49.5806957 9.47404348,49.5684725 M53.0779565,49.5289565 C50.1683913,49.462 47.8188261,51.625913 47.6727391,54.508087 C47.5083913,57.6489565 50.0101304,60.2998261 53.1053478,60.2693913 C55.8901304,60.2389565 58.2853478,57.8802609 58.4040435,55.0498261 C58.5257826,52.1311304 56.0818696,49.5928696 53.0779565,49.5289565 M42.2462174,32.8902609 C40.4262174,31.4476522 38.8101304,31.7246087 37.4679565,32.4763478 C29.4088261,37.002 21.4075217,41.6372174 12.8766522,46.5250435 C16.8544783,48.5641739 18.2575217,51.702 18.647087,55.9233043 C27.0075217,51.0385217 35.0331739,46.388087 43.0101304,41.6554783 C44.2823043,40.9006957 44.961,39.5828696 45.0614348,38.0489565 C45.1040435,37.3489565 45.2957826,36.4724348 44.5531739,36.162 C44.1483913,35.9946087 43.4331739,36.3750435 42.9431739,36.6550435 C39.2118696,38.7824348 35.5079565,40.9615652 31.7736087,43.085913 C30.5562174,43.7767826 29.0740435,44.8633043 28.0940435,43.0037391 C27.251,41.3998261 28.8123043,40.718087 29.9140435,40.0698261 C33.9101304,37.7141739 37.9305652,35.398087 42.2462174,32.8902609 M26.6818696,11.5250435 C26.2740435,14.0176522 25.5588261,16.0172174 24.7340435,18.0015652 C23.1179565,21.9033043 24.2014348,25.8476522 27.397087,28.2063478 C30.617087,30.5893913 34.9996957,30.4402609 37.9214348,27.8533043 C40.7914348,25.3089565 41.6192609,20.9933043 39.6775217,17.402 C37.6505652,13.6524348 35.2796957,10.0854783 33.9831739,5.86721739 C32.367087,7.02678261 31.7279565,8.55156522 31.3231739,10.1524348 C30.3827391,13.8654783 30.051,14.0115652 26.6818696,11.5250435 M11.0505652,43.232 C13.4153478,42.602 14.5140435,41.5246087 13.9296957,38.6789565 C13.041,34.3298261 15.1927391,30.6350435 19.5053478,29.0950435 C21.9036087,28.2398261 21.9614348,27.4911304 21.0605652,25.3667826 C19.7579565,22.2867826 20.1201304,19.0606957 21.6053478,16.0263478 C22.7923043,13.5976522 23.1788261,11.1233043 22.707087,8.40243478 C22.1501304,5.20982609 23.3736087,4.19026087 26.1705652,5.642 C28.0696957,6.62808696 29.0801304,6.5093913 30.1118696,4.67721739 C30.6262174,3.76721739 31.387087,2.88156522 32.2514348,2.3093913 C33.5875217,1.42069565 34.8627391,-0.271478261 36.624913,0.385913043 C38.514913,1.092 37.5744783,3.07026087 37.7236087,4.52504348 C38.0644783,7.85156522 39.8753478,10.5846087 41.5583913,13.278087 C44.337087,17.7276522 45.4783913,22.1893913 42.9188261,27.0772174 C42.2157826,28.4163478 42.9096957,28.9246087 43.9840435,29.5302609 C47.8705652,31.7215652 49.5140435,35.1333043 48.4488261,39.4398261 C47.6788261,42.5502609 50.2992609,42.4741739 51.681,43.6002609 C53.7262174,44.8085217 55.8444783,45.9163478 57.8136087,47.2463478 C61.8766522,49.9976522 63.2096957,55.272 60.9483913,59.1737391 C58.4405652,63.5046087 53.4705652,65.1998261 48.9296957,62.8563478 C43.8623043,60.235913 38.9044783,57.372 34.0744783,54.3346087 C31.9136087,52.9772174 30.3553478,53.108087 28.2827391,54.4106957 C23.954913,57.1285217 19.474913,59.612 15.0162174,62.1167826 C9.55926087,65.1754783 4.15708696,63.9276522 1.44230435,59.0702609 C-1.00769565,54.6906957 0.857956522,49.4954783 5.95578261,46.4185217 C7.67230435,45.3867826 9.35534783,44.2972174 11.0505652,43.232" id="Fill-3" fill="#090908" mask="url(#mask-2)"></path>
                    </g>
                    <g id="Group-8" transform="translate(0.000000, 0.490000)">
                        <mask id="mask-4" fill="white">
                            <use xlink:href="#path-3"></use>
                        </mask>
                        <g id="Clip-7"></g>
                        <path d="M60.2496087,67.9958696 C58.9835217,66.3919565 60.0852609,65.1136957 60.8217826,63.7776087 C64.1361304,57.7515217 65.4083043,51.2080435 63.2078696,44.7619565 C59.9939565,35.3545652 60.1126522,26.291087 63.6674348,17.1393478 C63.923087,16.4819565 64.0387391,15.7697826 64.2243913,15.0758696 C58.4235217,14.2784783 53.1674348,17.3584783 50.1574348,23.2871739 C49.8865652,23.8167391 49.7222174,24.401087 49.4391739,24.9245652 C48.6996087,26.278913 48.8578696,28.6832609 46.5356957,28.3606522 C44.3413478,28.0563043 44.7735217,25.7554348 44.4326522,24.2671739 C42.7587391,16.9536957 38.1356957,10.9032609 31.3883043,7.82630435 C32.3165652,15.6693478 30.2956957,22.5536957 25.493087,28.5858696 C24.8235217,29.4258696 24.1235217,30.2445652 23.3778696,31.0145652 C18.5661304,35.9876087 16.5604783,35.7197826 12.9174348,29.6815217 C11.9800435,28.1232609 11.4626522,26.4280435 11.1126522,24.1241304 C7.45743478,27.9832609 6.03004348,32.4723913 4.94047826,37.0132609 C2.247,48.2223913 3.16308696,58.835 10.7991739,68.138913 C11.5904783,69.1036957 12.1048261,70.1415217 11.4413478,71.4015217 C10.0291739,72.2415217 9.08265217,71.6419565 8.0843913,70.531087 C-4.35126087,56.7106522 -1.13430435,31.7328261 8.91221739,20.9284783 C9.15569565,20.6667391 9.41134783,20.4080435 9.6943913,20.1919565 C10.8722174,19.2971739 11.7943913,17.5167391 13.5961304,18.3506522 C15.1787391,19.0871739 14.6583043,20.8280435 14.7739565,22.2067391 C14.8256957,22.7971739 14.7617826,23.4058696 14.840913,23.9932609 C15.1604783,26.4219565 15.7965652,29.3071739 17.9635217,30.0741304 C20.1122174,30.8319565 21.2443913,27.9376087 22.5165652,26.3823913 C27.3283043,20.4963043 29.1239565,13.8463043 27.2856957,6.33195652 C27.0148261,5.22413043 26.5917826,3.955 27.7300435,2.99934783 C28.9383043,1.98891304 30.0126522,2.95065217 31.0413478,3.38282609 C37.940913,6.265 42.910913,11.1923913 46.1704783,17.8880435 C46.5752609,18.7158696 46.9648261,19.5528261 47.467,20.615 C51.4296087,14.2693478 56.8226522,10.8971739 64.190913,11.0828261 C68.5035217,11.1893478 69.0604783,11.9441304 67.8704783,15.9736957 C66.723087,19.851087 65.3261304,23.688913 64.5987391,27.6484783 C63.6978696,32.5363043 64.7965652,37.3115217 66.290913,42.0532609 C68.893087,50.295 68.0713478,58.2871739 63.783087,65.8654348 C62.9887391,67.2654348 62.2552609,68.6563043 60.2496087,67.9958696" id="Fill-6" fill="#090908" mask="url(#mask-4)"></path>
                    </g>
                    <path d="M19.586,7.69786957 C19.0473043,10.4765652 15.7481739,12.1717826 18.4690435,14.8165652 C19.2907826,15.617 20.6481739,15.5591739 21.329913,14.5852609 C23.0373043,12.1474348 21.6586087,10.2148261 19.586,7.69786957 M25.7338261,12.5796087 C25.7886087,15.2274348 24.6594783,17.2148261 22.2642609,18.3287391 C19.872087,19.4365652 17.5833913,19.0896087 15.659913,17.2574348 C13.7516522,15.4343913 13.2951304,13.1487391 14.1990435,10.710913 C14.9751304,8.62613043 16.3994783,6.84569565 16.5973043,4.45047826 C16.7068696,3.11743478 17.9881739,2.81613043 19.4064348,3.37004348 C22.8729565,4.7243913 25.682087,8.70526087 25.7338261,12.5796087" id="Fill-9" fill="#100808"></path>
                    <path d="M15.4623913,63.6351739 C15.5536957,64.3199565 15.218913,64.9408261 14.5402174,65.2999565 C13.685,65.7503913 12.8754348,65.5221304 12.3245652,64.7582174 C10.4193478,62.1256087 8.95847826,59.2647391 8.1823913,56.0934348 C7.96326087,55.1956087 8.25847826,54.4012609 9.15326087,54.033 C9.86847826,53.7377826 10.7236957,53.8473478 11.0736957,54.5351739 C12.5771739,57.5056087 13.9741304,60.5277826 15.4623913,63.6351739" id="Fill-11" fill="#100808"></path>
                    <path d="M8.87295652,47.2676522 C9.75556522,47.4076522 10.5012174,47.7393913 10.5438261,48.7711304 C10.5833913,49.742 10.0751304,50.3750435 9.10121739,50.4633043 C7.95991304,50.5637391 7.24165217,49.9428696 7.23556522,48.825913 C7.22947826,47.8672174 7.95686957,47.4015652 8.87295652,47.2676522" id="Fill-13" fill="#14120E"></path>
                    <path d="M29.7256522,42.4513478 C33.0947826,44.9348261 33.4265217,44.7917826 34.3669565,41.0756957 C34.7717391,39.4778696 35.4108696,37.953087 37.023913,36.7904783 C38.3234783,41.0117826 40.6943478,44.5787391 42.7213043,48.3283043 C44.6630435,51.9196087 43.8352174,56.2352609 40.9652174,58.7765652 C38.0434783,61.3635217 33.6608696,61.5126522 30.4408696,59.1326522 C27.2452174,56.7739565 26.1617391,52.8265652 27.7778261,48.9278696 C28.6026087,46.9404783 29.3178261,44.940913 29.7256522,42.4513478" id="Fill-15" fill="#FC5959"></path>
                    <path d="M28.4476957,76.5151739 C28.2376957,75.5960435 27.635087,74.893 26.7555217,74.9416957 C25.732913,75.0025652 24.9355217,75.7056087 25.1455217,76.8651739 C25.3037826,77.7386522 25.9398696,78.3838696 26.929,78.2408261 C27.8572609,78.106913 28.3472609,77.4525652 28.4476957,76.5151739 M45.2903043,63.8177826 C40.9746522,66.3225652 36.9542174,68.6386522 32.955087,70.9943043 C31.8563913,71.6425652 30.295087,72.3273478 31.1381304,73.9282174 C32.1181304,75.7877826 33.6003043,74.7012609 34.8176957,74.0103913 C38.5520435,71.8860435 42.2559565,69.706913 45.9872609,67.5795217 C46.4772609,67.2995217 47.1924783,66.919087 47.5972609,67.0864783 C48.3398696,67.396913 48.1481304,68.2734348 48.1024783,68.9734348 C48.005087,70.5073478 47.3263913,71.8251739 46.0542174,72.5799565 C38.0772609,77.3125652 30.0516087,81.9660435 21.6911739,86.8508261 C21.3016087,82.6264783 19.8955217,79.4886522 15.9207391,77.4525652 C24.4516087,72.5616957 32.4498696,67.9264783 40.5120435,63.4008261 C41.8542174,62.649087 43.4703043,62.3721304 45.2903043,63.8177826" id="Fill-17" fill="#C68C65"></path>
                    <path d="M56.1226522,80.4531304 C59.1235217,80.5170435 61.5704783,83.0553043 61.4487391,85.974 C61.327,88.8044348 58.9317826,91.1631304 56.1500435,91.1935652 C53.0548261,91.2270435 50.553087,88.5731304 50.7143913,85.4322609 C50.8635217,82.550087 53.213087,80.3892174 56.1226522,80.4531304" id="Fill-19" fill="#C68C65"></path>
                    <path d="M12.5184348,80.4932551 C15.434087,80.5054783 17.731913,82.7637391 17.7988696,85.6793913 C17.8627826,88.6772174 15.3975652,91.2093913 12.4210435,91.1912286 C9.47495652,91.175913 6.99452174,88.5615652 7.10104348,85.5850435 C7.20147826,82.7272174 9.59365217,80.4811304 12.5184348,80.4932551" id="Fill-21" fill="#C68C65"></path>
                    <path d="M47.0622174,86.506 C43.6565652,85.1516522 40.9996087,83.4107826 38.087,81.5451304 C41.2796087,79.6794783 44.3535217,78.0755652 47.2113478,76.1490435 C49.4056957,74.669913 50.4191739,76.6816522 52.3274348,77.1838261 C49.0343913,79.5577391 46.767,82.2025217 47.0622174,86.506" id="Fill-23" fill="#C68C65"></path>
                    <path d="M30.4314348,64.9563478 C27.0318696,66.9041739 24.0766522,68.5963478 20.9418696,70.3889565 C20.0257826,67.528087 20.5157826,65.3763478 22.7557826,63.8637391 C25.2879565,62.1533043 27.6588261,62.8289565 30.4314348,64.9563478" id="Fill-25" fill="#C68C65"></path>
                    <path d="M19.586,7.69786957 C21.6586087,10.2148261 23.0373043,12.1474348 21.329913,14.5852609 C20.6481739,15.5591739 19.2907826,15.617 18.4690435,14.8165652 C15.7481739,12.1717826 19.0473043,10.4765652 19.586,7.69786957" id="Fill-27" fill="#FC5959"></path>
                    <path d="M28.4476957,76.5151739 C28.3472609,77.4525652 27.8572609,78.106913 26.929,78.2408261 C25.9398696,78.3838696 25.3037826,77.7386522 25.1455217,76.8651739 C24.9355217,75.7056087 25.732913,75.0025652 26.7555217,74.9416957 C27.635087,74.893 28.2376957,75.5960435 28.4476957,76.5151739" id="Fill-29" fill="#14120E"></path>
                </g>
            </g>
        </g>
    </g>
</svg>