<?xml version="1.0" encoding="UTF-8"?>
<svg width="101px" height="102px" viewBox="0 0 101 102" version="1.1" xmlns="http://www.w3.org/2000/svg" xmlns:xlink="http://www.w3.org/1999/xlink">
    <title>Group 9</title>
    <g id="Mockup" stroke="none" stroke-width="1" fill="none" fill-rule="evenodd">
        <g id="iPad-Screen-Portrait" transform="translate(-841.000000, -271.000000)">
            <g id="Group-9" transform="translate(841.000000, 271.000000)">
                <ellipse id="Oval" fill-opacity="0.284582605" fill="#000000" cx="50.5" cy="88.5" rx="50.5" ry="13.5"></ellipse>
                <g id="language" transform="translate(6.000000, 0.000000)" fill-rule="nonzero">
                    <path d="M68.34375,11.41875 C68.34375,9.45 68.34375,7.48125 68.34375,5.5125 C68.34375,3.065625 69.328125,2.19375 71.60625,3.515625 C76.359375,6.328125 81.140625,8.915625 85.865625,11.728125 C88.25625,13.1625 88.171875,14.203125 85.696875,15.721875 C83.221875,17.240625 80.296875,19.0125 77.596875,20.64375 C76.4068676,21.3354226 75.1765446,21.95528 73.9125,22.5 C70.734375,23.625 71.60625,26.296875 71.94375,28.321875 C72.28125,30.346875 74.30625,28.940625 75.571875,29.19375 C76.6680167,29.2504727 77.7663583,29.2504727 78.8625,29.19375 C80.49375,29.19375 80.83125,28.74375 80.04375,27.309375 C79.25625,25.875 78.496875,24.80625 79.790625,23.4 C81.253125,23.090625 81.928125,23.90625 82.603125,25.0875 C96.665625,49.865625 80.296875,82.6875 52.115625,86.9625 C35.3637887,89.9736135 18.4334313,82.6856413 9.10644013,68.4484344 C-0.22055109,54.2112276 -0.139817176,35.779054 9.31153325,21.6240973 C18.7628837,7.46914064 35.7564336,0.329756926 52.48125,3.4875 C54.05625,3.76875 55.29375,4.1625 55.125,6.103125 C53.6625,7.396875 52.003125,6.778125 50.4,6.58125 C47.8022635,6.04621126 45.1227365,6.04621126 42.525,6.58125 C44.7469342,8.45826433 46.1078623,11.1598081 46.29375,14.0625 C46.29375,15.440625 46.715625,16.0875 48.375,16.3125 C54,17.04375 55.6875,19.603125 55.18125,25.453125 C54.815625,29.86875 52.2,31.978125 46.96875,32.00625 L45,32.00625 C44.1681596,31.9197678 43.3360727,32.1676336 42.6871514,32.6952119 C42.0382302,33.2227902 41.6257477,33.9867693 41.540625,34.81875 C41.6321673,38.6051858 38.7853125,41.8201685 35.015625,42.1875 C34.3228916,42.2614734 33.8131265,42.8707049 33.8625,43.565625 C33.8625,44.4375 34.36875,44.634375 35.128125,44.6625 C41.11875,44.8875 44.04375,50.034375 43.7625,55.771875 C43.48125,61.509375 43.7625,61.171875 48.853125,62.71875 C51.3950962,63.3474378 53.2789578,65.489209 53.578125,68.090625 C53.8875,70.171875 54.759375,72.5625 51.975,73.715625 C50.9443722,73.1765351 50.3518985,72.0586602 50.484375,70.903125 C50.9625,67.10625 48.965625,65.5875 45.478125,65.025 C42.722402,64.6788557 40.6318038,62.3732246 40.55625,59.596875 C40.303125,57.403125 40.415625,55.18125 40.21875,52.9875 C40.2491718,51.5208366 39.6522958,50.1108859 38.5780688,49.1118548 C37.5038417,48.1128237 36.0543559,47.6196578 34.59375,47.75625 C31.33125,47.8125 28.125,47.8125 24.721875,47.8125 C23.090625,47.8125 21.7125,48.403125 21.4875,50.034375 C21.178125,52.565625 19.6875,53.4375 17.521875,53.71875 C16.2367267,53.8378744 15.0552768,54.4744983 14.2490094,55.4823325 C13.442742,56.4901667 13.0809882,57.7825475 13.246875,59.0625 C13.2146848,61.6293147 15.2377389,63.7522727 17.803125,63.84375 C22.5429379,63.9283799 26.3989555,67.6858411 26.60625,72.421875 C26.6349451,73.9415056 27.3060389,75.3778571 28.4531957,76.3749186 C29.6003526,77.3719802 31.1161915,77.8364207 32.625,77.653125 C35.26875,77.653125 37.9125,77.653125 40.55625,77.653125 C42.0006154,77.4293536 43.4738038,77.8037823 44.6360386,78.6900527 C45.7982734,79.5763231 46.5492002,80.8979092 46.715625,82.35 C46.996875,84.15 47.896875,84.459375 49.528125,84.0375 C50.371875,83.8125 51.24375,83.7 52.115625,83.53125 C60.3338922,82.3120664 67.8974693,78.3468884 73.575,72.28125 C75.4875,70.3125 75.178125,67.134375 73.06875,66.65625 C69.7931886,66.1524047 67.3244246,63.4132524 67.1625,60.103125 C67.1476398,59.0889796 66.6989499,58.129808 65.9300105,57.4684126 C65.1610711,56.8070172 64.1455905,56.5067973 63.140625,56.64375 C62.15625,56.64375 61.14375,56.64375 60.159375,56.64375 C58.3678092,56.7047751 56.6282986,56.0354667 55.3397016,54.7892926 C54.0511046,53.5431185 53.323961,51.8269796 53.325,50.034375 C52.875,44.803125 54.590625,41.934375 58.95,41.203125 C60.834375,40.89375 61.59375,40.1625 61.7625,38.390625 C61.8664597,34.9967726 63.9130014,31.9652643 67.021875,30.6 C68.0758582,30.2470063 68.7347667,29.1998125 68.596875,28.096875 C68.371875,22.5 68.371875,16.875 68.34375,11.41875 Z M24.35625,78.159375 C24.665625,78.3 24.975,78.75 25.25625,78.159375 C25.25625,78.159375 24.946875,77.79375 24.778125,77.625 C23.8425266,75.8808082 23.2595611,73.9694457 23.0625,72 C23.187081,70.4032105 22.3456651,68.8864476 20.925,68.146875 C17.7968788,67.3776371 14.7317901,66.3716111 11.75625,65.1375 C14.8209295,70.4486622 19.148862,74.9215032 24.35625,78.159375 L24.35625,78.159375 Z M16.03125,19.6875 C6.13125,29.53125 3.31875,48.628125 9.5625,60.271875 C9.871875,56.671875 10.378125,53.409375 13.640625,51.834375 C16.2498204,50.9259194 18.4130711,49.054456 19.6875,46.603125 C20.446875,44.8875 22.66875,44.60625 24.6375,44.49375 C26.5195419,44.798475 28.4469657,44.6539182 30.2625,44.071875 C30.2016084,42.686896 30.6959376,41.3348823 31.6358101,40.3158071 C32.5756826,39.2967318 33.8833758,38.6948673 35.26875,38.64375 C37.575,38.3625 37.884375,36.3375 38.30625,34.453125 C38.7168414,31.0113529 41.7366432,28.4845799 45.196875,28.6875 L47.8125,28.6875 C50.625,28.6875 51.80625,27.39375 51.8625,24.6375 C51.91875,21.88125 51.778125,19.6875 48.31875,19.6875 C46.9291062,19.8518065 45.5368094,19.4027277 44.5050681,18.457415 C43.4733267,17.5121022 42.9044625,16.1643057 42.946875,14.765625 C42.9238823,12.3805104 41.7027219,10.1669231 39.6974266,8.87537704 C37.6921314,7.58383097 35.1716788,7.38756581 32.990625,8.353125 C26.3138626,10.31324 20.3961496,14.2681958 16.03125,19.6875 Z M68.090625,33.553125 C66.2015729,34.5275073 65.001839,36.4622132 64.96875,38.5875 C65.0823922,40.076681 64.5541043,41.5434273 63.5170076,42.6181389 C62.4799109,43.6928505 61.0329084,44.2730372 59.540625,44.2125 C57.54375,44.2125 56.728125,45.534375 56.559375,47.475 C56.25,51.75 57.375,53.1 61.70625,53.1 C67.33125,53.1 68.9625,54.3375 70.425,59.990625 C70.6302268,61.5755296 71.8557496,62.8354127 73.434375,63.084375 C75.3976068,63.2832602 77.1403003,64.427559 78.103125,66.15 C84.0385121,56.8765265 85.7657033,45.5220332 82.85625,34.903125 C82.603125,33.975 82.85625,32.5125 81.140625,32.5125 L73.125,32.5125 C72.16875,32.5125 71.859375,32.934375 71.71875,33.890625 C71.4375,35.521875 72.815625,38.41875 69.91875,38.30625 C67.021875,38.19375 69.075,35.325 68.090625,33.58125 L68.090625,33.553125 Z M72.1125,7.678125 L72.1125,19.6875 L82.490625,13.725 L72.1125,7.678125 Z M30.571875,81.05625 C34.0877935,82.8111879 37.9058552,83.8802452 41.821875,84.20625 C42.4125,84.20625 43.25625,84.628125 43.509375,83.784375 C43.7247265,83.0237404 43.4710835,82.2076717 42.8625,81.703125 C42.2698113,81.201741 41.4962412,80.9676342 40.725,81.05625 L30.571875,81.05625 Z M9.7875,60.609375 C9.7875,60.609375 9.534375,60.75 9.5625,60.80625 C9.60195229,61.0167178 9.6583868,61.2236443 9.73125,61.425 C9.73125,61.425 9.95625,61.25625 9.95625,61.2 C9.91302628,60.9996341 9.8566543,60.8023322 9.7875,60.609375 L9.7875,60.609375 Z" id="Shape" fill="#090908"></path>
                    <path d="M51.975,73.74375 C54.7875,72.45 53.8875,70.059375 53.578125,68.11875 C53.2789578,65.517334 51.3950962,63.3755628 48.853125,62.746875 C43.70625,61.2 43.48125,61.228125 43.7625,55.8 C44.04375,50.371875 41.11875,44.915625 35.128125,44.690625 C34.36875,44.690625 33.8625,44.465625 33.8625,43.59375 C33.8131265,42.8988299 34.3228916,42.2895984 35.015625,42.215625 C38.6981452,41.8411662 41.502684,38.7452468 41.5125,35.04375 C41.5976227,34.2117693 42.0101052,33.4477902 42.6590264,32.9202119 C43.3079477,32.3926336 44.1400346,32.1447678 44.971875,32.23125 L46.96875,32.23125 C52.2,32.23125 54.815625,30.09375 55.18125,25.678125 C55.6875,19.828125 53.8875,17.240625 48.375,16.5375 C46.715625,16.3125 46.378125,15.665625 46.29375,14.2875 C46.1153644,11.3748324 44.7537524,8.66176957 42.525,6.778125 C45.1227365,6.24308626 47.8022635,6.24308626 50.4,6.778125 C52.003125,6.975 53.6625,7.59375 55.125,6.3 C56.6041557,6.35156917 58.0658975,6.63632407 59.45625,7.14375 C59.45625,9.365625 60.46875,10.096875 62.521875,8.971875 C64.5486022,9.64968135 66.4996446,10.535662 68.34375,11.615625 C68.34375,17.240625 68.34375,22.640625 68.484375,28.153125 C68.6222667,29.2560625 67.9633582,30.3032563 66.909375,30.65625 C63.8005014,32.0215143 61.7539597,35.0530226 61.65,38.446875 C61.65,40.303125 60.778125,41.034375 58.8375,41.259375 C54.45,41.990625 52.734375,44.859375 53.2125,50.090625 C53.211461,51.8832296 53.9386046,53.5993685 55.2272016,54.8455426 C56.5157986,56.0917167 58.2553092,56.7610251 60.046875,56.7 C61.03125,56.7 62.04375,56.7 63.028125,56.7 C64.0330905,56.5630473 65.0485711,56.8632672 65.8175105,57.5246626 C66.5864499,58.186058 67.0351398,59.1452296 67.05,60.159375 C67.2653604,63.4918784 69.8125645,66.2041791 73.125,66.628125 C75.234375,67.078125 75.54375,70.25625 73.63125,72.253125 C67.9537193,78.3187634 60.3901422,82.2839414 52.171875,83.503125 C52.171875,82.209375 52.171875,80.94375 52.171875,79.65 C54.196875,78.496875 54.984375,77.34375 52.171875,76.1625 L51.975,73.74375 Z" id="Path" fill="#C5F1FB"></path>
                    <path d="M79.790625,23.540625 C78.496875,24.946875 79.340625,26.353125 80.04375,27.45 C80.746875,28.546875 80.49375,29.41875 78.8625,29.334375 C77.7663583,29.3910977 76.6680167,29.3910977 75.571875,29.334375 C74.30625,29.08125 72.253125,30.403125 71.94375,28.4625 C71.634375,26.521875 70.734375,23.765625 73.9125,22.640625 C75.216918,22.0726352 76.484963,21.4245233 77.709375,20.7 L79.790625,23.540625 Z" id="Path" fill="#C5F1FB"></path>
                    <path d="M62.521875,8.775 C60.46875,9.9 59.540625,9.16875 59.45625,6.946875 C61.875,5.315625 62.746875,6.075 62.521875,8.775 Z" id="Path" fill="#14120E"></path>
                    <path d="M52.003125,79.734375 C52.003125,81.028125 52.003125,82.29375 52.003125,83.5875 C51.13125,83.75625 50.259375,83.86875 49.415625,84.09375 C47.86875,84.515625 46.96875,84.09375 46.603125,82.40625 C46.4367002,80.9541592 45.6857734,79.6325731 44.5235386,78.7463027 C43.3613038,77.8600323 41.8881154,77.4856036 40.44375,77.709375 C37.8,77.709375 35.15625,77.709375 32.5125,77.709375 C31.0036915,77.8926707 29.4878526,77.4282302 28.3406957,76.4311686 C27.1935389,75.4341071 26.5224451,73.9977556 26.49375,72.478125 C26.2864555,67.7420911 22.4304379,63.9846299 17.690625,63.9 C15.1474537,63.7491874 13.1817492,61.6093065 13.246875,59.0625 C13.0809882,57.7825475 13.442742,56.4901667 14.2490094,55.4823325 C15.0552768,54.4744983 16.2367267,53.8378744 17.521875,53.71875 C19.659375,53.353125 21.178125,52.565625 21.4875,50.090625 C21.7125,48.459375 23.090625,47.86875 24.721875,47.86875 C28.0125,47.86875 31.33125,47.86875 34.621875,47.86875 C36.0824809,47.7321578 37.5319667,48.2253237 38.6061938,49.2243548 C39.6804208,50.2233859 40.2772968,51.6333366 40.246875,53.1 C40.44375,55.29375 40.246875,57.515625 40.584375,59.709375 C40.6599288,62.4857246 42.750527,64.7913557 45.50625,65.1375 C48.99375,65.7 51.13125,67.21875 50.5125,71.015625 C50.3800235,72.1711602 50.9724972,73.2890351 52.003125,73.828125 C52.003125,74.671875 52.003125,75.4875 52.003125,76.33125 C49.725,77.371875 50.34375,78.553125 52.003125,79.734375 Z" id="Path" fill="#669999"></path>
                    <path d="M16.03125,19.6875 C20.3577355,14.2407453 26.2458135,10.2466657 32.90625,8.240625 C35.0873038,7.27506581 37.6077564,7.47133097 39.6130516,8.76287704 C41.6183469,10.0544231 42.8395073,12.2680104 42.8625,14.653125 C42.7819148,16.0876945 43.3469612,17.4831564 44.4029584,18.4575043 C45.4589555,19.4318521 46.8952839,19.8830196 48.31875,19.6875 C51.778125,19.6875 51.946875,22.078125 51.890625,24.721875 C51.834375,27.365625 50.625,28.74375 47.8125,28.6875 L45.16875,28.6875 C41.6874605,28.4535082 38.6333164,30.9883242 38.221875,34.453125 C37.8,36.3375 37.490625,38.3625 35.184375,38.64375 C33.7990008,38.6948673 32.4913076,39.2967318 31.5514351,40.3158071 C30.6115626,41.3348823 30.1172334,42.686896 30.178125,44.071875 L27.675,41.259375 C27.871875,40.6125 28.209375,39.54375 27.675,39.403125 C24.440625,38.64375 24.103125,35.803125 23.034375,33.4125 C22.540553,32.5131214 21.6363284,31.9138098 20.615625,31.809375 C18.140625,31.528125 17.803125,30.009375 17.803125,27.871875 C17.803125,26.184375 18.309375,24.215625 16.03125,23.4 L16.03125,19.6875 Z" id="Path" fill="#F0B553"></path>
                    <path d="M68.090625,33.58125 C69.075,35.325 67.303125,38.3625 69.975,38.446875 C72.646875,38.53125 71.49375,35.634375 71.775,34.03125 C71.915625,33.075 72.225,32.653125 73.18125,32.653125 L81.140625,32.653125 C82.8,32.653125 82.603125,34.115625 82.85625,35.04375 C85.7657033,45.6626582 84.0385121,57.0171515 78.103125,66.290625 C77.1403003,64.568184 75.3976068,63.4238852 73.434375,63.225 C71.8209029,63.0252861 70.5415143,61.7689496 70.3125,60.159375 C68.85,54.534375 67.275,53.325 61.59375,53.26875 C57.2625,53.26875 56.1375,51.91875 56.446875,47.64375 C56.5875,45.703125 57.43125,44.49375 59.428125,44.38125 C60.9204084,44.4417872 62.3674109,43.8616005 63.4045076,42.7868889 C64.4416043,41.7121773 64.9698922,40.245431 64.85625,38.75625 C64.8582625,36.5553081 66.1131322,34.5475166 68.090625,33.58125 Z" id="Path" fill="#F0B553"></path>
                    <path d="M16.03125,19.6875 C16.03125,20.896875 16.03125,22.10625 16.03125,23.315625 C14.4869823,24.9978658 13.8518371,27.3231936 14.3264973,29.5568889 C14.8011576,31.7905841 16.3269856,33.6567051 18.421875,34.565625 C19.7086327,34.8037945 20.6896453,35.8532499 20.840625,37.153125 C21.76875,41.0625 23.653125,42.13125 27.5625,41.203125 L30.065625,44.015625 C28.2941727,44.5756434 26.4175116,44.720002 24.58125,44.4375 C22.6125,44.4375 20.390625,44.83125 19.63125,46.546875 C18.3311552,49.0039747 16.1358686,50.8669472 13.5,51.75 C10.2375,53.353125 9.73125,56.615625 9.421875,60.1875 C3.31875,48.628125 6.13125,29.53125 16.03125,19.6875 Z" id="Path" fill="#C5F1FB"></path>
                    <polygon id="Path" fill="#669999" points="72.1125 7.70625 82.490625 13.696875 72.1125 19.6875"></polygon>
                    <path d="M24.35625,78.159375 C19.1590298,74.945178 14.8319769,70.502222 11.75625,65.221875 C14.7317901,66.4559861 17.7968788,67.4620121 20.925,68.23125 C22.3456651,68.9708226 23.187081,70.4875855 23.0625,72.084375 C23.2595611,74.0538207 23.8425266,75.9651832 24.778125,77.709375 L24.35625,78.159375 Z" id="Path" fill="#C5F1FB"></path>
                    <path d="M30.571875,81.05625 L40.640625,81.05625 C41.4118662,80.9676342 42.1854363,81.201741 42.778125,81.703125 C43.3867085,82.2076717 43.6403515,83.0237404 43.425,83.784375 C43.171875,84.628125 42.328125,84.2625 41.7375,84.20625 C37.8502896,83.8697326 34.0618164,82.8009442 30.571875,81.05625 Z" id="Path" fill="#C5F1FB"></path>
                    <path d="M9.7875,60.609375 C9.8566543,60.8023322 9.91302628,60.9996341 9.95625,61.2 C9.95625,61.2 9.95625,61.2 9.73125,61.425 C9.6583868,61.2236443 9.60195229,61.0167178 9.5625,60.80625 C9.5625,60.80625 9.703125,60.665625 9.7875,60.609375 Z" id="Path" fill="#C5F1FB"></path>
                    <path d="M24.778125,77.68125 C24.946875,77.85 25.284375,78.13125 25.25625,78.215625 C24.975,78.75 24.665625,78.215625 24.35625,78.215625 L24.778125,77.68125 Z" id="Path" fill="#C5F1FB"></path>
                    <path d="M52.003125,79.734375 C50.34375,78.553125 49.725,77.371875 52.003125,76.246875 C54.675,77.428125 54.028125,78.58125 52.003125,79.734375 Z" id="Path" fill="#14120E"></path>
                    <path d="M27.703125,41.203125 C23.79375,42.13125 21.909375,41.0625 20.98125,37.153125 C20.8302703,35.8532499 19.8492577,34.8037945 18.5625,34.565625 C16.4676106,33.6567051 14.9417826,31.7905841 14.4671223,29.5568889 C13.9924621,27.3231936 14.6276073,24.9978658 16.171875,23.315625 C18.45,24.13125 18.028125,26.128125 17.94375,27.7875 C17.94375,29.925 18.225,31.44375 20.75625,31.725 C21.7769534,31.8294348 22.681178,32.4287464 23.175,33.328125 C24.24375,35.71875 24.58125,38.559375 27.815625,39.31875 C28.125,39.375 27.9,40.55625 27.703125,41.203125 Z" id="Path" fill="#090908"></path>
                </g>
            </g>
        </g>
    </g>
</svg>