<?xml version="1.0" encoding="UTF-8"?>
<svg width="120px" height="93px" viewBox="0 0 120 93" version="1.1" xmlns="http://www.w3.org/2000/svg" xmlns:xlink="http://www.w3.org/1999/xlink">
    <title>Group 15</title>
    <defs>
        <polygon id="path-1" points="0 1.74068966 78.1958621 1.74068966 78.1958621 80 0 80"></polygon>
    </defs>
    <g id="Mockup" stroke="none" stroke-width="1" fill="none" fill-rule="evenodd">
        <g id="Group-15">
            <ellipse id="Oval" fill-opacity="0.284582605" fill="#000000" cx="60" cy="79.5" rx="60" ry="13.5"></ellipse>
            <g id="Group-18" transform="translate(21.000000, 0.000000)">
                <path d="M23.4788966,75.6284138 C23.409931,75.6311724 23.352,75.6091034 23.3051034,75.5594483 C23.2802759,75.2504828 22.5768276,75.6228966 22.3533793,75.4573793 C20.5851034,74.1470345 18.0637241,73.7525517 16.5547586,72.1415172 C15.0016552,70.4863448 12.1409655,69.2725517 11.054069,67.2449655 C13.9175172,64.7318621 19.3437241,60.3401379 22.1906207,57.8132414 C22.7395862,57.3249655 23.0016552,57.1732414 23.6802759,57.8353103 C27.2278621,61.3001379 31.4954483,63.358069 36.4416552,63.9456552 C38.129931,64.1442759 39.8209655,64.193931 41.5009655,63.918069 C42.1795862,63.8077241 42.5244138,63.9594483 42.654069,64.6877241 C43.1285517,67.3663448 43.6416552,70.0422069 44.1547586,72.7125517 C44.4913103,74.4725517 44.8361379,76.2270345 45.2168276,77.976 C45.3244138,78.4615172 45.2416552,78.5856552 44.7285517,78.6656552 C37.672,79.7718621 30.8802759,78.8477241 24.3202759,76.0615172 C24.1713103,75.998069 24.0416552,75.8877241 23.9009655,75.7966897 C23.8016552,75.6422069 23.6444138,75.6256552 23.4788966,75.6284138" id="Fill-1" fill="#FDF4E1"></path>
                <path d="M3.58537931,30.5406897 C5.75641379,31.2662069 13.1550345,33.8041379 15.3012414,34.5986207 C16.0929655,34.8910345 17.2929655,34.8413793 17.5715862,35.6193103 C17.8226207,36.3255172 17.3453793,37.2855172 17.2046897,38.1351724 C16.1977931,44.1737931 17.4171034,49.702069 20.984,54.6924138 C21.4943448,55.4068966 21.5743448,55.8703448 20.7357241,56.5462069 C18.4074483,58.4193103 16.206069,60.4551724 13.9522759,62.422069 C13.4502069,62.8606897 10.9398621,65.3489655 10.4322759,65.782069 C8.26951724,62.2289655 4.86262069,59.302069 3.96055172,55.257931 C3.01158621,51.0041379 1.08055172,44.8634483 1.624,40.5213793 C1.91917241,38.1434483 2.7577931,32.7972414 3.58537931,30.5406897" id="Fill-3" fill="#F26258"></path>
                <path d="M18.5329655,9.87144828 C20.5964138,7.73627586 23.7357241,7.60110345 26.3426207,6.32386207 C28.2708966,5.37765517 28.8915862,5.49075862 31.0184828,5.03006897 C31.6033103,4.90041379 32.0943448,9.97903448 32.1771034,10.3983448 C32.7784828,13.4962759 33.3743448,16.5942069 33.9812414,19.6921379 C34.0915862,20.2576552 33.744,20.3597241 33.3108966,20.4617931 C30.6046897,21.110069 28.1936552,22.3817931 25.961931,24.0121379 C22.784,26.3376552 20.4033103,29.3086897 18.8391724,32.9252414 C18.6102069,33.4548966 18.4557241,33.6783448 17.7853793,33.4355862 C15.1536552,32.4838621 12.4888276,31.6231724 9.8377931,30.7155862 C9.664,30.6548966 4.3702069,28.7707586 4.21296552,28.6631724 C4.42537931,28.2521379 6.29848276,23.4521379 6.46675862,23.0245517 C8.11641379,18.7928276 10.0750345,17.9514483 13.1481379,14.6328276 C13.4598621,14.2962759 18.5826207,10.4893793 18.5329655,9.87144828" id="Fill-5" fill="#FDF4E1"></path>
                <path d="M47.2584828,4.75806897 C52.1026207,5.47806897 56.2791724,8.65875862 60.2846897,11.3208276 C62.4722759,12.7801379 64.4143448,14.5704828 66.2350345,16.473931 C66.4446897,16.6891034 66.5881379,16.9097931 66.2708966,17.1415172 C64.7536552,18.233931 63.4543448,19.5856552 62.0226207,20.7801379 C60.624,21.9442759 59.2529655,23.1525517 57.9095172,24.3884138 C57.6115862,24.6615172 57.286069,24.8849655 56.9853793,25.1470345 C56.4005517,25.6601379 55.8736552,26.6228966 55.1757241,26.5015172 C54.5081379,26.3856552 53.9812414,25.513931 53.3743448,24.9925517 C50.966069,22.9291034 48.2626207,21.4449655 45.1867586,20.5842759 C42.4474483,19.8201379 39.6998621,19.4753103 36.8777931,19.8477241 C36.1936552,19.936 35.8571034,19.7456552 35.721931,19.0035862 C35.0350345,15.1911724 33.5702069,8.69186207 32.8474483,4.88496552 C36.0033103,3.94427586 39.104,4.65324138 42.4115862,4.50151724 C43.7357241,4.44082759 45.9453793,5.02841379 47.2584828,4.75806897" id="Fill-7" fill="#F26258"></path>
                <g id="Group-11" transform="translate(0.000000, 1.018483)">
                    <mask id="mask-2" fill="white">
                        <use xlink:href="#path-1"></use>
                    </mask>
                    <g id="Clip-10"></g>
                    <path d="M76.2024828,40.7023448 C76.2962759,39.2264828 76.1776552,37.5878621 75.9266207,35.9851034 C75.3142069,32.0595862 74.3183448,28.2361379 72.5114483,24.6582069 C71.3721379,22.3988966 70.1197241,20.2168276 68.608,18.192 C67.8493793,17.1768276 67.750069,17.2016552 66.8728276,18.0733793 C66.3514483,18.592 65.7886897,19.0692414 65.2314483,19.552 C62.7873103,21.6844138 60.3321379,23.8057931 57.8962759,25.9492414 C57.4604138,26.3354483 56.6962759,26.4982069 56.6604138,27.1547586 C56.6217931,27.7782069 57.3169655,28.112 57.6231724,28.6251034 C60.950069,34.1837241 62.1611034,40.0761379 60.4617931,46.4375172 C60.3486897,46.8595862 60.3017931,47.1382069 60.9031724,47.3395862 C65.1238621,48.7492414 69.3417931,50.1726897 73.5128276,51.7175172 C74.4976552,52.0816552 74.7266207,51.7009655 74.8976552,50.9864828 C75.7004138,47.6595862 76.3045517,44.3078621 76.2024828,40.7023448 M44.4645517,62.9009655 C44.4893793,63.1437241 44.4921379,63.2816552 44.5197241,63.4113103 C45.3886897,67.8361379 46.2769655,72.2609655 47.1073103,76.694069 C47.2342069,77.369931 47.5431724,77.1106207 47.8714483,77.0251034 C50.3348966,76.3906207 52.7017931,75.529931 55.0190345,74.454069 C59.2038621,72.5147586 62.8424828,69.8306207 66.0148966,66.5533793 C69.2755862,63.1795862 71.7362759,59.2209655 73.5486897,54.8733793 C73.8548966,54.1368276 73.8024828,53.7892414 72.9390345,53.5023448 C68.8811034,52.1588966 64.8424828,50.752 60.8204138,49.312 C59.8824828,48.9782069 59.5569655,49.2816552 59.2066207,50.1202759 C57.7804138,53.5271724 55.4383448,56.2609655 52.5583448,58.5009655 C50.3542069,60.214069 47.8521379,61.4333793 45.1652414,62.2251034 C44.7266207,62.3547586 44.3983448,62.4788966 44.4645517,62.9009655 M18.7928276,40.2775172 C18.5445517,51.0388966 26.6797241,61.0085517 38.9776552,61.1768276 C49.190069,61.3175172 59.3004138,53.2485517 59.3142182,40.7106207 C59.3252414,30.432 51.2397241,21.0002759 39.648,20.6085517 C28.6438621,20.2388966 19.190069,28.8651034 18.7928276,40.2775172 M13.6121379,64.3354483 C13.0217931,64.694069 12.6742069,65.3285517 12.0424828,65.6568276 C11.8383448,65.7616552 11.7004138,65.9906207 12.0176552,66.3602759 C13.6728276,68.2913103 15.6397241,69.8554483 17.6838621,71.3230345 C19.4383448,72.5864828 21.2838621,73.7257931 23.3031724,74.5423448 C23.3528276,74.592 23.4107586,74.614069 23.4797241,74.6113103 C23.5597241,74.8182069 23.7252414,74.8126897 23.9017931,74.7795862 C24.0424828,74.8678621 24.1721379,74.9782069 24.3211034,75.0416552 C30.8783448,77.8278621 37.670069,78.7547586 44.7293793,77.6485517 C45.2397241,77.5657931 45.3252414,77.4444138 45.2176552,76.9588966 C44.8369655,75.209931 44.4921379,73.4526897 44.1555862,71.6954483 C43.6424828,69.0223448 43.1293793,66.3492414 42.6548966,63.6706207 C42.5252414,62.9395862 42.1804138,62.7906207 41.5017931,62.9009655 C39.8217931,63.174069 38.128,63.1271724 36.4397241,62.9285517 C31.4935172,62.3409655 27.2286897,60.2802759 23.6783448,56.8154483 C23.0024828,56.1533793 22.7404138,56.3078621 22.1914483,56.7933793 C19.3445517,59.3230345 16.4728276,61.8251034 13.6121379,64.3354483 M47.2038621,4.72717241 C47.008,4.61406897 46.8314483,4.50648276 46.585931,4.45131034 C42.8976552,3.63475862 39.1790345,3.44441379 35.4273103,3.85544828 C34.6714483,3.9382069 33.6590345,3.77268966 33.225931,4.19751724 C32.6797241,4.72717241 33.4714483,5.63751724 33.4521379,6.41544828 C33.4521379,6.46234483 33.5293793,6.51475862 33.5707586,6.56441379 C34.2935172,10.3685517 35.0355862,14.1726897 35.7224828,17.9851034 C35.8576552,18.7271724 36.1942069,18.9202759 36.8783448,18.8292414 C39.7004138,18.4568276 42.448,18.8044138 45.1873103,19.5657931 C48.2631724,20.4264828 50.9666207,21.9106207 53.3748966,23.9768276 C53.9817931,24.4954483 54.5086897,25.3671724 55.1762759,25.4830345 C55.8742069,25.6044138 56.4011034,24.6416552 56.985931,24.1285517 C57.2866207,23.8664828 57.6121379,23.6430345 57.910069,23.369931 C59.2507586,22.1368276 60.6245517,20.9257931 62.0231724,19.7616552 C63.4548966,18.5671724 64.7542069,17.2154483 66.2686897,16.1230345 C66.5886897,15.8913103 66.4424828,15.6706207 66.2355862,15.4554483 C64.4148966,13.552 62.4728276,11.7616552 60.2824828,10.3023448 C56.2797241,7.64027586 52.048,5.44993103 47.2038621,4.72717241 M12.4342069,62.7023448 C12.9390345,62.2692414 13.4493793,61.8416552 13.9514483,61.4030345 C16.2052414,59.4361379 18.4066207,57.4030345 20.7348966,55.5271724 C21.5762759,54.8513103 21.4935172,54.3878621 20.9831724,53.6733793 C17.4162759,48.6857931 16.1997241,43.1547586 17.2038621,37.1188966 C17.3445517,36.2692414 17.8217931,35.3064828 17.5707586,34.6030345 C17.2948966,33.8223448 16.0921379,33.872 15.3004138,33.5795862 C13.1542069,32.7851034 10.9666207,32.1064828 8.79282759,31.3809655 C7.24248276,30.6775172 5.5817931,30.2830345 3.99282759,29.6871724 C3.568,29.5271724 3.60386207,29.6926897 3.51006897,29.9906207 C3.16248276,31.129931 2.91972414,32.2857931 2.66868966,33.449931 C1.3417931,39.5492414 1.69489655,45.5795862 3.45489655,51.5161379 C4.80662069,56.0761379 6.90868966,60.2913103 9.91834483,64.0264828 C10.3045517,64.5064828 10.5004138,64.4182069 10.8204138,64.1451034 C11.3721379,63.6788966 11.8962759,63.1851034 12.4342069,62.7023448 M18.0397241,15.7423448 C16.9335172,16.3188966 16.1638621,17.2954483 15.3169655,18.1506207 C14.7542069,18.7188966 14.1886897,18.7713103 13.7666207,18.3602759 C13.2893793,17.8913103 13.4107586,17.2430345 13.9762759,16.7354483 C14.8397241,15.9713103 15.6424828,15.1354483 16.5169655,14.3851034 C18.5086897,12.6775172 20.6576552,11.1823448 22.9969655,9.98786207 C25.4824828,8.71889655 28.0590345,7.66786207 30.8093793,7.10234483 C31.145931,7.03062069 31.6038621,7.00027586 31.510069,6.46786207 C31.3997241,5.85544828 31.3666207,5.16303448 31.0383448,4.68303448 C30.8562759,4.4182069 30.185931,4.81544828 29.728,4.84303448 C29.1817931,4.87613793 28.7211034,5.14648276 28.2162759,5.30096552 C23.9817931,6.60303448 20.0535172,8.55889655 16.5335172,11.232 C13.2645517,13.712 10.4535172,16.6802759 8.18041379,20.1147586 C6.72662069,22.3106207 5.41351724,24.5975172 4.53351724,27.1023448 C4.40110345,27.4747586 4.19972414,27.7782069 4.76524138,27.9382069 C6.31006897,28.3685517 7.78041379,29.049931 9.35834483,29.3809655 C9.51834483,29.4885517 9.6617931,29.6375172 9.83834483,29.6982069 C12.4866207,30.6030345 15.1542069,31.4637241 17.785931,32.4182069 C18.4535172,32.6609655 18.6107586,32.4375172 18.8397241,31.9078621 C20.4011034,28.2913103 22.7817931,25.3175172 25.9624828,22.9947586 C28.1942069,21.3644138 30.6052414,20.0926897 33.3114483,19.4416552 C33.7445517,19.3395862 34.0893793,19.2402759 33.9790345,18.672 C33.3748966,15.5768276 32.7790345,12.4788966 32.1776552,9.38096552 C32.0948966,8.95889655 32.0011034,8.75475862 31.4162759,8.88165517 C29.2921379,9.34234483 27.248,10.0651034 25.3197241,11.0113103 C22.7128276,12.2885517 20.1031724,13.6071724 18.0397241,15.7423448 M78.1975484,41.2595862 C77.9128276,63.2016552 60.208,80.3051034 38.5086897,79.9961379 C16.4562759,79.6788966 0.511448276,61.9630345 0.012137931,41.9409655 C-0.569931034,18.5782069 18.3266207,2.05958621 38.185931,1.74510345 C61.1431724,1.38372414 78.3128276,20.0457931 78.1975484,41.2595862" id="Fill-9" fill="#000000" mask="url(#mask-2)"></path>
                </g>
                <path d="M44.4637241,63.9188966 C44.4002759,63.4968276 44.7285517,63.3726897 45.1644138,63.2430345 C47.854069,62.4513103 50.3533793,61.232 52.5575172,59.5188966 C55.4375172,57.2788966 57.7795862,54.5451034 59.2057931,51.1382069 C59.5588966,50.2995862 59.8844138,49.9961379 60.8195862,50.329931 C64.8444138,51.769931 68.8830345,53.1768276 72.9382069,54.5202759 C73.8044138,54.8071724 73.8568276,55.1547586 73.5478621,55.8913103 C71.7354483,60.2416552 69.2775172,64.1975172 66.014069,67.5713103 C62.8444138,70.8485517 59.2030345,73.5326897 55.0209655,75.472 C52.7009655,76.5478621 50.334069,77.4085517 47.8706207,78.0457931 C47.5451034,78.1285517 47.2333793,78.3878621 47.1064828,77.712 C46.2761379,73.2788966 45.3878621,68.8568276 44.5188966,64.4292414 C44.494069,64.2995862 44.4885517,64.1616552 44.4637241,63.9188966" id="Fill-12" fill="#F26158"></path>
                <path d="M76.2024828,41.7208276 C76.3045517,45.3263448 75.7004138,48.678069 74.8976552,52.0049655 C74.7266207,52.7194483 74.4976552,53.1001379 73.5128276,52.736 C69.3417931,51.1911724 65.1238621,49.7677241 60.9031724,48.358069 C60.3017931,48.1566897 60.3486897,47.878069 60.4617931,47.456 C62.1611034,41.0946207 60.950069,35.2022069 57.6231724,29.6435862 C57.3169655,29.1304828 56.6217931,28.7966897 56.6604138,28.1732414 C56.6962759,27.5166897 57.4604138,27.353931 57.8962759,26.9677241 C60.3321379,24.8242759 62.7873103,22.7028966 65.2314483,20.5704828 C65.7886897,20.0877241 66.3514483,19.6104828 66.8728276,19.0918621 C67.750069,18.2201379 67.8493793,18.1953103 68.608,19.2104828 C70.1197241,21.2353103 71.3721379,23.4173793 72.5114483,25.6766897 C74.3183448,29.2546207 75.3142069,33.078069 75.9266207,37.0035862 C76.1776552,38.6063448 76.2962759,40.2449655 76.2024828,41.7208276" id="Fill-14" fill="#FDF4E0"></path>
                <path d="M23.4788966,75.6284138 C23.6444138,75.6256552 23.8016552,75.6422069 23.9009655,75.7966897 C23.7244138,75.8325517 23.5588966,75.8353103 23.4788966,75.6284138" id="Fill-16" fill="#FBFAFB"></path>
            </g>
        </g>
    </g>
</svg>