<svg xmlns="http://www.w3.org/2000/svg" viewBox="0 0 405 305.8"><defs><style>.cls-1,.cls-2{fill:none;stroke:#333;stroke-linecap:round;stroke-width:5px;}.cls-1{stroke-miterlimit:10;}.cls-2{stroke-linejoin:round;}.cls-3,.cls-5{fill:#366;}.cls-4{fill:#333;}.cls-5{font-size:45px;font-family:AcuminProSemiCond-Bold, Acumin Pro SemiCondensed;font-weight:700;letter-spacing:0.08em;}.cls-6{letter-spacing:0.08em;}.cls-7{letter-spacing:0.08em;}</style></defs><g id="Layer_2" data-name="Layer 2"><g id="Ebene_1" data-name="Ebene 1"><path class="cls-1" d="M202.5,78.4c110.46,0,200,33.58,200,75,0,32.15-54,59.57-129.76,70.24"/><path class="cls-1" d="M132.26,83.16C56.46,93.83,2.5,121.25,2.5,153.4c0,41.42,89.54,75,200,75"/><line class="cls-1" x1="61.08" y1="11.98" x2="132.26" y2="83.16"/><line class="cls-1" x1="272.74" y1="223.64" x2="343.92" y2="294.82"/><path class="cls-2" d="M262.5,176.65c13.81,0,25-10.57,25-24.38s-11.19-24.37-25-24.37h-85L132.26,83.16"/><path class="cls-2" d="M142.5,127.86c-13.81,0-25,11.71-25,25.52s11.19,25.52,25,25.52h85l45.24,44.74"/><line class="cls-1" x1="72" y1="121.4" x2="72" y2="181.4"/><line class="cls-1" x1="333" y1="121.4" x2="333" y2="181.4"/><path class="cls-3" d="M311,275.75a10,10,0,1,1,14.14-14.14l26.52,26.51-14.15,14.14Z"/><path class="cls-4" d="M318,261.18a7.48,7.48,0,0,1,5.3,2.19l24.75,24.75-10.61,10.61L312.72,274a7.5,7.5,0,0,1,5.31-12.8m0-5a12.5,12.5,0,0,0-8.84,21.34l28.28,28.28,17.68-17.68-28.28-28.28a12.46,12.46,0,0,0-8.84-3.66Z"/><path class="cls-3" d="M86.47,47.12a9.93,9.93,0,0,1-7.07-2.93L52.89,17.68,67,3.54,93.54,30.05a10,10,0,0,1-7.07,17.07Z"/><path class="cls-4" d="M67,7.07,91.78,31.82A7.5,7.5,0,0,1,81.17,42.43L56.42,17.68,67,7.07M67,0,49.35,17.68,77.63,46A12.5,12.5,0,1,0,95.31,28.28L67,0Z"/><text class="cls-5" transform="translate(138.2 168.57)">C<tspan class="cls-6" x="32.67" y="0">A</tspan><tspan class="cls-7" x="64.48" y="0">NU</tspan></text></g></g></svg>