<svg xmlns="http://www.w3.org/2000/svg" viewBox="0 0 63.49 83.81"><defs><style>.cls-1{fill:#fe7343;}.cls-2{fill:#4a4e53;}.cls-3{fill:#f8d25c;}.cls-4{fill:#4cbcd5;}.cls-5{fill:#fdfdfd;}.cls-6{fill:#ececec;}</style></defs><g id="Layer_2" data-name="Layer 2"><g id="Layer_1-2" data-name="Layer 1"><path class="cls-1" d="M17,77V76l0-2,1.81,0c.27,0,.48,0,.48-.38s-.15-.49-.49-.48c-.6,0-1.21,0-1.81,0v-.93c.61,0,1.22,0,1.82,0,.37,0,.47-.17.47-.51s-.17-.43-.47-.43l-1.82,0c0-.28,0-.55,0-.82a.65.65,0,0,0,0-.13c.59,0,1.18,0,1.77,0,.38,0,.55-.13.55-.5a1.5,1.5,0,0,0,1.26,0c0,.63.45.49.81.49l13.84,0v.94c-4.62,0-9.24,0-13.86,0-.32,0-.75-.16-.76.45s.4.49.74.49c2.69,0,5.37,0,8.05,0,1.93,0,3.87-.12,5.8.07-.15.3-.35.61,0,.89l-10.1,0h-4c-.3,0-.53,0-.54.43s.24.44.54.43.44,0,.66,0l13.42,0,0,2.13V77c0,.41,0,.82,0,1.23,0,1.16,0,1.16-1.15,1.24H32.63l-1.41,0c0-.39-.24-.48-.61-.48q-4.45,0-8.91,0c-.37,0-.58.09-.59.48l-2.59,0H18c-.84.11-1.09-.29-1-1.08A9.22,9.22,0,0,0,17,77Z"/><path class="cls-2" d="M13.41,9.64l0,0c-.08-.41-.18-.81-.23-1.22-.05-.56-.33-.9-.88-.91a.82.82,0,0,0-.84.85,5.48,5.48,0,0,1-.41,1.59l-.23.33a3.49,3.49,0,0,1-2.46,1.19l-.66,0-.27-.09-.56-.23a4,4,0,0,1-1.53-2,1.69,1.69,0,0,0-.11-.83,25.31,25.31,0,0,0,0-4,1,1,0,0,0,0-.66c0-.57.05-1.14.05-1.72A.86.86,0,0,0,4.78,1C4.3.82,4.36.44,4.47.18S5,.1,5.18.18A1.76,1.76,0,0,1,6,.86H6a3.45,3.45,0,0,1,.25,1.26l0,.67V6.09a3.77,3.77,0,0,1,2.12-.86l.51,0a3.23,3.23,0,0,1,2,1.25c.28.46.53.42.87.11l.66-.08a1.3,1.3,0,0,1,.4.09c.55.36.89.2,1.23-.33a2.69,2.69,0,0,1,1.35-.92l.34-.13a6.6,6.6,0,0,1,1.82.2l.31.18a1,1,0,0,0,.63.36V2.94c.1-1.61.05-1.73-.9-2.11v0c.09-.25-.13-.63.19-.74a1,1,0,0,1,.84.26,1.78,1.78,0,0,1,.77,1.55c0,.41,0,.83,0,1.24V8.43l0,.49a.71.71,0,0,0-.17.5,3.68,3.68,0,0,1-1.69,1.77l-.49.18-.65.07-.66,0A4,4,0,0,1,13.41,9.64Zm-2.95-1.9A2,2,0,0,0,7.61,6.4l0,0a2.1,2.1,0,0,0,.31,4C9.52,10.88,10.7,9.65,10.46,7.74Zm5.81,2.78a2.24,2.24,0,0,0,2.21-2.13,2.23,2.23,0,0,0-2.19-2.25,2.19,2.19,0,0,0,0,4.38Z"/><path class="cls-2" d="M21.11,79.45c0-.39.22-.48.59-.48q4.46,0,8.91,0c.37,0,.59.09.61.48a3.56,3.56,0,0,0,0,1.38c0,.32-.07.65-.13,1a2.47,2.47,0,0,1-2.42,2c-1.68,0-3.37,0-5.05,0a2.49,2.49,0,0,1-2.52-2.44C21.11,80.72,21.12,80.09,21.11,79.45Zm4.05.42H22.84c-.69-.18-1,0-.8.77-.12,1.63.49,2.31,2.1,2.31,1.38,0,2.75,0,4.12,0s2.11-.67,2-2.14c.08-1,.08-1-1-.94H25.16Z"/><path class="cls-2" d="M62.35,24.19a1.71,1.71,0,0,1,1.14,1.33c-.3,1.17-.63,1.42-1.78,1.4l-.33-.12a1.43,1.43,0,0,1-.59-1.65A1.46,1.46,0,0,1,62.35,24.19Zm-.24.9a.47.47,0,0,0-.5.43A.42.42,0,0,0,62,26a.44.44,0,0,0,.55-.45C62.56,25.3,62.37,25.16,62.11,25.09Z"/><path class="cls-3" d="M20.63,69.71a1.5,1.5,0,0,1-1.26,0c0-.39-.31-.38-.6-.38l-1.73,0,0-1.77V66.7a10,10,0,0,0-.46-3.88.09.09,0,0,0,0-.11c0-.1,0-.21-.05-.32s-.11-.45-.16-.68,0-.16-.13-.17h0a5.25,5.25,0,0,0-.84-2.32l-.15-.36a8.73,8.73,0,0,0-1.48-2.49l-.21-.3a9.75,9.75,0,0,0-1.84-2.16,1,1,0,0,0-.48-.47l-2-1.86-.33-.34c-.56-.72-1.13-1.43-1.7-2.15a.51.51,0,0,0-.28-.34L5.59,46.61a2.63,2.63,0,0,0-.5-1c-.39-1-.79-2-1.18-3l0-.18c-.21-.88-.43-1.76-.64-2.64-.07-.45-.13-.89-.19-1.33C2.85,37.26,3,36,2.87,34.82c0-.28,0-.56,0-.83.17-1.16.33-2.32.5-3.47,0-.1,0-.2,0-.3A2.82,2.82,0,0,0,3.78,29,1.84,1.84,0,0,0,4,28.17c.16-.43.33-.87.49-1.31l.17-.34L5.9,24c.11-.17.21-.34.31-.51.56-.83,1.13-1.65,1.7-2.48l.15-.18c.66-.72,1.33-1.43,2-2.14l.34-.33,2.28-1.85.4-.28,2.44-1.42.37-.22,2.81-1.17a1.94,1.94,0,0,0,.82-.23l3.14-.69.36-.09,1.63-.14a.52.52,0,0,0,.5-.05h2.33a4.85,4.85,0,0,0,1.65.16.57.57,0,0,0,.51.13l2.82.57a2.32,2.32,0,0,0,1,.29,19.48,19.48,0,0,0,3,1.1c0,.14.08.2.21.22l2.6,1.52.38.29,2.32,1.84.17.17,2.15,2.29.16.22,1.64,2.33a1,1,0,0,0,.31.53l1.35,2.66.11.3a6.23,6.23,0,0,0,.59,1.63,10,10,0,0,0,.51,2c.17,1.16.33,2.32.5,3.48,0,.28,0,.56,0,.84-.07,1.27,0,2.54-.17,3.8-.05.34-.11.68-.16,1-.2.86-.39,1.72-.59,2.59a.69.69,0,0,0-.14.52,12.15,12.15,0,0,0-1,2.68h0c-.12,0-.16.08-.18.17a2.4,2.4,0,0,0-.49,1L45.4,48.76l-.18.28c-.6.74-1.2,1.48-1.81,2.21l-.48.51-2,2-.14.13a9.13,9.13,0,0,0-2,2.35l-.27.36A10.39,10.39,0,0,0,37,59.07l-.21.49a5.68,5.68,0,0,0-.67,1.83.94.94,0,0,0-.16.67l-.09.4a.87.87,0,0,0-.2.6,12.46,12.46,0,0,0-.36,3.8v.68c0,.59,0,1.18,0,1.77H28.8l0-.28V59.56c0-.31,0-.63,0-1,.3,0,.61,0,.91,0s.44-.11.43-.43-.12-.45-.44-.44-.6,0-.9,0V56.9a.29.29,0,0,0,0-.16c.25,0,.5,0,.75,0s.58,0,.58-.47-.28-.46-.6-.45H27.2c-.2,0-.52.08-.54-.22a7.68,7.68,0,0,1,.05-2.3c.11-.41.85-.12,1.29-.23a3.7,3.7,0,0,1,.58-.1,17.58,17.58,0,1,0-4.75,0c2,.27,1.93.27,1.89,2.21,0,.53-.21.66-.69.65-.8,0-1.61,0-2.41,0-.32,0-.43.15-.43.45s.08.48.42.47l.91,0v.94c-.29,0-.59,0-.89,0s-.44.13-.44.44.13.43.44.42.59,0,.89,0l.05,1.27v.53a30.94,30.94,0,0,0,0,4v.84l0,4.07-2.3,0C21,69.35,20.65,69.31,20.63,69.71Z"/><path class="cls-1" d="M52.1,37.09l-.27-1a3.64,3.64,0,0,1,1-3l.36-.29A4,4,0,0,1,56,32.37,3.86,3.86,0,0,1,58.38,35a4.38,4.38,0,0,1-.53,2.45l-.47.53a3.76,3.76,0,0,1-2.83.87l-.83-.22h0a.37.37,0,0,0-.33-.19l-1.15-1.14-.15-.2Z"/><path class="cls-2" d="M35.24,72.22c-1.93-.19-3.87,0-5.8-.07-2.68,0-5.36,0-8,0-.34,0-.74.11-.74-.49s.44-.45.76-.45c4.62,0,9.24,0,13.86,0h1.34c.48,0,.34.42.33.68s-.3.24-.5.26A4,4,0,0,0,35.24,72.22Z"/><path class="cls-2" d="M54.88,10.23h.5a3.43,3.43,0,0,1,2.49,1.51l.07.19A3.5,3.5,0,0,1,58,14.36l-.31.54a3.39,3.39,0,0,1-2.51,1.28l-.65-.09L54.28,16a.54.54,0,0,0-.45-.16,4.25,4.25,0,0,1-1.47-1.95l-.06-1a3.58,3.58,0,0,1,1.26-2.16l.55-.3Zm2.17,3.87a1.55,1.55,0,0,0,0-1.76,1.84,1.84,0,0,0-2.21-1.1.5.5,0,0,0-.49.16,1.78,1.78,0,0,0-1.15,1.89,1.78,1.78,0,0,0,1.31,1.78.51.51,0,0,0,.51.14A1.79,1.79,0,0,0,57.05,14.1Z"/><path class="cls-2" d="M28.8,69.3h6.48c.4,0,.8,0,1.2,0s.5.19.5.52a.35.35,0,0,1-.37.38H35.28l-13.84,0c-.36,0-.82.14-.81-.49,0-.4.32-.36.6-.37l2.3,0H28.8Z"/><path class="cls-2" d="M35.27,74,21.85,74c-.22,0-.44,0-.66,0s-.54,0-.54-.43.24-.43.54-.43h4l10.1,0c.56.19,1.2-.24,1.72.23v.5C36.44,74.2,35.83,73.9,35.27,74Z"/><path class="cls-4" d="M60,4.81l.18.31a2.5,2.5,0,0,1-.32,2l-.15.14a2.36,2.36,0,0,1-2.12.33l-.18-.13a2,2,0,0,1-.46-2.76c.12-.11.24-.22.35-.34A2,2,0,0,1,60,4.81Z"/><path class="cls-5" d="M44.87,13c-.16.19-.47.34-.44.62a.54.54,0,0,0,1.07-.08C45.48,13.29,45.19,13.13,44.87,13Z"/><path class="cls-5" d="M42.58,11.37a.64.64,0,0,0-.56-.51c-.39-.09-.49.33-.53.56s.32.44.55.48S42.4,11.56,42.58,11.37Z"/><path class="cls-5" d="M28.13,6.26c-.41-.09-.37.24-.4.51-.06.42.25.4.52.43.43.06.38-.25.41-.52S28.45,6.25,28.13,6.26Z"/><path class="cls-5" d="M35.46,8.67c.42.06.38-.34.43-.54.14-.48-.35-.42-.57-.47-.41-.09-.36.33-.4.56C34.83,8.63,35.24,8.54,35.46,8.67Z"/><path class="cls-5" d="M54.38,27.28c-.18-.1,0-.59-.4-.52-.22,0-.64,0-.59.41,0,.24,0,.63.39.58C54,27.72,54.38,27.77,54.38,27.28Z"/><path class="cls-5" d="M46.52,14.34c.32-.67.63-.83,1.24-.19,1.51,1.58,1.53,1.54-.09,3.07-.39.37-.67.4-1,0a11.68,11.68,0,0,0-1-1c-.56-.49-.47-.87.16-1.19.26.15.42.57.85.15S46.68,14.6,46.52,14.34Zm1.07,2.41c.21-.17.52-.29.55-.56a.62.62,0,0,0-.49-.58.59.59,0,0,0-.58.5C47,16.39,47.32,16.56,47.59,16.75Z"/><path class="cls-5" d="M57.87,11.74a3.43,3.43,0,0,0-2.49-1.51c.09-.54.6-.76.91-1.13s.38-.13.56.05l.88.88C58.57,10.87,58.57,10.87,57.87,11.74Z"/><path class="cls-5" d="M35.27,74c.56-.13,1.17.17,1.71-.19.3.07.62.22.31.53a6.82,6.82,0,0,1-2,1.79Z"/><path class="cls-5" d="M37,69.85c0-.33-.08-.55-.5-.52s-.8,0-1.2,0c0-.59,0-1.18,0-1.77a6.14,6.14,0,0,1,2,1.86C37.55,69.69,37.24,69.8,37,69.85Z"/><path class="cls-5" d="M44.25,20.84,42.1,18.55c.22-.11.45-.26.68,0,.5.49,1,1,1.5,1.5C44.56,20.29,44.26,20.56,44.25,20.84Z"/><path class="cls-5" d="M36.11,61.39a5.68,5.68,0,0,1,.67-1.83c.69.19.82.51.25,1Z"/><path class="cls-2" d="M38.56,9c.43.08.84.17.87.73a.37.37,0,0,0-.32.36c-.46-.08-1-.06-.72-.81Z"/><path class="cls-2" d="M41,10.13c.09.38-.2.6-.38.86-.67,0-.63-.62-.79-1.05.29,0,.58-.17.86,0Z"/><path class="cls-2" d="M46.52,14.34c.16.26.58.41.14.84s-.59,0-.85-.15l-.09-.3.52-.52Z"/><path class="cls-2" d="M34.21,7.41c-.16.27,0,.77-.58.73L33.24,8a.63.63,0,0,1,.12-.87c.26-.17.6,0,.86.24Z"/><path class="cls-2" d="M51.23,21.9c.39-.13.82-.56,1.08.16l.09.15-.18.32c-.27,0-.55.35-.82,0L51.19,22A.15.15,0,0,0,51.23,21.9Z"/><path class="cls-2" d="M29.63,7.37c-.15-.93-.12-1,.84-.91a.16.16,0,0,0,.09.12c0,.62-.24,1-.93.79Z"/><path class="cls-2" d="M53.18,24.09c-1,.37-1,.34-1.11-.7.18,0,.36.05.5-.12.56,0,.39.54.63.76Z"/><path class="cls-5" d="M27,12.26H25.15C26,11.1,26.1,11.1,27,12.26Z"/><path class="cls-2" d="M53.78,25.38c.19.68-.41.54-.73.7L52.92,26c-.33-.67,0-.94.63-1Z"/><path class="cls-2" d="M53.88,28.68c.29,0,.61-.42.89,0l.11.3a.43.43,0,0,1-.33.51l-.64-.06a.11.11,0,0,0,0-.12Z"/><path class="cls-2" d="M31.46,6.72c.81-.1,1,.29.8,1-.48,0-1.09.06-.88-.77Z"/><path class="cls-2" d="M36.8,9.22c-.41-.4,0-.68.14-1,.27.2.85.08.69.7-.16.15-.15.5-.5.42Z"/><path class="cls-2" d="M55.19,31.16c-.27.12-.59.33-.82.09a.56.56,0,0,1,0-.86l.49-.09c.21,0,.25.23.33.37Z"/><path class="cls-2" d="M43,12.7c0-.51.09-.87.72-.74l.34.29c-.13.38-.15.89-.8.64Z"/><path class="cls-2" d="M49.73,19.59c-.11-.29-.67-.48-.16-.92s.6,0,.83.21C50.51,19.44,50.06,19.46,49.73,19.59Z"/><path class="cls-2" d="M48.73,17a.75.75,0,0,1,.6.68c0,.12-.24.3-.41.38-.47.23-.47-.32-.72-.47Z"/><path class="cls-2" d="M50.32,20.54c.57-.64.79-.66,1-.11s-.29.48-.46.7C50.55,21.08,50.52,20.73,50.32,20.54Z"/><path class="cls-5" d="M47.22,45.61c0-.09.06-.18.18-.17Z"/><path class="cls-5" d="M1.08,49c-.2-.13-.13-.58-.49-.52S0,48.6,0,48.91s.11.66.5.6A.59.59,0,0,0,1.08,49Z"/><path class="cls-2" d="M15.86,72.16c-.71-.11-.58-.52-.33-1l.5,0h1l1.82,0c.3,0,.46.1.47.43s-.1.51-.47.51c-.6,0-1.21,0-1.82,0a1.25,1.25,0,0,0-.69,0Z"/><path class="cls-2" d="M17,69.31l1.73,0c.29,0,.57,0,.6.38s-.17.51-.55.5c-.59,0-1.18,0-1.77,0H15.53c-.16-.07-.14-.24-.19-.38,0-.33.08-.55.5-.52S16.64,69.32,17,69.31Z"/><path class="cls-2" d="M17,73.11c.6,0,1.21,0,1.81,0,.34,0,.5.11.49.48s-.21.38-.48.38l-1.81,0c-.57-.13-1.17.17-1.71-.19l0-.66h0l.51-.06Z"/><path class="cls-5" d="M15.34,73.84c.54.36,1.14.06,1.71.19l0,2c-.28.2-.49.11-.71-.12-.41-.44-.84-.85-1.26-1.27S14.64,73.87,15.34,73.84Z"/><path class="cls-5" d="M3.91,42.63c.39,1,.79,2,1.18,3-.76-.12-1-.86-1.56-1.27C2.47,43.51,3.7,43.17,3.91,42.63Z"/><path class="cls-5" d="M12.68,16.55,10.4,18.4c-.38-.19-.39-.41-.1-.69a9.43,9.43,0,0,0,1.09-1.1C11.83,16,12.23,16,12.68,16.55Z"/><path class="cls-5" d="M10.06,18.73c-.67.71-1.34,1.42-2,2.14-.29-.33-.39-.61,0-.95a17.19,17.19,0,0,0,1.29-1.27C9.64,18.37,9.87,18.34,10.06,18.73Z"/><path class="cls-5" d="M15.37,59.23a5.25,5.25,0,0,1,.84,2.32,2.75,2.75,0,0,1-.33-.23,5.83,5.83,0,0,1-1-1C14.59,59.81,15.45,59.7,15.37,59.23Z"/><path class="cls-5" d="M15.53,70.23h1.33l.15.13c0,.27,0,.54,0,.82H16C16.05,70.76,15.53,70.63,15.53,70.23Z"/><path class="cls-2" d="M3.27,53.19c.42-.31.6,0,.76.31s-.16.43-.32.57c-.36.31-.45-.12-.61-.28a1.07,1.07,0,0,1-.16-.36Z"/><path class="cls-2" d="M13,61.59l.41-.58.5.2c.36.29.12.6,0,.79-.35.39-.6-.18-.93-.17Z"/><path class="cls-2" d="M2,51.83c.59-.47.81-.08,1,.43a1.86,1.86,0,0,1-.75.48L2,52.38C1.91,52.19,1.82,52,2,51.83Z"/><path class="cls-2" d="M1.74,50.12c.36.5.18.82-.32,1.05-.32-.14-.57-.42-.48-.72A.61.61,0,0,1,1.74,50.12Z"/><path class="cls-2" d="M4.48,55.46c-.15-.25-.51-.42-.09-.81s.56-.07.81.11C5.29,55.33,5.07,55.59,4.48,55.46Z"/><path class="cls-5" d="M3.78,29a2.82,2.82,0,0,1-.35,1.2C2.92,29.64,3.21,29.29,3.78,29Z"/><path class="cls-5" d="M16.2,61.54c.11,0,.13.08.13.17Z"/><path class="cls-5" d="M17,73.11H15.87c0-.39.53-.52.49-.93a1.25,1.25,0,0,1,.69,0C17.05,72.49,17,72.8,17,73.11Z"/><path class="cls-6" d="M17,70.36l-.15-.13h.19A.65.65,0,0,1,17,70.36Z"/><path class="cls-5" d="M18.46,2.94c-.4-.39-.81-.76-1.2-1.17s.34-.58.3-.94C18.51,1.21,18.56,1.33,18.46,2.94Z"/><path class="cls-5" d="M18.46,4.94V6a1,1,0,0,1-.63-.36A.75.75,0,0,1,18.46,4.94Z"/><path class="cls-5" d="M25.16,79.87H27c-.13.45-.44.86-.85.86"/><path class="cls-2" d="M23.52,56.75l-.91,0c-.34,0-.41-.17-.42-.47s.11-.46.43-.45c.8,0,1.61,0,2.41,0,.48,0,.67-.12.69-.65,0-1.94.06-1.94-1.89-2.21a17.55,17.55,0,1,1,4.75,0A3.7,3.7,0,0,0,28,53c-.44.11-1.18-.18-1.29.23a7.68,7.68,0,0,0-.05,2.3c0,.3.34.22.54.22h2.33c.32,0,.6,0,.6.45s-.24.49-.58.47-.5,0-.75,0a.15.15,0,0,0-.16,0l-1.49,0a8.67,8.67,0,0,0-2.16,0ZM27,19a5.78,5.78,0,0,0-1.81,0,.58.58,0,0,0-.51.06,6.75,6.75,0,0,0-2.32.37,3.32,3.32,0,0,0-1.5.45A9.43,9.43,0,0,0,18,21.09l-.35.23a9.38,9.38,0,0,0-2.51,1.82,1,1,0,0,0-.44.4,14.18,14.18,0,0,0-3.65,5.14L10.9,29a6.7,6.7,0,0,0-.7,2,.82.82,0,0,0-.16.66.62.62,0,0,0-.13.49l-.06.32a11.27,11.27,0,0,0-.28,3.84l0,.83a10.65,10.65,0,0,0,.75,3.43l.05.22a7.23,7.23,0,0,0,1,2.32A11.62,11.62,0,0,0,14,46.93a9.19,9.19,0,0,0,2.13,1.9A8.58,8.58,0,0,0,19,50.55l.08,0a.1.1,0,0,0,.12.06,8.58,8.58,0,0,0,3.26,1.14.64.64,0,0,0,.5.13,4.49,4.49,0,0,0,1.5.2.89.89,0,0,0,.66.07,5.56,5.56,0,0,0,1.82,0,.57.57,0,0,0,.51,0,4.84,4.84,0,0,0,1.65-.22.68.68,0,0,0,.52-.1,9.72,9.72,0,0,0,3.15-1l.33-.15.34-.16a2.17,2.17,0,0,0,1-.51,4.65,4.65,0,0,0,1.34-.86L36,49a9.35,9.35,0,0,0,2.31-2l.31-.34a8.81,8.81,0,0,0,1.7-2.28,3.92,3.92,0,0,0,.82-1.53,5.5,5.5,0,0,0,.81-2l.15-.34A12.11,12.11,0,0,0,42.72,37l0-.67a12,12,0,0,0-.2-3.69l-.34-1.45a9.69,9.69,0,0,0-.86-2.38l-.15-.31a14.51,14.51,0,0,0-3.76-5.11l-.24-.2a9.62,9.62,0,0,0-2.55-1.88l-.36-.22a9.6,9.6,0,0,0-2.8-1.23,3.8,3.8,0,0,0-1.67-.46A6.14,6.14,0,0,0,27.48,19,.59.59,0,0,0,27,19Z"/><path class="cls-2" d="M27.32,58.61h-3.8c-.3,0-.59,0-.89,0s-.45-.1-.44-.42.13-.45.44-.44.6,0,.89,0h5.27c.3,0,.6,0,.9,0s.44.13.44.44-.13.44-.43.43-.61,0-.91,0Z"/><path class="cls-5" d="M27.32,58.61h1.47c0,.32,0,.64,0,1C27.85,59.9,27.68,59.11,27.32,58.61Z"/><path class="cls-5" d="M23.52,58.61h1.3a2.42,2.42,0,0,1-1.25,1.27C23.55,59.46,23.54,59,23.52,58.61Z"/><path class="cls-6" d="M28.78,56.9l-.14-.16a.15.15,0,0,1,.16,0A.29.29,0,0,1,28.78,56.9Z"/><path class="cls-6" d="M53.72,38.64c-.15,0-.28,0-.33-.19A.37.37,0,0,1,53.72,38.64Z"/><path class="cls-2" d="M44.87,13c.32.12.61.28.63.54a.54.54,0,0,1-1.07.08C44.4,13.35,44.71,13.2,44.87,13Z"/><path class="cls-2" d="M42.58,11.37c-.18.19-.21.58-.54.53s-.6-.17-.55-.48.14-.65.53-.56A.64.64,0,0,1,42.58,11.37Z"/><path class="cls-2" d="M28.13,6.26c.32,0,.59,0,.53.42s0,.58-.41.52c-.27,0-.58,0-.52-.43C27.76,6.5,27.72,6.17,28.13,6.26Z"/><path class="cls-2" d="M35.46,8.67c-.22-.13-.63,0-.54-.45,0-.23,0-.65.4-.56.22,0,.71,0,.57.47C35.84,8.33,35.88,8.73,35.46,8.67Z"/><path class="cls-2" d="M54.38,27.28c0,.49-.37.44-.6.47-.4.05-.37-.34-.39-.58,0-.41.37-.38.59-.41C54.41,26.69,54.2,27.18,54.38,27.28Z"/><path class="cls-2" d="M47.59,16.75c-.27-.19-.56-.36-.52-.64a.59.59,0,0,1,.58-.5.62.62,0,0,1,.49.58C48.11,16.46,47.8,16.58,47.59,16.75Z"/><path class="cls-2" d="M1.08,49a.59.59,0,0,1-.58.51c-.39.06-.47-.37-.5-.6s.36-.39.59-.43S.88,48.87,1.08,49Z"/><path class="cls-5" d="M10.4,40.8c.44,0,.67-.4.89-.69.46-.58.9-.74,1.44-.13a5.4,5.4,0,0,0,.12,3c-.47.22-.92.62-1.46.16A7.23,7.23,0,0,1,10.4,40.8Z"/><path class="cls-5" d="M39.52,39.82c.53-.45.95-.33,1.38.18.28.32.52.74,1,.8a5.5,5.5,0,0,1-.81,2c-.08,0-.2,0-.23.05-.43.57-.9.51-1.4.12A5,5,0,0,0,39.52,39.82Z"/><path class="cls-5" d="M27.76,50.4c.42.19.41.42.1.74s-.75.56-.88,1a5.56,5.56,0,0,1-1.82,0,1,1,0,0,0-.49-.63.94.94,0,0,1-.34-1.27A3.84,3.84,0,0,0,27.76,50.4Z"/><path class="cls-5" d="M42.06,40.46c-.65-.19-.94-.81-1.42-1.2"/><path class="cls-5" d="M42.2,31.18a2.55,2.55,0,0,1-1.63-1.4c-.26-.42.43-.7.77-1A9.69,9.69,0,0,1,42.2,31.18Z"/><path class="cls-5" d="M14,46.93c.07-.43.26-.61.64-.25s.94,1,1.44,1.43c.26.24.18.47.05.72A9.19,9.19,0,0,1,14,46.93Z"/><path class="cls-5" d="M38.58,46.6c-.46-.26-.56-.54-.11-.94s.86-.86,1.29-1.28c.15-.14.31-.37.52-.06A8.81,8.81,0,0,1,38.58,46.6Z"/><path class="cls-5" d="M27.49,52.14a1.16,1.16,0,0,1,.38-.52c.66-.68.84-.64,1.27.3A4.84,4.84,0,0,1,27.49,52.14Z"/><path class="cls-5" d="M23,51.9c.09-.41.38-.81.73-.74a1.11,1.11,0,0,1,.77.94A4.49,4.49,0,0,1,23,51.9Z"/><path class="cls-5" d="M34.45,50c0-.52.48-.74.79-1s.42,0,.55.19A4.65,4.65,0,0,1,34.45,50Z"/><path class="cls-2" d="M17.18,26l.68,0,2.31.2c.44.18.7.08.83-.41s.31-.81.46-1.21l1.39-2.28.48-.53a5.57,5.57,0,0,1,2.33-1.31l.83,0A5.34,5.34,0,0,1,29,21.7l.48.53,1.33,2.13a1.46,1.46,0,0,0,.32.69c.4,1.2.4,1.19,1.61,1,.57-.08,1.15-.11,1.72-.16l2.17.23a4,4,0,0,1,3.17,3.19V30a11.23,11.23,0,0,1-.87,2.78l-.31.54c-.48.64-.94,1.29-1.45,1.91a.44.44,0,0,0,0,.7c.2.19.37.41.55.61l1.11,1.74c.19.4.38.79.56,1.19l.1.34A5,5,0,0,1,39.47,43l-.19.33a5.05,5.05,0,0,1-2.34,1.65l-.35.07-2.46.23a1.13,1.13,0,0,0-.68-.07l-.82-.06A1,1,0,0,0,32,45c-.27-.1-.43-.05-.56.25-.34.85-.73,1.69-1.1,2.53a9.78,9.78,0,0,1-2.54,2.63,3.84,3.84,0,0,1-3.43-.13A11.92,11.92,0,0,1,22,47.77c-.36-.82-.75-1.63-1.07-2.47-.17-.44-.44-.4-.77-.28L18,45.24,15.53,45,15,44.8a4.84,4.84,0,0,1-2-1.51l-.2-.33a5.4,5.4,0,0,1-.12-3,17.93,17.93,0,0,1,2-3.65c.69-.46.67-.91.1-1.5a13.79,13.79,0,0,1-1.26-1.74l-.15-.27a18.18,18.18,0,0,1-.86-2.48V29.18a4.07,4.07,0,0,1,3-3m14.94,0h0a1.34,1.34,0,0,0-.32-.85,7.79,7.79,0,0,0-1.63-2.76c-1.5-1.71-3.23-1.7-4.74,0a10.4,10.4,0,0,0-2,3.75c0,.37.38.25.57.32a15.51,15.51,0,0,1,2.27.76,3.18,3.18,0,0,0,3.26,0c.85-.48,1.89-.47,2.73-1Zm0,18.78.11-.15c-2.21-.69-4.3-2.33-6.79-.77a7.09,7.09,0,0,1-1.81.57c-.18,0-.34.09-.21.32a8.32,8.32,0,0,0,.85,1.87.36.36,0,0,0,.19.32A4.53,4.53,0,0,0,25,49.5h0a1.83,1.83,0,0,0,1.83.25,1,1,0,0,0,.67-.31,4.67,4.67,0,0,0,2-2.31h0a5.34,5.34,0,0,0,1-2.18Zm6.86-7.34a3.39,3.39,0,0,0-1-1.26,31.32,31.32,0,0,1-2.49,2.12,2.68,2.68,0,0,0-1.31,2.29c0,1.09-.53,2.1-.55,3.2a7.21,7.21,0,0,0,3,.29,1.6,1.6,0,0,0,1-.11,2.86,2.86,0,0,0,2.66-1.69,2.38,2.38,0,0,0,.09-2A7,7,0,0,0,37.33,37.62Zm.73-5.28a1.81,1.81,0,0,0,.43-1c.68-1.62.45-2.81-.71-3.68a.75.75,0,0,0-.5-.31,6.54,6.54,0,0,0-3.65-.46,3.82,3.82,0,0,0-1.67.27c.25,1.47.49,2.94.74,4.41a.57.57,0,0,0,.18.28l3.44,2.92A7.31,7.31,0,0,0,38.06,32.34ZM15,37.62a6.59,6.59,0,0,0-1.41,2.82,2.42,2.42,0,0,0,0,1.87,2.78,2.78,0,0,0,2.55,1.81,2,2,0,0,0,1.17.14,7.3,7.3,0,0,0,3-.29c-.25-1.47-.49-2.95-.75-4.43a.59.59,0,0,0-.18-.27L16,36.38m4.35-9c.18,0,.14-.11,0-.19a4.83,4.83,0,0,0-1.85-.26,5.94,5.94,0,0,0-3.66.59.72.72,0,0,0-.51.35c-1,.92-1.15,2.15-.45,3.66A8,8,0,0,0,16,34.78c1.19-.91,2.21-2,3.45-2.88a.55.55,0,0,0,.19-.35c.24-1.4.47-2.8.71-4.2ZM32,35.65h0c0-.91,0-1.82,0-2.73A1,1,0,0,0,31.5,32a33.16,33.16,0,0,0-4.88-2.8,1,1,0,0,0-.92,0A36.88,36.88,0,0,0,20.89,32a1.13,1.13,0,0,0-.51,1c-.08,1.76-.09,3.53,0,5.3a1.22,1.22,0,0,0,.6,1,47.06,47.06,0,0,0,4.5,2.62,1.3,1.3,0,0,0,1.32,0c1.28-.65,2.5-1.42,3.76-2.09A2.36,2.36,0,0,0,32,37.23,13.87,13.87,0,0,1,32,35.65Zm.8,2.55a25.14,25.14,0,0,0,2.69-2.36c.16-.17.19-.33,0-.5A19.45,19.45,0,0,0,32.79,33,21.38,21.38,0,0,1,32.78,38.2Zm-5.47-9.68c1.56.82,2.92,1.59,4.38,2.54A22.23,22.23,0,0,0,31,27.72c-.08-.3-.24-.39-.55-.3A25.83,25.83,0,0,0,27.31,28.52Zm-2.34,0a17.11,17.11,0,0,0-3.24-1.15c-.24-.07-.36,0-.42.27a17.27,17.27,0,0,0-.66,3.39A46.85,46.85,0,0,1,25,28.55ZM20.65,40.16a17.57,17.57,0,0,0,.66,3.29c.07.26.22.38.48.3a17.92,17.92,0,0,0,3.11-1.11Zm-1.11-7.1a16.17,16.17,0,0,0-2.65,2.28c-.18.17-.17.31,0,.48a19.06,19.06,0,0,0,2.64,2.31A22,22,0,0,1,19.54,33.06Zm7.86,9.6a20.51,20.51,0,0,0,3.08,1.06c.31.09.44,0,.54-.3a19.4,19.4,0,0,0,.61-2.74c.06-.35-.09-.46-.42-.26Z"/><path class="cls-5" d="M13.05,43.29a4.84,4.84,0,0,0,2,1.51.84.84,0,0,1-.58.89c-.34.14-.49-.26-.7-.45s-.64-.66-1-1C12.2,43.74,12.39,43.45,13.05,43.29Z"/><path class="cls-5" d="M32.63,45.11l.82.06c0,.24,0,.54-.31.54S32.66,45.43,32.63,45.11Z"/><path class="cls-5" d="M39.42,39.48c-.18-.4-.37-.79-.56-1.19C39.78,38.64,39.91,38.91,39.42,39.48Z"/><path class="cls-5" d="M17.18,26l-1,.08c0-.32.18-.6.5-.61S17.14,25.68,17.18,26Z"/><path class="cls-4" d="M32,35.65a13.87,13.87,0,0,0,0,1.58,2.36,2.36,0,0,1-1.43,2.58c-1.26.67-2.48,1.44-3.76,2.09a1.3,1.3,0,0,1-1.32,0A47.06,47.06,0,0,1,21,39.25a1.22,1.22,0,0,1-.6-1c-.09-1.77-.08-3.54,0-5.3a1.13,1.13,0,0,1,.51-1,36.88,36.88,0,0,1,4.81-2.75,1,1,0,0,1,.92,0A33.16,33.16,0,0,1,31.5,32a1,1,0,0,1,.45.91c0,.91,0,1.82,0,2.73Zm-4.47-2.57-.37-.2A2.28,2.28,0,0,0,25,33a.72.72,0,0,0-.54.31,2.61,2.61,0,0,0-1,3,2.3,2.3,0,0,0,1.89,1.95,1.71,1.71,0,0,0,1.48,0A2.46,2.46,0,0,0,29,36,2.62,2.62,0,0,0,27.51,33.08Z"/><path class="cls-4" d="M21.75,26.32A11,11,0,0,1,29.8,26c.2.15.4.3.68.19h0l.11.16c-.84.54-1.88.53-2.73,1a3.18,3.18,0,0,1-3.26,0,15.51,15.51,0,0,0-2.27-.76C22.13,26.57,21.79,26.69,21.75,26.32Z"/><path class="cls-4" d="M16,36.38l3.45,2.89a.59.59,0,0,1,.18.27c.26,1.48.5,3,.75,4.43a17.27,17.27,0,0,1-2-1.72l-.12-.14a20.57,20.57,0,0,1-1.56-2.64l-.44-1.33Z"/><path class="cls-4" d="M21.77,44.93c-.13-.23,0-.27.21-.32A7.09,7.09,0,0,0,23.79,44c2.49-1.56,4.58.08,6.79.77l-.11.15h0a4,4,0,0,0-1.5.5,3.38,3.38,0,0,0-1.17.23,13,13,0,0,1-3.47,0L23,45.32A2.51,2.51,0,0,0,21.77,44.93Z"/><path class="cls-4" d="M32,44c0-1.1.51-2.11.55-3.2a2.68,2.68,0,0,1,1.31-2.29,31.32,31.32,0,0,0,2.49-2.12c-.11.76-.23,1.52-.35,2.29l-.18.49a.69.69,0,0,0-.2.47l-1.51,2.5-.3.33Z"/><path class="cls-4" d="M36.32,34.79l-3.44-2.92a.57.57,0,0,1-.18-.28c-.25-1.47-.49-2.94-.74-4.41l1,.71L34.77,30a1,1,0,0,0,.32.53,18.54,18.54,0,0,1,1,2.77.41.41,0,0,0,.11.36Z"/><path class="cls-4" d="M20.35,27.35c-.24,1.4-.47,2.8-.71,4.2a.55.55,0,0,1-.19.35c-1.24.85-2.26,2-3.45,2.88l.16-1.3a16.64,16.64,0,0,1,1.18-3.13.09.09,0,0,0,0-.11l2-2.37C19.77,27.8,19.93,27.34,20.35,27.35Z"/><path class="cls-4" d="M32.78,38.2a21.38,21.38,0,0,0,0-5.18,19.45,19.45,0,0,1,2.7,2.32c.17.17.14.33,0,.5A25.14,25.14,0,0,1,32.78,38.2Z"/><path class="cls-4" d="M27.31,28.52a25.83,25.83,0,0,1,3.18-1.1c.31-.09.47,0,.55.3a22.23,22.23,0,0,1,.65,3.34C30.23,30.11,28.87,29.34,27.31,28.52Z"/><path class="cls-4" d="M25,28.55a46.85,46.85,0,0,0-4.32,2.51,17.27,17.27,0,0,1,.66-3.39c.06-.23.18-.34.42-.27A17.11,17.11,0,0,1,25,28.55Z"/><path class="cls-4" d="M20.65,40.16l4.25,2.48a17.92,17.92,0,0,1-3.11,1.11c-.26.08-.41,0-.48-.3A17.57,17.57,0,0,1,20.65,40.16Z"/><path class="cls-4" d="M19.54,33.06a22,22,0,0,0,0,5.07,19.06,19.06,0,0,1-2.64-2.31c-.17-.17-.18-.31,0-.48A16.17,16.17,0,0,1,19.54,33.06Z"/><path class="cls-4" d="M27.4,42.66l3.81-2.24c.33-.2.48-.09.42.26A19.4,19.4,0,0,1,31,43.42c-.1.3-.23.39-.54.3A20.51,20.51,0,0,1,27.4,42.66Z"/><path class="cls-6" d="M30.48,26.18c-.28.11-.48,0-.68-.19,0-.28.27-.43.36-.66A1.34,1.34,0,0,1,30.48,26.18Z"/><path class="cls-4" d="M20.34,27.35l0-.19C20.48,27.24,20.52,27.31,20.34,27.35Z"/><path class="cls-6" d="M30.58,26.34l-.11-.16Z"/><path class="cls-5" d="M30.47,45l.11-.15Z"/><path class="cls-5" d="M32.93,27.89c.06-.1.19-.22.26-.15.62.58,1.24,1.17,1.82,1.79.21.22,0,.38-.24.49Z"/><path class="cls-5" d="M17.34,30.35a16.64,16.64,0,0,0-1.18,3.13"/></g></g></svg>