<?xml version="1.0" encoding="UTF-8"?>
<svg width="120px" height="113px" viewBox="0 0 120 113" version="1.1" xmlns="http://www.w3.org/2000/svg" xmlns:xlink="http://www.w3.org/1999/xlink">
    <title>Group 14</title>
    <defs>
        <polygon id="path-1" points="0 1.76181818 54.2414544 1.76181818 54.2414544 49.9212285 0 49.9212285"></polygon>
        <polygon id="path-3" points="0.857607754 0.0820454545 51.7919848 0.0820454545 51.7919848 37.4242424 0.857607754 37.4242424"></polygon>
        <polygon id="path-5" points="0.0146818182 1.94316762 37.4156061 1.94316762 37.4156061 38.0863636 0.0146818182 38.0863636"></polygon>
    </defs>
    <g id="Mockup" stroke="none" stroke-width="1" fill="none" fill-rule="evenodd">
        <g id="Group-14">
            <ellipse id="Oval" fill-opacity="0.284582605" fill="#000000" cx="60" cy="99.5" rx="60" ry="13.5"></ellipse>
            <g id="Group-26" transform="translate(1.000000, 0.000000)">
                <path d="M47.1985909,9.30769697 C46.4184394,8.4210303 43.9743485,9.70209091 42.624197,9.48618182 C42.2528333,9.42572727 41.5129848,10.148303 41.1732879,10.3123939 C39.949803,10.8967879 38.8846515,11.7201212 37.9029848,12.6586061 C36.9731364,13.5366364 36.5067727,13.8475455 36.0778333,13.5136061 C35.3149545,12.917697 32.7672273,3.71421212 32.064803,4.38209091 C32.0129848,4.4310303 28.1985909,5.5710303 26.0999545,7.41345455 C23.6385909,8.36057576 21.2060152,9.37390909 18.8223788,10.5081515 C18.4654091,10.6146667 18.0969242,10.6952727 17.7543485,10.8363333 C13.1511667,12.7248182 8.55662121,14.6363333 3.94768182,16.5161818 C1.72813636,17.4258788 1.27904545,18.4737576 2.20313636,20.7019394 C4.13768182,25.3886061 6.05783333,30.0810303 7.99237879,34.767697 C9.80313636,39.1520909 11.6110152,43.5364848 13.444803,47.9093636 C13.649197,48.393 13.6837424,49.2048182 14.6625303,48.7816364 C16.5135909,47.9784545 18.3963182,47.2414848 20.2675303,46.4872424 C20.8001061,46.2742121 20.9123788,46.0266364 20.4805606,45.5717879 C20.1293485,45.2004242 19.8357121,44.7657273 19.5363182,44.3454242 C16.7410152,40.4504242 16.8187424,36.5439091 19.7522273,32.8792121 C23.4888939,29.9054242 27.5825303,28.1551212 32.4793485,29.1799697 C32.4764697,24.5537576 32.4707121,19.9275455 32.4678333,15.3013333 C32.4707121,19.9275455 32.4764697,24.5537576 32.4793485,29.1799697 C32.9716212,29.4505758 33.4984394,29.6693636 33.9504091,29.9946667 C36.6046515,31.8975455 37.7820758,34.6323939 38.0958636,37.7645152 C38.1995,38.7893636 38.4816212,39.0225455 39.3625303,38.5619394 C39.6532879,38.4093636 39.964197,38.3057273 40.2779848,38.2049697 C41.2337424,37.8825455 45.5835909,37.0102727 45.2640455,36.0545152 C44.6796515,34.3243636 45.1920758,34.5949697 44.5587424,32.8849697 C44.3687424,32.3754242 43.8908636,31.4081515 43.5857121,30.7258788 C44.9157121,30.9014848 41.5101061,29.1137576 42.6501061,29.1051212 C41.9707121,27.0986061 41.5993485,26.6725455 43.7152576,26.6523939 C45.0481364,26.638 46.3464697,26.4249697 47.5843485,25.9442121 C48.0535909,25.7628485 51.2145,24.5278485 51.5052576,24.1161818 C54.4963182,19.893 51.4822273,11.2307273 47.1985909,9.30769697" id="Fill-1" fill="#669999"></path>
                <g id="Group-5" transform="translate(0.000000, 1.118121)">
                    <mask id="mask-2" fill="white">
                        <use xlink:href="#path-1"></use>
                    </mask>
                    <g id="Clip-4"></g>
                    <path d="M19.3920909,39.1279091 C19.3661818,39.4157879 20.6386061,41.7763939 20.8919394,41.9347273 C21.2690606,42.8703333 21.9714848,43.5698788 22.6998182,44.2176061 C23.6411818,45.0524545 23.6786061,45.7318485 22.5443636,46.376697 C22.173,46.5350303 21.7987576,46.6933636 21.4273939,46.851697 C19.458303,47.6635152 17.4920909,48.4753333 15.523,49.2871515 C15.0767879,49.3159394 14.7054242,49.5030606 14.3858788,49.8110909 C13.8273939,49.9003333 13.2717879,50.0241212 12.7219394,49.7707879 C12.6413333,49.6009394 12.5578485,49.4310909 12.4801212,49.2641212 C12.3045152,48.4609394 11.967697,47.7210909 11.5358788,47.027303 C11.3948182,46.3162424 11.1443636,45.6454848 10.7413333,45.0380606 C10.718303,44.8653333 10.637697,44.7415455 10.447697,44.7213939 L10.5023939,44.7213939 C10.5110303,44.0909394 10.2720909,43.5468485 9.91512121,43.0430606 C9.79421212,42.7638182 9.67042424,42.4874545 9.54951515,42.2082121 C8.85284848,40.0807879 7.93451515,38.0454848 7.02193939,36.0044242 C6.84921212,35.6244242 6.67648485,35.2444242 6.50087879,34.8644242 C4.57209091,30.1259394 2.66057576,25.3788182 0.705878788,20.6518485 C-0.756545455,17.1080606 -0.0023030303,15.1389697 3.4810303,13.696697 C12.8543636,9.81033333 22.2449697,5.95563636 31.6067879,2.03760606 C32.8331515,1.52518182 33.4607273,1.66048485 33.9472424,2.97609091 C34.8108788,5.30790909 35.8357273,7.58215152 36.8289091,9.96578788 C38.0610303,9.12230303 39.1837576,8.2039697 40.5108788,7.58790909 C45.2407273,5.38563636 49.193303,6.57457576 51.8158788,11.0971515 C53.1717879,13.4347273 54.1563333,15.9162424 54.2369394,18.6712424 C54.3348182,21.8753333 52.8378485,24.1351818 50.0828485,25.6494242 C48.2404242,26.6598788 46.2396667,27.1032121 44.0201212,27.3047273 C44.9902727,29.6394242 45.9345152,31.882 46.8528485,34.1360909 C47.5207273,35.7683636 47.4113333,36.0101818 45.8164848,36.6751818 C43.3436061,37.7057879 40.8736061,38.7421515 38.3920909,39.7439697 C36.8461818,40.3715455 36.4201212,40.0750303 36.4661818,38.4542727 C36.5208788,36.482303 36.0689091,34.6312424 35.1851212,32.8809394 C33.9846667,30.5030606 32.0875455,29.1701818 29.3872424,29.4926061 C25.7110303,29.9330606 22.3428485,31.1047273 20.0570909,34.3059394 C19.8411818,34.4901818 18.9401212,36.4736667 19.1992121,37.7691212 M29.0417879,5.17548485 C25.552697,6.38169697 22.1528485,7.80381818 18.8220909,9.38715152 C18.4651212,9.49654545 18.0966364,9.57715152 17.7540606,9.71821212 C13.1508788,11.606697 8.55633333,13.5182121 3.94739394,15.3980606 C1.72784848,16.3077576 1.27875758,17.3556364 2.20284848,19.5838182 C4.14027273,24.2704848 6.06042424,28.9629091 7.9949697,33.6495758 C9.80284848,38.0339697 11.6107273,42.4183636 13.4445152,46.7912424 C13.6489091,47.2748788 13.6834545,48.086697 14.6622424,47.6635152 C16.513303,46.8603333 18.3960303,46.1233636 20.2672424,45.3691212 C20.7998182,45.1560909 20.9120909,44.9085152 20.4802727,44.4536667 C20.1290606,44.082303 19.8354242,43.6476061 19.5360303,43.227303 C16.7436061,39.332303 16.8184545,35.4257879 19.7519394,31.7582121 C23.4886061,28.7844242 27.5822424,27.037 32.4790606,28.0618485 C32.9713333,28.3324545 33.4981515,28.5512424 33.953,28.8736667 C36.6043636,30.7794242 37.7817879,33.5142727 38.0955758,36.6463939 C38.1992121,37.6712424 38.4813333,37.9044242 39.3622424,37.4438182 C40.1769394,37.0177576 40.3352727,37.0926061 41.9042121,36.3786667 C43.3061818,36.0044242 43.8473939,35.5495758 44.8520909,35.1983636 C45.1975455,35.0745758 45.2666364,34.8154848 45.1313333,34.5276061 C44.0834545,32.2907879 43.4270909,29.8754848 42.1287576,27.7480606 C41.4493636,25.7444242 41.5990606,25.5544242 43.7149697,25.5342727 C45.312697,25.517 46.8614848,25.2147273 48.3095152,24.5094242 C51.6690606,23.2110909 53.0105758,20.7900303 52.3484545,17.2894242 C51.9886061,15.3721515 51.2804242,13.5901818 50.2843636,11.9233636 C48.1713333,8.38821212 45.6955758,7.52169697 41.8149697,8.9150303 C40.318,9.49942424 39.0542121,10.4436667 37.8998182,11.5404848 C36.4258788,12.9395758 36.1178485,12.8963939 35.2714848,11.1115455 C34.6064848,8.72215152 33.4348182,6.53139394 32.5539091,4.22260606 C32.3696667,3.7389697 32.0616364,3.71018182 31.673,3.91169697 C30.8093636,4.36366667 29.7989091,4.50472727 29.0417879,5.17548485" id="Fill-3" fill="#000000" mask="url(#mask-2)"></path>
                </g>
                <g id="Group-8" transform="translate(43.181818, 61.572667)">
                    <mask id="mask-4" fill="white">
                        <use xlink:href="#path-3"></use>
                    </mask>
                    <g id="Clip-7"></g>
                    <path d="M45.5680455,35.6897727 C49.4457727,35.8538636 50.0503182,35.2867424 50.0503182,31.4867424 L50.0503182,5.11704545 C50.0503182,1.74022727 50.0503182,1.74022727 46.6850152,1.85537879 C45.5565303,1.84386364 44.4251667,1.85825758 43.293803,1.81219697 C42.5539545,1.78340909 42.4186515,2.02522727 42.6575909,2.71901515 C43.2333485,4.38295455 43.4147121,6.12174242 43.2391061,7.86628788 C42.9512273,10.6990152 41.8313788,13.0912879 39.0475909,14.2370455 C35.0201667,15.8981061 30.9380455,15.9211364 26.8818333,14.2456818 C25.4942576,13.3331061 24.2880455,12.2938636 23.6345606,10.6731061 C22.6183485,8.15128788 22.693197,5.61507576 23.453197,3.09325758 C23.7986515,1.94174242 23.4791061,1.7575 22.4197121,1.80356061 C20.7298636,1.87840909 19.0313788,1.86689394 17.3386515,1.80643939 C16.4289545,1.77477273 16.1007727,2.04825758 16.123803,2.99537879 C16.1813788,5.39340909 16.1525909,7.79143939 16.1410758,10.1923485 C16.1324394,11.7267424 15.8675909,11.9023485 14.3591061,11.4417424 C13.1989545,11.0876515 12.1050152,10.5176515 10.8815303,10.3823485 C6.89728788,9.93901515 3.52622727,11.2920455 2.81804545,16.1600758 C2.55031818,17.9996212 2.57334848,19.7873485 2.84395455,21.6153788 C3.36213636,25.087197 5.64213636,27.1455303 9.13698485,27.2549242 C11.0657727,27.3153788 12.8304697,26.7511364 14.5778939,26.0458333 C15.6862273,25.5996212 16.1612273,25.9882576 16.1497121,27.1656818 C16.1266818,29.6587121 16.1641061,32.1517424 16.1324394,34.6476515 C16.1209242,35.3990152 16.2994091,35.7531061 17.1457727,35.7418628 C20.3901667,35.6897727 23.6374394,35.6984091 26.8818333,35.6868939 C33.1115303,35.6897727 39.3383485,35.6897727 45.5680455,35.6897727 M51.7027424,0.660681818 L51.7919848,2.10583333 C51.7919848,2.58083333 51.7891061,3.05583333 51.7891061,3.52795455 C51.7747121,13.1287121 51.7603182,22.7265909 51.7459242,32.3244697 C51.7430455,35.9287121 50.2316818,37.4285606 46.5842576,37.425686 C36.0421364,37.4112879 25.5000152,37.3968939 14.9607727,37.3796212 C14.5030455,36.9190152 14.3994091,36.3375 14.4022879,35.7214394 C14.4166818,33.7926515 14.4368333,31.8667424 14.4425909,29.9408333 C14.4512273,28.1559848 14.4454697,28.1617424 12.7700152,28.5734091 C12.3151667,28.682803 11.8516818,28.7605303 11.388197,28.8411364 C6.17759091,29.7479545 2.51577273,27.4593182 1.17137879,22.4415909 C0.641681818,20.4667424 0.946833333,18.4515909 0.929560606,16.4537121 C0.906530303,13.6440152 2.99940909,10.4370455 5.58456061,9.33734848 C8.18122727,8.23189394 10.8210758,8.42189394 13.4378939,9.19916667 C14.2612273,9.44386364 14.4886515,9.33159091 14.4627424,8.45356061 C14.3994091,6.24840909 14.4166818,4.0375 14.4022879,1.83234848 C14.428197,1.44371212 14.4512273,1.05219697 14.4771364,0.663560606 C14.9607727,0.225984848 15.5307727,0.0561363636 16.1727424,0.0964393939 C19.0313788,0.105075758 21.8900152,0.10219697 24.7515303,0.133863636 C25.9750152,0.145378788 26.2859242,0.605984848 25.7447121,1.71143939 C25.1775909,2.86295455 24.8350152,4.08356061 24.7025909,5.31856061 C24.2765303,9.30568182 25.3157727,12.1556818 29.3489545,13.2294697 C30.4745606,13.5288636 31.6260758,13.7764394 32.8150152,13.6411364 C34.3378939,13.7994697 35.8204697,13.5605303 37.2598636,13.1114394 C39.4995606,12.4147727 40.933197,10.9667424 41.3880455,8.58022727 C41.8400152,6.21962121 41.3909242,4.02022727 40.4639545,1.86113636 C39.9083485,0.568560606 40.1875909,0.151136364 41.5866818,0.128106061 C43.2794091,0.105075758 44.9692576,0.0964393939 46.6619848,0.0820454545 C47.7875909,0.0878030303 48.9103182,0.0906818182 50.0330455,0.0964393939 C50.6663788,0.0590151515 51.2306212,0.220227273 51.7027424,0.660681818" id="Fill-6" fill="#000000" mask="url(#mask-4)"></path>
                </g>
                <path d="M57.5852576,97.2932424 C57.5823788,97.909303 57.6860152,98.4908182 58.1408636,98.954303 C47.4519242,98.968697 36.7629848,99.0003636 26.0740455,98.9802121 C23.8113182,98.9744545 22.0437424,97.1780909 22.0351061,94.9038485 C22.0063182,84.3099091 22.0264697,73.7130909 22.0120602,63.1191515 C22.009197,62.094303 22.4064697,61.6711212 23.4370758,61.6883939 C25.7890455,61.7229394 28.1438939,61.6797576 30.4987424,61.7085455 C31.2040455,61.7200606 31.3882879,61.5847576 31.1349545,60.8449091 C30.6426818,59.4141515 30.464197,57.9229394 30.4901061,56.4000606 C30.5649545,52.1941515 32.8420758,49.3499091 36.9357121,48.4862727 C39.4085909,47.9680909 41.9016212,47.9680909 44.3716212,48.4776364 C49.1590455,49.473697 51.6232879,53.4061212 50.7337424,58.6167273 C50.5696515,59.584 50.3019242,60.5311212 50.0370758,61.6883939 L57.5881364,61.6883939 C57.6140455,61.8697576 57.6370758,62.054 57.6601061,62.2353636 C57.634197,62.6268788 57.6082879,63.0155152 57.5852576,63.4041515 C54.8129848,63.4012727 52.0435909,63.4070303 49.2713182,63.3926364 C47.7340455,63.3868788 47.4490455,62.9982424 48.0535909,61.6452121 C48.5775303,60.4764242 48.8884394,59.2529394 49.0928333,58.0064242 C49.7376818,54.1085455 47.8031364,51.0224848 44.1557121,50.2135455 C42.8372273,49.9199091 41.484197,49.6896061 40.1110152,49.8738485 C38.7810152,49.8335455 37.4913182,50.0667273 36.244803,50.5014242 C34.1749545,51.2211212 32.9140455,52.6518788 32.4217727,54.8253636 C31.8863182,57.1888485 32.3872273,59.3882424 33.2623788,61.5530909 C33.8669242,63.0414242 33.6452576,63.3897576 32.0245,63.3955152 C29.6696515,63.4070303 27.314803,63.4271818 24.9599545,63.3868788 C24.1078333,63.3696061 23.6990455,63.5279394 23.7019242,64.5268788 C23.7364697,74.458697 23.7163182,84.3933939 23.7307121,94.3280909 C23.7335909,96.254 24.6864697,97.2730909 26.5519242,97.2846061 C31.0716212,97.3105152 35.5913182,97.2702121 40.1110152,97.258697 C45.934803,97.2702121 51.7614697,97.2817273 57.5852576,97.2932424" id="Fill-9" fill="#000000"></path>
                <g id="Group-13" transform="translate(57.575758, 24.148424)">
                    <mask id="mask-6" fill="white">
                        <use xlink:href="#path-5"></use>
                    </mask>
                    <g id="Clip-12"></g>
                    <path d="M0.0837727273,38.0863636 C0.0607424242,37.905 0.0377121212,37.7236364 0.0146818182,37.5393939 C0.0261969697,34.7613636 0.0348333333,31.9862121 0.0521060606,29.2081818 C0.0607424242,27.645 0.466651515,27.3830303 1.92907576,28.0336364 C3.68225758,28.8137879 5.50740909,29.1765152 7.41892424,29.0584848 C10.4215,28.8742424 12.2927121,27.3801515 13.1189242,24.4725758 C13.8271061,21.9709091 13.8213485,19.4404545 13.1908939,16.9387879 C12.2696818,13.2942424 9.30740909,11.5554545 5.24831818,12.2060606 C4.03922727,12.3989394 2.87043939,12.7242424 1.74771212,13.2395455 C0.524227273,13.7980303 0.0665,13.5043939 0.0578636364,12.214697 C0.0377121212,9.24666667 0.0636212121,6.28151515 0.0405909091,3.31636364 C0.0348333333,2.375 0.403318182,1.94030303 1.37634848,1.94316762 C12.0163485,1.95469697 22.6563485,1.92878788 33.2992273,1.96621212 C35.6195303,1.97484848 37.3122576,3.80575758 37.346803,6.18075758 C37.3899848,9.2869697 37.3813485,12.3931818 37.3928636,15.4993939 C37.4015,15.8851515 37.4072576,16.2709091 37.4158939,16.6566667 L37.4158939,19.4548485 C37.4072576,19.8406061 37.4015,20.2263636 37.3928636,20.6121212 L37.3928636,25.6701515 C37.4015,26.0559091 37.4072576,26.4416667 37.4158939,26.8274242 L37.4158939,29.6284848 C37.4072576,30.0113636 37.4015,30.4 37.3928636,30.7828788 L37.3928636,35.8409091 L37.4158939,37.0010606 C37.3784697,37.3637879 37.3439242,37.7236364 37.3093788,38.0863636 C36.8372576,37.6459091 36.2701364,37.4818182 35.6396818,37.5221212 C35.6454394,32.49 35.651197,27.4578788 35.6540758,22.4257576 C35.6569545,17.1575758 35.6627121,11.8893939 35.6483182,6.62121212 C35.6454394,4.62621212 34.6896818,3.67621212 32.7205909,3.65030303 C32.2052879,3.64454545 31.6871061,3.67333333 31.171803,3.68772727 C26.9198333,3.68772727 22.6707424,3.68772727 18.4216515,3.68772727 C13.1995303,3.67621212 7.97740909,3.67045455 2.75528788,3.64166667 C2.0615,3.63590909 1.72180303,3.80575758 1.73907576,4.5830303 C1.77937879,6.51181818 1.78513636,8.44060606 1.73619697,10.3693939 C1.71316667,11.2992424 2.12195455,11.21 2.75816667,10.9940909 C4.38468182,10.45 6.07165152,10.2916667 7.76725758,10.4471212 C10.6086212,10.7119697 12.9231667,11.8634848 14.1610455,14.6012121 C15.7271061,18.0557576 15.6925606,21.6542424 14.7108939,25.2066667 C13.7378636,28.7245455 10.8216515,30.6993939 7.14831818,30.7886364 C5.34331818,30.8318182 3.61892424,30.4662121 1.77937879,29.9595455 L1.77937879,37.5192424 C1.13740909,37.4789394 0.564530303,37.6516667 0.0837727273,38.0863636" id="Fill-11" fill="#000000" mask="url(#mask-6)"></path>
                </g>
                <path d="M10.7416212,46.1570455 C10.6437424,46.0505303 10.5458636,45.9468939 10.4479848,45.8403788 C10.6379848,45.8605303 10.7185909,45.9814394 10.7416212,46.1570455" id="Fill-14" fill="#FEFEFE"></path>
                <path d="M88.7498636,97.2624394 C89.5933485,96.2347121 89.8553182,95.0572879 89.8524394,93.7301667 C89.8322879,83.6313788 89.8553182,73.5297121 89.8668333,63.4280455 C93.2321364,63.3128939 93.2321364,63.3128939 93.2321364,66.6897121 L93.2321364,93.0594091 C93.2321364,96.8594091 92.6275909,97.4265303 88.7498636,97.2624394" id="Fill-16" fill="#FEFEFE"></path>
                <path d="M89.8449545,61.6544242 C89.8420758,51.5585152 89.8276818,41.4597273 89.8535909,31.3638182 C89.8564697,30.036697 89.6060152,28.8592727 88.7481364,27.8344242 C89.2634394,27.8229091 89.7816212,27.7912424 90.2969242,27.7998788 C92.2631364,27.8257879 93.2217727,28.7757879 93.2246515,30.7707879 C93.2390455,36.0389697 93.2332879,41.3071515 93.2304091,46.5724545 C93.2275303,51.6045758 93.2188939,56.636697 93.2131364,61.6688182 C92.0904091,61.6630606 90.9676818,61.6601818 89.8449545,61.6544242" id="Fill-18" fill="#FEFEFE"></path>
                <path d="M55.9532727,90.1455 C55.4984242,90.2577727 55.0349394,90.3326212 54.5714545,90.4132273 C49.3579697,91.3200455 45.6961515,89.0314091 44.3517576,84.0165606 C43.8220606,82.0417121 44.1300909,80.0236818 44.1128182,78.025803 C44.0897879,75.2161061 46.1826667,72.0091364 48.7678182,70.9094394 C51.3616061,69.8039848 54.0014545,69.9939848 56.6211515,70.7741364 C57.4416061,71.0159545 57.6690303,70.9036818 57.6431212,70.0256515 C57.5797879,67.8205 57.5999394,65.6124697 57.5855455,63.4044394 C54.8132727,63.4015606 52.0438788,63.4044394 49.2716061,63.3929242 C47.7343333,63.3871667 47.4493333,62.9985303 48.0538788,61.6455 C48.5778182,60.4767121 48.8858485,59.2532273 49.0931212,58.0067121 C49.7379697,54.1059545 47.8005455,51.0198939 44.156,50.2138333 C42.8375152,49.920197 41.4844848,49.6898939 40.111303,49.8741364 C38.781303,49.8338333 37.4887273,50.0670152 36.2450909,50.5017121 C34.1752424,51.2214091 32.9143333,52.6521667 32.4220606,54.8227727 C31.8866061,57.1891364 32.3846364,59.3856515 33.2626667,61.5533788 C33.8672121,63.0417121 33.6455455,63.3900455 32.0219091,63.395803 C29.6699394,63.4044394 27.3150909,63.4274697 24.9602424,63.3871667 C24.1081212,63.3698939 23.6993333,63.5253485 23.702197,64.5271667 C23.7367576,74.4589848 23.7166061,84.3936818 23.731,94.3283788 C23.7338788,96.2542879 24.6867576,97.2733788 26.5522121,97.2820152 C31.0719091,97.310803 35.5916061,97.2705 40.111303,97.2589848 C45.9350909,97.2705 51.7588788,97.2820152 57.5855455,97.2906515 C57.5999394,95.3647424 57.6200909,93.4417121 57.6258485,91.515803 C57.6344848,89.7280758 57.6287273,89.7338333 55.9532727,90.1455" id="Fill-20" fill="#F0B553"></path>
                <path d="M92.2654394,27.9101364 C88.8886212,27.6452879 86.1221061,27.7489242 83.3325606,27.8381667 L75.9974091,27.8381667 C70.7752879,27.8237727 65.5531667,27.8208939 60.3310455,27.7892273 C59.6401364,27.7863485 59.2975606,27.956197 59.3148333,28.7305909 C59.3551364,30.6593788 59.3608939,32.5881667 59.3119545,34.5169545 C59.2889242,35.4496818 59.6977121,35.3575606 60.3339242,35.1445303 C61.9604394,34.5975606 63.6474091,34.4421061 65.3430152,34.5975606 C68.1843788,34.8595303 70.4989242,36.0110455 71.736803,38.7487727 C73.3028636,42.206197 73.2683182,45.801803 72.2866515,49.3542273 C71.3136212,52.8721061 68.3974091,54.8469545 64.7240758,54.9390758 C62.9190758,54.9822576 61.1946818,54.6137727 59.3551364,54.1071061 L59.3551364,61.6696818 C62.2137727,61.6783182 65.0724091,61.6754394 67.9310455,61.7071061 C69.1574091,61.7186212 69.4683182,62.1792273 68.9271061,63.2846818 C68.3599848,64.436197 68.0174091,65.656803 67.8849848,66.891803 C67.4560455,70.8789242 68.4981667,73.7289242 72.5313485,74.8027121 C73.6569545,75.1021061 74.8084697,75.3496818 75.9974091,75.2143788 C77.5174091,75.3727121 79.0028636,75.1308939 80.4422576,74.6846818 C82.6790758,73.9851364 84.1127121,72.5371061 84.5704394,70.1534697 C85.0224091,67.7928636 84.5733182,65.5934697 83.6463485,63.4343788 C83.0907424,62.141803 83.3699848,61.7243788 84.7690758,61.7013485 C85.7881667,61.6869545 86.8072576,61.681197 87.8263485,61.6725606 C87.9558939,61.7387727 88.1055909,61.7790758 88.2869545,61.776197 C89.9796818,61.7502879 91.6695303,61.7445303 93.3622576,61.7301364 C93.3593788,51.6313485 93.3449848,41.5354394 93.3737969,31.4395303 C93.3766515,30.1124091 93.1233182,28.9321061 92.2654394,27.9101364" id="Fill-22" fill="#FC5959"></path>
                <path d="M93.2931667,63.4648939 C92.1646818,63.4533788 92.0696818,63.300803 90.941197,63.3468636 C90.5813485,63.3641364 89.4471061,63.3238333 88.7648333,63.4130758 C88.0019545,63.410197 87.2390758,63.4159545 86.4790758,63.3871667 C85.7363485,63.3555 85.6010455,63.5973182 85.8399848,64.2939848 C86.4157424,65.9579242 86.5971061,67.6967121 86.4215,69.4412576 C86.1336212,72.2711061 85.0137727,74.6633788 82.2299848,75.8120152 C78.2025606,77.4730758 74.1204394,77.4961061 70.0642273,75.8206515 C68.6766515,74.9080758 67.4704394,73.8659545 66.8169545,72.245197 C65.8007424,69.7233788 65.8755909,67.1871667 66.6355909,64.6653485 C66.9810455,63.5167121 66.6615,63.3295909 65.6021061,63.3756515 C63.9093788,63.4533788 62.2137727,63.4418636 60.5210455,63.3814091 C59.6113485,63.3468636 59.2831667,63.6203485 59.306197,64.5674697 C59.3637727,66.9655 59.3349848,69.3635303 59.3234697,71.7644394 C59.3148333,73.3017121 59.0471061,73.4744394 57.5415,73.0138333 C56.3813485,72.6597424 55.2874091,72.0926212 54.0639242,71.9544394 C50.0796818,71.5111061 46.7057424,72.8670152 46.0004394,77.7350455 C45.7327121,79.5717121 45.7557424,81.3594394 46.0263485,83.1874697 C46.5445303,86.6592879 48.8245303,88.7176212 52.3193788,88.8270152 C54.2481667,88.8903485 56.0128636,88.3232273 57.7602879,87.6179242 C58.8686212,87.1717121 59.3436212,87.5632273 59.3321061,88.7377727 C59.3090758,91.2336818 59.3465,93.7267121 59.3148333,96.2168636 C59.3033182,96.9711061 59.4846818,97.325197 60.3281667,97.3136818 C63.5725606,97.2647424 66.8198333,97.2733788 70.0642273,97.2589848 C71.2071061,97.2589848 72.3499848,97.2618636 73.4928636,97.2618636 L73.4928636,97.2964091 C79.7196818,97.2964091 85.4887727,97.4432273 91.7155909,97.4432273 C93.4371061,96.6083788 93.2816515,95.0970152 93.2787727,93.7698939 C93.2586212,83.6682273 93.2845303,73.5665606 93.2931667,63.4648939" id="Fill-24" fill="#C68C65"></path>
            </g>
        </g>
    </g>
</svg>