<?xml version="1.0" encoding="UTF-8"?>
<svg width="80px" height="83px" viewBox="0 0 80 83" version="1.1" xmlns="http://www.w3.org/2000/svg" xmlns:xlink="http://www.w3.org/1999/xlink">
    <title>Group 27</title>
    <defs>
        <polygon id="path-1" points="0.000387096774 2.09641909 57.5671964 2.09641909 57.5671964 80 0.000387096774 80"></polygon>
    </defs>
    <g id="Mockup" stroke="none" stroke-width="1" fill="none" fill-rule="evenodd">
        <g id="Group-27">
            <g id="Group-24" transform="translate(0.000000, 0.000000)">
                <g id="Group-3" transform="translate(0.000000, 0.484645)">
                    <mask id="mask-2" fill="white">
                        <use xlink:href="#path-1"></use>
                    </mask>
                    <g id="Clip-2"></g>
                    <path d="M54.1042581,66.9465806 C51.9494194,69.4498065 49.6423226,70.7375484 47.0590968,71.3181935 C45.2061935,71.7362581 43.2397419,71.7569032 41.3197419,71.7620645 C29.7713548,71.8007742 18.2229677,71.7852903 6.672,71.7827097 C4.90941935,71.7827097 3.25522581,72.1620645 3.14683871,74.2446452 C3.05135484,76.0872258 4.33135484,76.9285161 6.10941935,76.9285161 C18.9739355,76.9181935 31.8436129,77.0369032 44.7055484,76.8098065 C49.9210323,76.7194839 53.8049032,72.4820645 54.1042581,66.9465806 M40.548129,36.820129 C40.548129,46.5388387 40.6074839,56.260129 40.5016774,65.9788387 C40.4810323,68.1181935 41.1287742,68.7581935 43.2474839,68.6910968 C49.8384516,68.4820645 54.2642581,64.5027097 54.3287742,57.9504516 C54.4732903,43.9814194 54.468129,30.0072258 54.3416774,16.0356129 C54.2823226,9.41109677 49.6784516,5.25367742 43.0539355,5.1323871 C41.072,5.09625806 40.4836129,5.66141935 40.5042581,7.66141935 C40.6023226,17.380129 40.548129,27.1014194 40.548129,36.820129 M30.4165161,31.5143226 C28.5042581,30.9775484 28.8578065,29.380129 28.8526452,28.0227097 C28.8242581,21.1375484 28.788129,14.2523871 28.8732903,7.36980645 C28.8939355,5.64851613 28.3649032,5.11690323 26.6436129,5.14012903 C20.2668387,5.23045161 13.8874839,5.16851613 7.50554839,5.17883871 C3.68103226,5.18658065 3.08232258,5.7723871 3.07974194,9.5556129 C3.06941935,23.1220645 3.07458065,36.6859355 3.07458065,50.2523871 C3.07458065,55.8214194 3.04877419,61.3904516 3.10554839,66.9569032 C3.11587097,67.7336774 2.39587097,69.1143226 4.33651613,68.9388387 C11.6113548,68.2885161 18.9016774,68.7246452 26.1868387,68.7065806 C28.3545806,68.7014194 28.9171613,68.0072258 28.8836129,65.9272258 C28.7674839,59.147871 28.8242581,52.3633548 28.8526452,45.5788387 C28.8578065,44.2214194 28.5016774,42.624 30.4165161,42.0898065 C32.1997419,42.5749677 31.8797419,44.0562581 31.8849032,45.3181935 C31.9107097,52.2085161 31.9984516,59.1014194 31.8436129,65.9891613 C31.7894194,68.3556129 32.5997419,68.8743226 34.8036129,68.8614194 C36.9378065,68.8459355 37.5417753,68.1930323 37.5339355,66.0769032 C37.4590968,46.6214194 37.4513548,27.1659355 37.5417753,7.71045161 C37.552,5.4523871 36.7468387,5.03948387 34.7416774,5.08851613 C32.8887742,5.1323871 31.7816774,5.19948387 31.8410323,7.60980645 C32.0061935,14.4975484 31.9107097,21.3904516 31.8849032,28.2833548 C31.8797419,29.5427097 32.1971613,31.024 30.4165161,31.5143226 M57.5365161,41.264 C57.5365161,48.9698065 57.5597419,56.6730323 57.5313548,64.3762581 C57.4926452,74.5543226 52.0784516,79.984 41.9855484,79.9917419 C30.4268387,80.0020645 18.868129,80.0046452 7.312,79.9891613 C1.97264516,79.984 0.00877419355,77.9994839 0.00619354839,72.6136774 C-0.0015483871,51.6304516 -0.0015483871,30.6472258 0.00619354839,9.66141935 C0.00619354839,4.04335484 1.90296774,2.11303226 7.43587097,2.10787097 C19.0952258,2.09754839 30.7545806,2.08722581 42.4139355,2.11045161 C51.8023226,2.12851613 57.3894194,7.55819355 57.5132903,16.9362581 C57.6190968,25.0446452 57.5365161,33.1556129 57.5365161,41.264" id="Fill-1" fill="#100808" mask="url(#mask-2)"></path>
                </g>
                <path d="M65.620129,68.8247742 C67.0575484,71.3409032 68.2807742,73.4828387 69.6330323,75.851871 C71.0317419,73.4157419 72.5465806,71.4286452 73.3181935,68.8247742 L65.620129,68.8247742 Z M69.6536774,13.0596129 C70.5620645,13.0596129 71.4807742,13.1525161 72.3710968,13.0338065 C73.2949677,12.9099355 74.9672258,13.7202581 74.7891613,11.8286452 C74.5981935,9.78219355 76.1285161,6.82735484 73.3852903,5.92929032 C71.1169032,5.18864516 68.4149677,5.70993548 65.9091613,5.81058065 C65.220129,5.8363871 64.7788387,6.52541935 64.5543226,7.26606452 C63.3285161,11.3125161 64.5827097,13.0596129 68.747871,13.0596129 L69.6536774,13.0596129 Z M64.4949677,40.7757419 C64.4949677,48.2699355 64.5052903,55.764129 64.4872258,63.2583226 C64.4820645,64.6363871 64.3349677,65.8002581 66.4252903,65.7615484 C68.4020645,65.7228387 68.1491613,64.5744516 68.1491613,63.3615484 C68.1465806,58.5021935 68.1465806,53.6402581 68.1465806,48.7783226 C68.1465806,47.5550968 68.0123871,45.9860645 69.627871,45.9447742 C71.2562581,45.9009032 71.2098065,47.4415484 71.2072258,48.6854194 C71.2020645,53.5473548 71.2227097,58.4067097 71.1943226,63.2686452 C71.1865806,64.6544516 71.0549677,65.8054194 73.140129,65.7615484 C75.140129,65.7176774 74.8381935,64.528 74.8381935,63.3409032 C74.8407742,48.3525161 74.8330323,33.364129 74.8485161,18.3757419 C74.8510968,17.0931613 74.9569032,16.0505806 73.0498065,16.0505806 C71.2123871,16.0531613 71.1814194,16.9744516 71.1891613,18.3189677 C71.227871,23.5860645 71.2123871,28.8531613 71.1994839,34.1176774 C71.1969032,35.408 71.4317419,37.1421935 69.5633548,37.0776774 C67.9633548,37.0209032 68.1491613,35.3976774 68.1491613,34.1899355 C68.1465806,29.0260645 68.1594839,23.8596129 68.1388387,18.6957419 C68.1336774,17.4725161 68.6214194,16.0634839 66.3736774,16.0478999 C64.2317419,16.0350968 64.4898065,17.2712258 64.4923871,18.5950968 C64.500129,25.9886452 64.4949677,33.3821935 64.4949677,40.7757419 L64.4949677,40.7757419 Z M77.8988387,37.2789677 C77.8988387,46.0970323 77.8214194,54.9176774 77.947871,63.7331613 C77.9865806,66.3705806 77.4833548,68.6647742 76.0665806,70.8867097 C74.384,73.5292903 72.9181935,76.3060645 71.3517419,79.0234839 C70.2910968,80.8634839 69.1349677,81.0389677 68.0098065,79.1086452 C65.9272258,75.524129 63.904,71.9060645 61.8265806,68.3189677 C61.2743226,67.3667097 61.4420645,66.3499355 61.4420645,65.3563871 C61.4291613,46.6028387 61.4265806,27.851871 61.4369032,9.09832258 C61.4420645,4.25445161 63.1375484,2.62348387 68.0794839,2.58993548 C77.2846452,2.53574194 77.8988387,3.14735484 77.8988387,12.3447742 L77.8988387,37.2789677 Z" id="Fill-4" fill="#090908"></path>
                <path d="M30.416,42.5736774 C28.5011613,43.1104516 28.8572903,44.707871 28.852129,46.0652903 C28.8237419,52.8472258 28.7669677,59.6317419 28.8830968,66.4110968 C28.9166452,68.4910968 28.3540645,69.1852903 26.1863226,69.1904516 C18.9037419,69.2110968 11.6108387,68.7723871 4.33858065,69.4252903 C2.39793548,69.5981935 3.11535484,68.2175484 3.10503226,67.4433548 C3.04825806,61.8743226 3.07406452,56.3052903 3.07406452,50.7388387 C3.07406452,37.1723871 3.06890323,23.6059355 3.07922581,10.0394839 C3.08180645,6.25883871 3.68309677,5.67303226 7.5076129,5.66529032 C13.8869677,5.6523871 20.2663226,5.71432258 26.6430968,5.62658065 C28.3669677,5.60077419 28.896,6.1323871 28.8727742,7.85367742 C28.7876129,14.7362581 28.8237419,21.6214194 28.852129,28.5065806 C28.8572903,29.864 28.5037419,31.4614194 30.416,31.9981935 L30.4211613,35.9285161 C28.5708387,36.8936774 28.212129,37.8562581 30.4263226,38.8136774 C30.4211613,40.067871 30.4185806,41.3220645 30.416,42.5736774" id="Fill-6" fill="#FC5959"></path>
                <path d="M40.5483871,37.304 C40.5483871,27.5852903 40.6025806,17.864 40.5045161,8.14529032 C40.483871,6.14529032 41.0722581,5.58270968 43.0541935,5.61883871 C49.6787097,5.73754839 54.2825806,9.89496774 54.3419355,16.5194839 C54.4683871,30.4910968 54.4735484,44.4652903 54.3290323,58.4343226 C54.2619355,64.9865806 49.8387097,68.9685161 43.2477419,69.1749677 C41.1290323,69.2420645 40.4812903,68.6020645 40.5019355,66.4627097 C40.6077419,56.744 40.5483871,47.0252903 40.5483871,37.304" id="Fill-8" fill="#FC5959"></path>
                <path d="M30.4211613,35.9292903 L30.4185806,31.9989677 C32.1966452,31.5086452 31.8792258,30.0273548 31.8843871,28.768 C31.9101935,21.8750968 32.0056774,14.9821935 31.8405161,8.09445161 C31.7811613,5.68412903 32.8908387,5.61703226 34.7411613,5.57316129 C36.7489032,5.52412903 37.5514839,5.93703226 37.5411613,8.19509677 C37.4508387,27.6505806 37.4611613,47.1060645 37.5334194,66.5615484 C37.5411613,68.6776774 36.9372903,69.3305806 34.8030968,69.3462971 C32.6018065,69.3589677 31.7889032,68.8402581 31.8430968,66.4738065 C31.9979355,59.5860645 31.9101935,52.6931613 31.8843871,45.8028387 C31.8792258,44.5409032 32.1992258,43.0596129 30.416,42.5744516 C30.4211613,41.3202581 30.4211613,40.0686452 30.4263226,38.8144516 C32.6534194,37.8492903 32.2224516,36.8867097 30.4211613,35.9292903" id="Fill-10" fill="#669999"></path>
                <path d="M54.1042581,67.4312258 C53.8049032,72.9667097 49.9210323,77.204129 44.7055484,77.2944516 C31.8436129,77.5215484 18.9739355,77.4028387 6.10941935,77.4131613 C4.33135484,77.4131613 3.05135484,76.571871 3.14683871,74.7292903 C3.25522581,72.6467097 4.90941935,72.2673548 6.672,72.2673548 C18.2229677,72.2699355 29.7713548,72.2854194 41.3197419,72.2467097 C43.2397419,72.2415484 45.2061935,72.2209032 47.0590968,71.8028387 C49.6423226,71.2221935 51.9494194,69.9344516 54.1042581,67.4312258" id="Fill-12" fill="#F8F8F8"></path>
                <path d="M68.2423226,41.4787097 C68.3790968,42.356129 68.8849032,42.8490323 69.672,42.8283871 C70.6242581,42.8077419 71.2023226,42.1780645 71.075871,41.243871 C70.9726452,40.4774194 70.3145806,40.0309677 69.5274839,40.1341935 C68.7790968,40.2348387 68.232,40.6709677 68.2423226,41.4787097 M64.4952258,40.7767742 C64.4952258,33.3806452 64.5003871,25.9896774 64.4900645,18.596129 C64.4900645,17.2722581 64.232,16.036129 66.3739355,16.0489321 C68.6190968,16.0645161 68.1339355,17.4735484 68.1390968,18.6941935 C68.1597419,23.8606452 68.1442581,29.0245161 68.1494194,34.1909677 C68.1494194,35.3987097 67.9636129,37.0193548 69.5636129,37.076129 C71.432,37.1432258 71.1971613,35.4064516 71.1997419,34.1187097 C71.2126452,28.8516129 71.228129,23.5845161 71.1894194,18.32 C71.1816774,16.9729032 71.2100645,16.0516129 73.0500645,16.0516129 C74.9571613,16.0516129 74.8513548,17.0916129 74.8487742,18.3741935 C74.8332903,33.3625806 74.8410323,48.3535484 74.8384516,63.3419355 C74.8384516,64.5290323 75.1403871,65.7187097 73.1403871,65.76 C71.0552258,65.803871 71.1868387,64.6554839 71.1945806,63.2670968 C71.2229677,58.4077419 71.2023226,53.5458065 71.2074839,48.683871 C71.2074839,47.4425806 71.2539355,45.8993548 69.628129,45.9432258 C68.0126452,45.9870968 68.1468387,47.556129 68.1468387,48.7793548 C68.1468387,53.6412903 68.1442581,58.5032258 68.1494194,63.3625806 C68.1494194,64.5754839 68.4023226,65.723871 66.4255484,65.76 C64.3352258,65.7987097 64.4823226,64.6374194 64.4849032,63.2567742 C64.5055484,55.7651613 64.4952258,48.2683871 64.4952258,40.7767742" id="Fill-14" fill="#F0B553"></path>
                <path d="M69.6549677,13.0588387 L68.7491613,13.0588387 C64.584,13.0588387 63.3298065,11.3143226 64.5530323,7.26787097 C64.7775484,6.52722581 65.2188387,5.83819355 65.907871,5.80980645 C68.4136774,5.70916129 71.1156129,5.18787097 73.384,5.93109677 C76.1272258,6.82658065 74.5994839,9.78141935 74.7904516,11.827871 C74.9659355,13.7220645 73.2962581,12.9117419 72.3698065,13.0330323 C71.4794839,13.1517419 70.5607742,13.0588387 69.6549677,13.0588387" id="Fill-16" fill="#FB8F54"></path>
                <path d="M65.620129,68.8247742 L73.3181935,68.8247742 C72.5465806,71.4286452 71.0317419,73.4157419 69.6330323,75.851871 C68.2807742,73.4828387 67.0575484,71.3409032 65.620129,68.8247742" id="Fill-18" fill="#F0B553"></path>
                <path d="M30.4211613,35.9292903 C32.2224516,36.8867097 32.6534194,37.8492903 30.4263226,38.8144516 C28.2147097,37.8570323 28.5708387,36.8944516 30.4211613,35.9292903" id="Fill-20" fill="#14120E"></path>
                <path d="M68.2423226,41.4787097 C68.232,40.6709677 68.7790968,40.2348387 69.5274839,40.1341935 C70.3145806,40.0309677 70.9726452,40.4774194 71.075871,41.243871 C71.2023226,42.1780645 70.6242581,42.8077419 69.672,42.8283871 C68.8849032,42.8490323 68.3790968,42.356129 68.2423226,41.4787097" id="Fill-22" fill="#100808"></path>
            </g>
        </g>
    </g>
</svg>