<?xml version="1.0" encoding="UTF-8"?>
<svg width="120px" height="103px" viewBox="0 0 120 103" version="1.1" xmlns="http://www.w3.org/2000/svg" xmlns:xlink="http://www.w3.org/1999/xlink">
    <title>Group 5</title>
    <defs>
        <polygon id="path-1" points="0 0.00015 90 0.00015 90 90 0 90"></polygon>
    </defs>
    <g id="Mockup" stroke="none" stroke-width="1" fill="none" fill-rule="evenodd">
        <g id="iPad-Screen-Portrait" transform="translate(-578.000000, -479.000000)">
            <g id="Group-2" transform="translate(176.000000, 254.000000)">
                <g id="Group-5" transform="translate(402.000000, 225.000000)">
                    <ellipse id="Oval" fill-opacity="0.284582605" fill="#000000" cx="60" cy="89.5" rx="60" ry="13.5"></ellipse>
                    <g id="Group-30" transform="translate(16.000000, 0.000000)">
                        <polygon id="Fill-1" fill="#336666" points="3 87 87 87 87 3 3 3"></polygon>
                        <g id="Group-29">
                            <g id="Group-4">
                                <mask id="mask-2" fill="white">
                                    <use xlink:href="#path-1"></use>
                                </mask>
                                <g id="Clip-3"></g>
                                <path d="M10.5,3.00015 L79.5,3.00015 C83.7,3.00015 87,6.30015 87,10.50015 L87,79.50015 C87,83.70015 83.7,87.00015 79.5,87.00015 L10.5,87.00015 C6.3,87.00015 3,83.70015 3,79.50015 L3,10.50015 C3,6.30015 6.3,3.00015 10.5,3.00015 L10.5,3.00015 Z M0,79.50015 C0,85.34865 4.65,90.00015 10.5,90.00015 L79.5,90.00015 C85.35,90.00015 90,85.34865 90,79.50015 L90,10.50015 C90,4.65015 85.35,0.00015 79.5,0.00015 L10.5,0.00015 C4.65,0.00015 0,4.65015 0,10.50015 L0,79.50015 Z" id="Fill-2" fill="#000000" mask="url(#mask-2)"></path>
                            </g>
                            <path d="M12.75,10.50015 C13.95,10.50015 15,11.55015 15,12.75015 C15,13.95015 13.95,15.00015 12.75,15.00015 C11.55,15.00015 10.5,13.95015 10.5,12.75015 C10.5,11.55015 11.55,10.50015 12.75,10.50015 M12.75,18.00015 C15.6,18.00015 18,15.60015 18,12.75015 C18,9.90015 15.6,7.50015 12.75,7.50015 C9.9,7.50015 7.5,9.90015 7.5,12.75015 C7.5,15.60015 9.9,18.00015 12.75,18.00015" id="Fill-5" fill="#000000"></path>
                            <path d="M77.25,10.50015 C78.45,10.50015 79.5,11.55015 79.5,12.75015 C79.5,13.95015 78.45,15.00015 77.25,15.00015 C76.05,15.00015 75,13.95015 75,12.75015 C75,11.55015 76.05,10.50015 77.25,10.50015 M77.25,18.00015 C80.1,18.00015 82.5,15.60015 82.5,12.75015 C82.5,9.90015 80.1,7.50015 77.25,7.50015 C74.4,7.50015 72,9.90015 72,12.75015 C72,15.60015 74.4,18.00015 77.25,18.00015" id="Fill-7" fill="#000000"></path>
                            <path d="M12.75,79.50015 C11.55,79.50015 10.5,78.45015 10.5,77.25015 C10.5,76.05015 11.55,75.00015 12.75,75.00015 C13.95,75.00015 15,76.05015 15,77.25015 C15,78.45015 13.95,79.50015 12.75,79.50015 M12.75,72.00015 C9.9,72.00015 7.5,74.40015 7.5,77.25015 C7.5,80.09865 9.9,82.50015 12.75,82.50015 C15.6,82.50015 18,80.09865 18,77.25015 C18,74.40015 15.6,72.00015 12.75,72.00015" id="Fill-9" fill="#000000"></path>
                            <path d="M77.25,79.50015 C76.05,79.50015 75,78.45015 75,77.25015 C75,76.05015 76.05,75.00015 77.25,75.00015 C78.45,75.00015 79.5,76.05015 79.5,77.25015 C79.5,78.45015 78.45,79.50015 77.25,79.50015 M77.25,72.00015 C74.4,72.00015 72,74.40015 72,77.25015 C72,80.09865 74.4,82.50015 77.25,82.50015 C80.1,82.50015 82.5,80.09865 82.5,77.25015 C82.5,74.40015 80.1,72.00015 77.25,72.00015" id="Fill-11" fill="#000000"></path>
                            <path d="M21,23.69985 C21,23.24985 21.15,22.94985 21.45,22.64985 L27.15,16.94985 C27.45,16.64985 27.75,16.49985 28.2,16.49985 L63.15,16.49985 C63.6,16.49985 63.9,16.64985 64.2,16.94985 L69.9,22.64985 C70.2,22.94985 70.35,23.24985 70.35,23.69985 L70.35,36.14985 C70.35,36.59985 70.2,36.89985 69.9,37.19985 L64.2,42.89985 C63.9,43.19985 63.6,43.34985 63.15,43.34985 L58.2,43.34985 C57,43.34985 55.8,43.79985 55.05,44.69985 L53.85,45.89985 C52.95,46.94985 52.5,47.99985 52.5,49.19985 L52.5,53.99985 C52.5,54.89985 51.9,55.49985 51,55.49985 L37.5,55.49985 L37.5,49.19985 C37.5,48.74985 37.65,48.44985 37.95,48.14985 L46.65,39.44985 C46.95,39.14985 47.25,38.99985 47.7,38.99985 L55.5,38.99985 C58.05,38.99985 60,37.04985 60,34.49985 L60,29.69985 C60,28.49985 59.55,27.29985 58.65,26.54985 L57.45,25.34985 C56.55,24.44985 55.5,23.99985 54.3,23.99985 L35.7,23.99985 C34.5,23.99985 33.3,24.44985 32.55,25.34985 L31.35,26.54985 C30.45,27.44985 30,28.49985 30,29.69985 L30,32.99985 C30,33.89985 29.4,34.49985 28.5,34.49985 L22.5,34.49985 C21.6,34.49985 21,33.89985 21,32.99985 L21,23.69985 Z M18,32.99985 C18,35.54985 19.95,37.49985 22.5,37.49985 L28.5,37.49985 C31.05,37.49985 33,35.54985 33,32.99985 L33,29.69985 C33,29.24985 33.15,28.94985 33.45,28.64985 L34.65,27.44985 C34.95,27.14985 35.25,26.99985 35.7,26.99985 L54.15,26.99985 C54.6,26.99985 54.9,27.14985 55.2,27.44985 L56.4,28.64985 C56.7,28.94985 56.85,29.24985 56.85,29.69985 L56.85,34.49985 C56.85,35.39985 56.25,35.99985 55.35,35.99985 L47.55,35.99985 C46.35,35.99985 45.15,36.44985 44.4,37.34985 L35.7,46.04985 C34.95,46.94985 34.5,47.99985 34.5,49.19985 L34.5,56.99985 C34.5,57.44985 34.65,57.74985 34.95,58.04985 C35.25,58.34985 35.7,58.49985 36.15,58.49985 L36.3,58.49985 L51,58.49985 C53.55,58.49985 55.5,56.54985 55.5,53.99985 L55.5,49.19985 C55.5,48.74985 55.65,48.44985 55.95,48.14985 L57.15,46.94985 C57.45,46.64985 57.75,46.49985 58.2,46.49985 L63.15,46.49985 C64.35,46.49985 65.55,46.04985 66.3,45.14985 L72,39.44985 C72.9,38.54985 73.35,37.49985 73.35,36.29985 L73.35,23.84985 C73.35,22.64985 72.9,21.44985 72,20.69985 L66.3,14.99985 C65.55,13.94985 64.5,13.49985 63.3,13.49985 L28.2,13.49985 C27,13.49985 25.8,13.94985 25.05,14.84985 L19.35,20.54985 C18.45,21.44985 18,22.49985 18,23.69985 L18,32.99985 Z" id="Fill-13" fill="#000000"></path>
                            <path d="M52.5,73.50015 C52.5,74.40015 51.9,75.00015 51,75.00015 L39,75.00015 C38.1,75.00015 37.5,74.40015 37.5,73.50015 L37.5,67.50015 C37.5,66.59865 38.1,66.00015 39,66.00015 L51,66.00015 C51.9,66.00015 52.5,66.59865 52.5,67.50015 L52.5,73.50015 Z M51,63.00015 L39,63.00015 C36.45,63.00015 34.5,64.95015 34.5,67.50015 L34.5,73.50015 C34.5,76.05015 36.45,78.00015 39,78.00015 L51,78.00015 C53.55,78.00015 55.5,76.05015 55.5,73.50015 L55.5,67.50015 C55.5,64.95015 53.55,63.00015 51,63.00015 L51,63.00015 Z" id="Fill-15" fill="#000000"></path>
                            <path d="M64.3506,16.94985 C64.0506,16.64985 63.7506,16.49985 63.3006,16.49985 L28.1991,16.49985 C27.7506,16.49985 27.4491,16.64985 27.1506,16.94985 L21.4491,22.64985 C21.1506,22.94985 21.0006,23.24985 21.0006,23.69985 L21.0006,32.99985 C21.0006,33.89985 21.6006,34.49985 22.5006,34.49985 L28.5006,34.49985 C29.4006,34.49985 30.0006,33.89985 30.0006,32.99985 L30.0006,29.69985 C30.0006,28.49985 30.4491,27.29985 31.3506,26.54985 L32.5506,25.34985 C33.4491,24.44985 34.5006,23.99985 35.6991,23.99985 L54.1491,23.99985 C55.3506,23.99985 56.5506,24.44985 57.3006,25.34985 L58.5006,26.54985 C59.3991,27.44985 59.8506,28.49985 59.8506,29.69985 L59.8506,34.49985 C59.8506,37.04985 57.8991,38.99985 55.3506,38.99985 L47.5506,38.99985 C47.1006,38.99985 46.8006,39.14985 46.5006,39.44985 L37.8006,48.14985 C37.5006,48.44985 37.3506,48.74985 37.3506,49.19985 L37.3506,55.49985 L50.8506,55.49985 C51.7506,55.49985 52.3506,54.89985 52.3506,53.99985 L52.3506,49.19985 C52.3506,47.99985 52.8006,46.79985 53.6991,46.04985 L54.8991,44.84985 C55.8006,43.94985 56.8506,43.49985 58.0506,43.49985 L63.0006,43.49985 C63.4491,43.49985 63.7506,43.34985 64.0506,43.04985 L69.7506,37.34985 C70.0506,37.04985 70.1991,36.74985 70.1991,36.29985 L70.1991,23.84985 C70.1991,23.39985 70.0506,23.09985 69.7506,22.79985 L64.3506,16.94985 Z" id="Fill-17" fill="#FFFFFF"></path>
                            <path d="M12.75,15.00015 C13.95,15.00015 15,13.95015 15,12.75015 C15,11.55015 13.95,10.50015 12.75,10.50015 C11.55,10.50015 10.5,11.55015 10.5,12.75015 C10.5,13.95015 11.55,15.00015 12.75,15.00015" id="Fill-19" fill="#FFFFFF"></path>
                            <path d="M77.25,10.50015 C76.05,10.50015 75,11.55015 75,12.75015 C75,13.95015 76.05,15.00015 77.25,15.00015 C78.45,15.00015 79.5,13.95015 79.5,12.75015 C79.5,11.55015 78.45,10.50015 77.25,10.50015" id="Fill-21" fill="#FFFFFF"></path>
                            <path d="M77.25,75.00015 C76.05,75.00015 75,76.05015 75,77.25015 C75,78.45015 76.05,79.50015 77.25,79.50015 C78.45,79.50015 79.5,78.45015 79.5,77.25015 C79.5,76.05015 78.45,75.00015 77.25,75.00015" id="Fill-23" fill="#FFFFFF"></path>
                            <path d="M51,65.69985 L39,65.69985 C38.1,65.69985 37.5,66.29985 37.5,67.19985 L37.5,73.19985 C37.5,74.09985 38.1,74.69985 39,74.69985 L51,74.69985 C51.9,74.69985 52.5,74.09985 52.5,73.19985 L52.5,67.19985 C52.5,66.44985 51.9,65.69985 51,65.69985" id="Fill-25" fill="#FFFFFF"></path>
                            <path d="M12.75,75.00015 C11.55,75.00015 10.5,76.05015 10.5,77.25015 C10.5,78.45015 11.55,79.50015 12.75,79.50015 C13.95,79.50015 15,78.45015 15,77.25015 C15,76.05015 13.95,75.00015 12.75,75.00015" id="Fill-27" fill="#FFFFFF"></path>
                        </g>
                    </g>
                </g>
            </g>
        </g>
    </g>
</svg>