<?xml version="1.0" encoding="UTF-8"?>
<svg width="120px" height="108px" viewBox="0 0 120 108" version="1.1" xmlns="http://www.w3.org/2000/svg" xmlns:xlink="http://www.w3.org/1999/xlink">
    <title>Group 4</title>
    <defs>
        <polygon id="path-1" points="0.000777566511 2.52577543 92.3514292 2.52577543 92.3514292 95 0.000777566511 95"></polygon>
    </defs>
    <g id="Mockup" stroke="none" stroke-width="1" fill="none" fill-rule="evenodd">
        <g id="iPad-Screen-Portrait" transform="translate(-414.000000, -391.000000)">
            <g id="Group-2" transform="translate(151.000000, 233.000000)">
                <g id="Group-4" transform="translate(263.000000, 158.000000)">
                    <ellipse id="Oval" fill-opacity="0.284582605" fill="#000000" cx="60" cy="94.5" rx="60" ry="13.5"></ellipse>
                    <g id="Group-26" transform="translate(18.000000, 0.000000)">
                        <g id="Group-3" transform="translate(0.000000, 0.538435)">
                            <mask id="mask-2" fill="white">
                                <use xlink:href="#path-1"></use>
                            </mask>
                            <g id="Clip-2"></g>
                            <path d="M46.1218871,12.1670484 C47.9085,12.1793065 49.5909194,12.4826935 49.434629,9.99737097 C49.2967258,7.8368871 48.5428548,6.17591935 46.1494677,6.23414516 C43.9736613,6.28624194 43.2535,7.86140323 43.0880161,9.86866129 C42.8612419,12.6267258 44.7581774,12.1517258 46.1218871,12.1670484 M49.5480161,40.6517258 C49.5480161,39.0397903 49.5510806,37.7281774 49.5480161,36.419629 C49.5449516,35.5094677 49.2844677,34.9088226 48.2455968,34.6207581 C44.6049516,33.6094677 42.9776935,34.7739839 42.9654355,38.5372097 C42.962371,39.4902742 42.962371,40.4433387 42.9654355,41.3964032 C42.9715645,45.6989839 43.1676935,45.8583387 47.3231774,45.539629 C51.4235,45.2239839 48.6776935,42.0185 49.5480161,40.6517258 M49.5572097,76.2430161 C49.5572097,74.2081774 49.4591452,72.1672097 49.5786613,70.1385 C49.7441452,67.3620484 47.8165645,67.8799516 46.2015645,67.8339839 C44.482371,67.7849516 42.8122097,67.5826935 42.9286613,70.2610806 C43.0818871,73.9630161 43.0910806,77.6833387 42.9164032,81.3852742 C42.8091452,83.6468871 43.6304355,84.1218871 45.7786613,84.2138226 C48.6378548,84.3394677 50.0659194,83.6959194 49.5939839,80.5455968 C49.3855968,79.1389839 49.5602742,77.6772097 49.5572097,76.2430161 M66.5622097,91.317371 C65.7133387,88.3570484 63.9297903,87.7809194 61.7294677,87.7839839 C51.3775323,87.7931774 41.0255968,87.7962419 30.6736613,87.7778244 C29.294629,87.7747903 28.0105968,88.0015645 27.0360806,89.0251129 C26.5641452,89.5215645 25.9236613,90.1068871 26.3067258,90.9036613 C26.622371,91.5594677 27.3517258,91.3051129 27.9033387,91.3051129 C40.6547903,91.3204355 53.4062419,91.317371 66.5622097,91.317371 M38.5249516,84.1035 C34.4522097,75.7833387 22.6599516,75.7557581 18.5688226,83.5917258 C17.2449516,86.1199516 15.9885,87.232371 13.0005968,86.0770484 C9.98204839,84.9064032 7.39253226,86.3375323 5.3301129,88.6420484 C4.79075806,89.2457581 4.10124194,89.9689839 4.55785484,90.8668871 C4.95317742,91.6360806 5.83575806,91.3020484 6.49769355,91.3081774 C11.0607581,91.3357581 15.6207581,91.2805968 20.1838226,91.3449516 C21.599629,91.3664032 22.1788226,90.937371 22.6231774,89.4847903 C23.7355968,85.8349516 26.5028548,84.1678548 30.2568871,84.109629 C32.8586613,84.0728548 35.4635,84.1035 38.5249516,84.1035 M62.1707581,15.9547903 C57.0009194,15.9547903 51.8188226,16.172371 46.667371,15.8751129 C43.3883387,15.6851129 42.974629,17.0549516 43.0083387,19.8252742 C43.0420484,22.4239839 43.4159194,23.6620484 46.4835,23.5057581 C51.9965645,23.2268871 57.5402742,23.4291452 63.0686613,23.4260806 C64.527371,23.4260806 66.3630161,23.3035 66.3722097,25.2525323 C66.3814032,27.2015645 64.5518871,27.0943065 63.0870484,27.0943065 C57.4360806,27.0912419 51.7881774,27.0544677 46.1372097,27.1218871 C44.9052742,27.1372097 43.1217258,26.3404355 43.069629,28.8655968 C43.0144677,31.5072097 44.8286613,30.9372097 46.2751129,30.9402742 C56.7343065,30.9647903 67.1935,30.9586613 77.6526935,30.9525323 C80.0276935,30.9494677 86.6930161,26.1933387 87.434629,23.962371 C87.5388226,23.6589839 87.5449516,23.2697903 87.4499516,22.9694677 C86.757371,20.7844677 80.024629,15.9609194 77.6772097,15.9578548 C72.507371,15.9455968 67.3375323,15.9547903 62.1707581,15.9547903 M33.2876935,47.1638226 C33.7872097,46.0759194 34.7126935,45.3067258 35.8281774,45.4936613 C39.6465645,46.1341452 39.3860806,43.734629 39.3707581,41.2033387 C39.3094677,31.5807581 39.3309194,21.9551129 39.3585,12.3325323 C39.364629,10.8983387 39.4381774,9.43962903 39.7047903,8.03608065 C40.3207581,4.77543548 43.1370484,2.49543548 46.3149516,2.52577543 C49.4836613,2.55672581 52.6094677,4.85204839 52.7504355,8.14333871 C52.9159194,11.9494677 54.7209194,12.3785 57.9110806,12.2712419 C64.6407581,12.0505968 71.3857581,12.3080161 78.1185,12.1547903 C80.8520484,12.0935 82.9604355,12.764629 84.7899516,14.8730161 C86.757371,17.1376935 88.9791452,19.1878548 91.1518871,21.2655968 C92.6626935,22.7089839 92.8036613,24.0359194 91.2468871,25.5497903 C88.574629,28.1485 85.9391452,30.7870484 83.3343065,33.4562419 C82.0931774,34.7280161 80.5609194,34.7065645 78.9857581,34.7065645 C71.5267258,34.7004355 64.064629,34.8015645 56.6086613,34.6483387 C54.0865645,34.5993065 53.0507581,35.0252742 53.0997903,37.9212419 C53.2928548,48.7175323 53.1764032,59.5199516 53.1764032,70.4204355 C55.7168871,70.3131774 57.5372097,69.0015645 59.6854355,68.6460806 C73.4451129,66.3814032 85.0688226,78.1797903 82.3505968,91.8107581 C82.1176935,92.9814032 81.9705968,94.3175323 80.6651129,94.8017258 C79.2891452,95.3135 78.8172097,94.1060806 78.2472097,93.2081774 C78.4586613,91.6636613 78.777371,90.1252742 78.8601129,88.574629 C79.5097903,76.4330161 66.7951129,68.149629 55.9559194,73.6289839 C54.4083387,74.4135 53.2805968,75.2562419 53.222371,77.3707581 C53.0293065,84.1004355 52.9251129,84.097371 59.7344677,84.1004355 C60.0960806,84.1004355 60.454629,84.097371 60.8162419,84.1004355 C67.5765645,84.1341452 70.1078548,86.6347903 70.2365645,93.407371 C69.6726935,95.0009194 68.3488226,95.0009194 66.9820484,95.0009194 C45.8276935,94.9917258 24.6702742,95.0039839 3.51591935,94.9794677 C0.282854839,94.9764032 -0.492467742,93.8793065 0.27366129,90.7136613 C1.6435,85.0259194 6.76737097,81.4925323 12.6818871,82.2525323 C13.809629,82.3965645 14.5788226,82.5038226 15.4889839,81.4710806 C23.2636613,72.6483387 28.2251129,71.8576935 39.3339839,77.7783387 C39.3339839,74.8670484 39.3309194,72.1672097 39.3339839,69.4643065 C39.3370484,67.4999516 37.8568871,67.9535 36.7597903,67.947371 C29.5489839,67.9197903 22.3320484,67.7972097 15.127371,67.9964032 C11.8820484,68.0852742 9.34769355,67.3467258 7.22091935,64.7786613 C5.46495161,62.6610806 3.38414516,60.8039839 1.38914516,58.8917258 C-0.103274194,57.4636613 -0.314725806,56.1367258 1.25430645,54.6105968 C3.9235,52.0118871 6.46091935,49.2722097 9.19140323,46.7439839 C11.6491452,44.4670484 20.0152742,44.9114032 21.9520484,47.2680161 C21.6915645,48.7757581 20.5393065,49.0822097 19.2889839,49.1526935 C18.0938226,49.2201129 16.8864032,49.1802742 15.6881774,49.1833387 C12.6236613,49.1894677 6.22495161,53.3633387 5.1401129,56.0907581 C5.02059677,56.3941452 4.94704839,56.7802742 5.02366129,57.0836613 C5.48027419,58.8917258 12.4275323,64.1749516 14.3765645,64.1780161 C22.1818871,64.1933387 29.9902742,64.2822097 37.7955968,64.1412419 C41.5802742,64.0738226 46.7593065,65.9186613 48.7910806,63.3536613 C50.9975323,60.5680161 49.2385,55.514629 49.4407581,51.4541452 C49.5265645,49.7441452 48.8493065,49.1220484 47.1485,49.1618871 C43.7897903,49.2476935 40.4249516,49.1618871 37.0601129,49.1925323 C35.4083387,49.2047903 33.9220484,49.0055968 33.2876935,47.1638226" id="Fill-1" fill="#14120E" mask="url(#mask-2)"></path>
                        </g>
                        <path d="M32.9315968,61.9951613 C35.3341774,61.9951613 37.7398226,62.0472581 40.1424032,61.9737097 C41.3222419,61.9369355 42.6920806,61.8817742 42.8024032,60.2208065 C42.9157903,58.5169355 41.5765968,58.2779032 40.3722419,58.2625806 C35.4475645,58.2012903 30.5198226,58.2012903 25.5951452,58.2625806 C24.4030484,58.2779032 23.0362742,58.4770968 23.0975645,60.1687097 C23.1588548,61.8358065 24.5378871,61.9308065 25.7238548,61.9675806 C28.123371,62.0441935 30.5290161,61.9920968 32.9315968,61.9951613 L32.9315968,61.9951613 Z M33.2870806,47.7022581 C33.9214355,49.5440323 35.4077258,49.7432258 37.0625645,49.7309677 C40.4243387,49.7003226 43.7891774,49.786129 47.1478871,49.7003226 C48.8486935,49.6604839 49.5259516,50.2825806 49.4401452,51.9925806 C49.2378871,56.0530645 50.9999839,61.1064516 48.7904677,63.8920968 C46.7586935,66.4570968 41.5796613,64.6122581 37.7949839,64.6796774 C29.9927258,64.8206452 22.1843387,64.7317742 14.3759516,64.7164516 C12.4299839,64.7133871 5.47966129,59.4301613 5.0261129,57.6220968 C4.9495,57.3187097 5.01998387,56.9325806 5.1395,56.6291935 C6.22740323,53.9017742 12.6261129,49.7279032 15.6875645,49.7217742 C16.8888548,49.7187097 18.0932097,49.7585484 19.288371,49.691129 C20.5386935,49.6206452 21.6909516,49.3141935 21.9514355,47.8064516 C23.2324032,47.8095161 24.5103065,47.8095161 25.7882097,47.8095161 C26.9649839,50.4296774 28.1785323,49.8872581 29.4135323,47.8554839 L33.2870806,47.7022581 Z" id="Fill-4" fill="#F0B553"></path>
                        <path d="M70.236871,93.9464194 C70.1081613,87.1738387 67.576871,84.6731935 60.8165484,84.6364194 C60.4549355,84.6364194 60.0933226,84.6364194 59.7347742,84.6364194 C52.9254194,84.6333548 53.0296129,84.6364194 53.2226774,77.9098065 C53.2809032,75.7952903 54.4086452,74.9494839 55.9562258,74.1680323 C66.7954194,68.6886774 79.5100968,76.969 78.8604194,89.1106129 C78.7776774,90.6643226 78.4589677,92.2027097 78.2475161,93.7472258 C75.5783226,93.8146452 72.909129,93.879 70.236871,93.9464194" id="Fill-6" fill="#46C072"></path>
                        <path d="M29.4123065,47.8560968 C28.180371,49.887871 26.9637581,50.4302903 25.7869839,47.810129 C27.0281129,45.1562581 28.2294032,45.7875484 29.4123065,47.8560968" id="Fill-8" fill="#090908"></path>
                        <path d="M72.9649032,27.5328387 C73.6115161,27.208 74.3990968,26.7299355 74.3439355,25.8075161 C74.2795806,24.7747742 73.5992581,24.0086452 72.4653871,24.1128387 C71.5490968,24.1955806 70.8902258,24.9065484 70.9239355,25.7921935 C70.9668387,26.828 71.6747419,27.4807419 72.9649032,27.5328387 M62.1716774,16.4913871 C67.3384516,16.4913871 72.5082903,16.4852581 77.678129,16.4944516 C80.0255484,16.4975161 86.7552258,21.324129 87.450871,23.509129 C87.545871,23.8094516 87.5366774,24.1986452 87.4355484,24.4989677 C86.690871,26.7299355 80.0286129,31.489129 77.6536129,31.4921935 C67.1944194,31.4952581 56.7352258,31.5044516 46.2760323,31.4799355 C44.8295806,31.476871 43.0153871,32.046871 43.0705484,29.4021935 C43.1226452,26.8800968 44.903129,27.6738065 46.138129,27.6615484 C51.7860323,27.594129 57.437,27.6309032 63.0879677,27.6309032 C64.5497419,27.6309032 66.3823226,27.7412258 66.373129,25.789129 C66.3639355,23.8431613 64.5282903,23.9657419 63.0695806,23.9657419 C57.538129,23.9657419 51.9974839,23.7665484 46.4813548,24.0454194 C43.4168387,24.2017097 43.0429677,22.9636452 43.0092581,20.3649355 C42.9755484,17.5915484 43.3892581,16.2247742 46.6652258,16.4147742 C51.8197419,16.7120323 57.0018387,16.4913871 62.1716774,16.4913871" id="Fill-10" fill="#F0B553"></path>
                        <path d="M38.5234194,84.6407097 C35.4650323,84.6407097 32.8601935,84.6100645 30.2553548,84.6468387 C26.5043871,84.7050645 23.7340645,86.3721613 22.6216452,90.022 C22.1803548,91.4745806 21.6011613,91.9066774 20.1822903,91.8852258 C15.6222903,91.8178065 11.0622903,91.8729677 6.49922581,91.8453871 C5.83422581,91.8423226 4.95470968,92.1732903 4.5593871,91.4071613 C4.09970968,90.5092581 4.78922581,89.7860323 5.33164516,89.1792581 C7.391,86.8747419 9.98358065,85.4466774 13.002129,86.6142581 C15.9900323,87.7695806 17.2464839,86.6602258 18.5672903,84.1289355 C22.6614839,76.2960323 34.4537419,76.3236129 38.5234194,84.6407097" id="Fill-12" fill="#46C072"></path>
                        <path d="M66.5619032,91.8545806 C53.4059355,91.8545806 40.6544839,91.8576452 27.9030323,91.8423226 C27.3544839,91.8423226 26.6220645,92.0966774 26.3064194,91.440871 C25.9233548,90.6440968 26.5638387,90.0587742 27.0388387,89.5623226 C28.0102903,88.5387742 29.2943226,88.3150645 30.6733548,88.3150645 C41.0252903,88.3334516 51.3772258,88.3303871 61.7291613,88.3211935 C63.9294839,88.3211935 65.7130323,88.8973226 66.5619032,91.8545806" id="Fill-14" fill="#C68C65"></path>
                        <path d="M49.5575161,76.7805323 C49.5575161,78.2177903 49.3859032,79.6795645 49.5942903,81.0831129 C50.0662258,84.2365 48.6381613,84.8769839 45.7789677,84.7544032 C43.6276774,84.6594032 42.8094516,84.1874677 42.9167097,81.9227903 C43.0913871,78.2208548 43.0821935,74.5005323 42.9259032,70.7985968 C42.8125161,68.1202097 44.4826774,68.3255323 46.201871,68.3715 C47.816871,68.4174677 49.7444516,67.902629 49.5789677,70.6790806 C49.4594516,72.7047258 49.5575161,74.7456935 49.5575161,76.7805323" id="Fill-16" fill="#C68C65"></path>
                        <path d="M49.5470968,41.1898548 C48.6798387,42.556629 51.4256452,45.7621129 47.3222581,46.0777581 C43.1667742,46.3964677 42.9706452,46.2371129 42.9645161,41.9345323 C42.9645161,40.9814677 42.9614516,40.0284032 42.9645161,39.0784032 C42.9767742,35.3121129 44.6040323,34.1475968 48.2446774,35.1588871 C49.2866129,35.4469516 49.5440323,36.0475968 49.5470968,36.9577581 C49.5501613,38.2663065 49.5470968,39.5779194 49.5470968,41.1898548" id="Fill-18" fill="#C68C65"></path>
                        <path d="M46.1218871,12.7054839 C44.7581774,12.6901613 42.8612419,13.1651613 43.0880161,10.4070968 C43.2535,8.39983871 43.9736613,6.82467742 46.1494677,6.77258065 C48.5428548,6.71435484 49.2967258,8.37532258 49.434629,10.5358065 C49.5909194,13.021129 47.9085,12.7177419 46.1218871,12.7054839" id="Fill-20" fill="#C68C65"></path>
                        <path d="M32.9315968,61.993629 C30.5290161,61.9905645 28.123371,62.0457258 25.7238548,61.9660484 C24.5378871,61.9292742 23.1588548,61.8342742 23.0975645,60.1702419 C23.0362742,58.478629 24.4030484,58.276371 25.5951452,58.2610484 C30.5198226,58.1997581 35.4475645,58.1997581 40.3722419,58.2641129 C41.5765968,58.2794355 42.9157903,58.5184677 42.8024032,60.2223387 C42.6920806,61.8833065 41.3222419,61.9384677 40.1424032,61.9752419 C37.7398226,62.0457258 35.3341774,61.993629 32.9315968,61.993629" id="Fill-22" fill="#14120E"></path>
                        <path d="M72.9649032,27.5328387 C71.6747419,27.4807419 70.9668387,26.828 70.9239355,25.7921935 C70.8902258,24.9065484 71.5490968,24.1955806 72.4653871,24.1128387 C73.5992581,24.0086452 74.2795806,24.7747742 74.3439355,25.8075161 C74.3990968,26.7299355 73.6115161,27.208 72.9649032,27.5328387" id="Fill-24" fill="#14120E"></path>
                    </g>
                </g>
            </g>
        </g>
    </g>
</svg>