<?xml version="1.0" encoding="UTF-8"?>
<svg width="120px" height="104px" viewBox="0 0 120 104" version="1.1" xmlns="http://www.w3.org/2000/svg" xmlns:xlink="http://www.w3.org/1999/xlink">
    <title>Group 7@3x</title>
    <defs>
        <polygon id="path-1" points="-3.83693077e-13 7.74491582e-13 92.3506516 7.74491582e-13 92.3506516 92.4742246 -3.83693077e-13 92.4742246"></polygon>
    </defs>
    <g id="Mockup" stroke="none" stroke-width="1" fill="none" fill-rule="evenodd">
        <g id="iPad-Screen-Portrait" transform="translate(-678.000000, -576.000000)">
            <g id="Group-7" transform="translate(678.000000, 576.000000)">
                <ellipse id="Oval" fill-opacity="0.284582605" fill="#000000" cx="60" cy="90.5" rx="60" ry="13.5"></ellipse>
                <g id="Group-6" transform="translate(20.999222, 2.936088)">
                    <path d="M28.9315968,55.9951613 C31.3341774,55.9951613 33.7398226,56.0472581 36.1424032,55.9737097 C37.3222419,55.9369355 38.6920806,55.8817742 38.8024032,54.2208065 C38.9157903,52.5169355 37.5765968,52.2779032 36.3722419,52.2625806 C31.4475645,52.2012903 26.5198226,52.2012903 21.5951452,52.2625806 C20.4030484,52.2779032 19.0362742,52.4770968 19.0975645,54.1687097 C19.1588548,55.8358065 20.5378871,55.9308065 21.7238548,55.9675806 C24.123371,56.0441935 26.5290161,55.9920968 28.9315968,55.9951613 L28.9315968,55.9951613 Z M29.2870806,41.7022581 C29.9214355,43.5440323 31.4077258,43.7432258 33.0625645,43.7309677 C36.4243387,43.7003226 39.7891774,43.786129 43.1478871,43.7003226 C44.8486935,43.6604839 45.5259516,44.2825806 45.4401452,45.9925806 C45.2378871,50.0530645 46.9999839,55.1064516 44.7904677,57.8920968 C42.7586935,60.4570968 37.5796613,58.6122581 33.7949839,58.6796774 C25.9927258,58.8206452 18.1843387,58.7317742 10.3759516,58.7164516 C8.42998387,58.7133871 1.47966129,53.4301613 1.0261129,51.6220968 C0.9495,51.3187097 1.01998387,50.9325806 1.1395,50.6291935 C2.22740323,47.9017742 8.6261129,43.7279032 11.6875645,43.7217742 C12.8888548,43.7187097 14.0932097,43.7585484 15.288371,43.691129 C16.5386935,43.6206452 17.6909516,43.3141935 17.9514355,41.8064516 C19.2324032,41.8095161 20.5103065,41.8095161 21.7882097,41.8095161 C22.9649839,44.4296774 24.1785323,43.8872581 25.4135323,41.8554839 L29.2870806,41.7022581 Z" id="Fill-4" fill="#F0B553"></path>
                    <path d="M66.236871,87.9464194 C66.1081613,81.1738387 63.576871,78.6731935 56.8165484,78.6364194 C56.4549355,78.6364194 56.0933226,78.6364194 55.7347742,78.6364194 C48.9254194,78.6333548 49.0296129,78.6364194 49.2226774,71.9098065 C49.2809032,69.7952903 50.4086452,68.9494839 51.9562258,68.1680323 C62.7954194,62.6886774 75.5100968,70.969 74.8604194,83.1106129 C74.7776774,84.6643226 74.4589677,86.2027097 74.2475161,87.7472258 C71.5783226,87.8146452 68.909129,87.879 66.236871,87.9464194" id="Fill-6" fill="#669999"></path>
                    <path d="M25.4123065,41.8560968 C24.180371,43.887871 22.9637581,44.4302903 21.7869839,41.810129 C23.0281129,39.1562581 24.2294032,39.7875484 25.4123065,41.8560968" id="Fill-8" fill="#090908"></path>
                    <path d="M68.9649032,21.5328387 C69.6115161,21.208 70.3990968,20.7299355 70.3439355,19.8075161 C70.2795806,18.7747742 69.5992581,18.0086452 68.4653871,18.1128387 C67.5490968,18.1955806 66.8902258,18.9065484 66.9239355,19.7921935 C66.9668387,20.828 67.6747419,21.4807419 68.9649032,21.5328387 M58.1716774,10.4913871 C63.3384516,10.4913871 68.5082903,10.4852581 73.678129,10.4944516 C76.0255484,10.4975161 82.7552258,15.324129 83.450871,17.509129 C83.545871,17.8094516 83.5366774,18.1986452 83.4355484,18.4989677 C82.690871,20.7299355 76.0286129,25.489129 73.6536129,25.4921935 C63.1944194,25.4952581 52.7352258,25.5044516 42.2760323,25.4799355 C40.8295806,25.476871 39.0153871,26.046871 39.0705484,23.4021935 C39.1226452,20.8800968 40.903129,21.6738065 42.138129,21.6615484 C47.7860323,21.594129 53.437,21.6309032 59.0879677,21.6309032 C60.5497419,21.6309032 62.3823226,21.7412258 62.373129,19.789129 C62.3639355,17.8431613 60.5282903,17.9657419 59.0695806,17.9657419 C53.538129,17.9657419 47.9974839,17.7665484 42.4813548,18.0454194 C39.4168387,18.2017097 39.0429677,16.9636452 39.0092581,14.3649355 C38.9755484,11.5915484 39.3892581,10.2247742 42.6652258,10.4147742 C47.8197419,10.7120323 53.0018387,10.4913871 58.1716774,10.4913871" id="Fill-10" fill="#F0B553"></path>
                    <path d="M34.5234194,78.6407097 C31.4650323,78.6407097 28.8601935,78.6100645 26.2553548,78.6468387 C22.5043871,78.7050645 19.7340645,80.3721613 18.6216452,84.022 C18.1803548,85.4745806 17.6011613,85.9066774 16.1822903,85.8852258 C11.6222903,85.8178065 7.06229032,85.8729677 2.49922581,85.8453871 C1.83422581,85.8423226 0.954709677,86.1732903 0.559387097,85.4071613 C0.0997096774,84.5092581 0.789225806,83.7860323 1.33164516,83.1792581 C3.391,80.8747419 5.98358065,79.4466774 9.00212903,80.6142581 C11.9900323,81.7695806 13.2464839,80.6602258 14.5672903,78.1289355 C18.6614839,70.2960323 30.4537419,70.3236129 34.5234194,78.6407097" id="Fill-12" fill="#669999"></path>
                    <path d="M62.5619032,85.8545806 C49.4059355,85.8545806 36.6544839,85.8576452 23.9030323,85.8423226 C23.3544839,85.8423226 22.6220645,86.0966774 22.3064194,85.440871 C21.9233548,84.6440968 22.5638387,84.0587742 23.0388387,83.5623226 C24.0102903,82.5387742 25.2943226,82.3150645 26.6733548,82.3150645 C37.0252903,82.3334516 47.3772258,82.3303871 57.7291613,82.3211935 C59.9294839,82.3211935 61.7130323,82.8973226 62.5619032,85.8545806" id="Fill-14" fill="#C68C65"></path>
                    <path d="M45.5575161,70.7805323 C45.5575161,72.2177903 45.3859032,73.6795645 45.5942903,75.0831129 C46.0662258,78.2365 44.6381613,78.8769839 41.7789677,78.7544032 C39.6276774,78.6594032 38.8094516,78.1874677 38.9167097,75.9227903 C39.0913871,72.2208548 39.0821935,68.5005323 38.9259032,64.7985968 C38.8125161,62.1202097 40.4826774,62.3255323 42.201871,62.3715 C43.816871,62.4174677 45.7444516,61.902629 45.5789677,64.6790806 C45.4594516,66.7047258 45.5575161,68.7456935 45.5575161,70.7805323" id="Fill-16" fill="#C68C65"></path>
                    <path d="M45.5470968,35.1898548 C44.6798387,36.556629 47.4256452,39.7621129 43.3222581,40.0777581 C39.1667742,40.3964677 38.9706452,40.2371129 38.9645161,35.9345323 C38.9645161,34.9814677 38.9614516,34.0284032 38.9645161,33.0784032 C38.9767742,29.3121129 40.6040323,28.1475968 44.2446774,29.1588871 C45.2866129,29.4469516 45.5440323,30.0475968 45.5470968,30.9577581 C45.5501613,32.2663065 45.5470968,33.5779194 45.5470968,35.1898548" id="Fill-18" fill="#C68C65"></path>
                    <path d="M42.1218871,6.70548387 C40.7581774,6.69016129 38.8612419,7.16516129 39.0880161,4.40709677 C39.2535,2.39983871 39.9736613,0.824677419 42.1494677,0.772580645 C44.5428548,0.714354839 45.2967258,2.37532258 45.434629,4.53580645 C45.5909194,7.02112903 43.9085,6.71774194 42.1218871,6.70548387" id="Fill-20" fill="#C68C65"></path>
                    <path d="M28.9315968,55.993629 C26.5290161,55.9905645 24.123371,56.0457258 21.7238548,55.9660484 C20.5378871,55.9292742 19.1588548,55.8342742 19.0975645,54.1702419 C19.0362742,52.478629 20.4030484,52.276371 21.5951452,52.2610484 C26.5198226,52.1997581 31.4475645,52.1997581 36.3722419,52.2641129 C37.5765968,52.2794355 38.9157903,52.5184677 38.8024032,54.2223387 C38.6920806,55.8833065 37.3222419,55.9384677 36.1424032,55.9752419 C33.7398226,56.0457258 31.3341774,55.993629 28.9315968,55.993629" id="Fill-22" fill="#14120E"></path>
                    <path d="M68.9649032,21.5328387 C67.6747419,21.4807419 66.9668387,20.828 66.9239355,19.7921935 C66.8902258,18.9065484 67.5490968,18.1955806 68.4653871,18.1128387 C69.5992581,18.0086452 70.2795806,18.7747742 70.3439355,19.8075161 C70.3990968,20.7299355 69.6115161,21.208 68.9649032,21.5328387" id="Fill-24" fill="#14120E"></path>
                </g>
                <g id="Clip-5" transform="translate(17.000000, 0.000299)">
                    <mask id="mask-2" fill="white">
                        <use xlink:href="#path-1"></use>
                    </mask>
                    <g id="Clip-2"></g>
                </g>
                <path d="M63.1211095,9.64157216 C64.9077224,9.65383022 66.5901418,9.95721732 66.4338515,7.47189474 C66.2959482,5.31141087 65.5420773,3.65044313 63.1486902,3.70866893 C60.9728837,3.76076571 60.2527224,5.335927 60.0872386,7.34318506 C59.8604644,10.1012496 61.7573999,9.62624958 63.1211095,9.64157216 M66.5472386,38.1262496 C66.5472386,36.5143141 66.5503031,35.2027012 66.5472386,33.8941528 C66.544174,32.9839915 66.2836902,32.3833464 65.2448192,32.0952818 C61.604174,31.0839915 59.976916,32.2485076 59.9646579,36.0117334 C59.9615934,36.964798 59.9615934,37.9178625 59.9646579,38.870927 C59.9707869,43.1735076 60.166916,43.3328625 64.3223999,43.0141528 C68.4227224,42.6985076 65.676916,39.4930238 66.5472386,38.1262496 M66.5564321,73.7175399 C66.5564321,71.6827012 66.4583676,69.6417334 66.5778837,67.6130238 C66.7433676,64.8365722 64.8157869,65.3544754 63.2007869,65.3085076 C61.4815934,65.2594754 59.8114321,65.0572173 59.9278837,67.7356044 C60.0811095,71.4375399 60.0903031,75.1578625 59.9156257,78.859798 C59.8083676,81.1214109 60.6296579,81.5964109 62.7778837,81.6883464 C65.6370773,81.8139915 67.0651418,81.1704431 66.5932063,78.0201205 C66.3848192,76.6135076 66.5594966,75.1517334 66.5564321,73.7175399 M83.5614321,88.7918947 C82.7125611,85.8315722 80.9290128,85.2554431 78.7286902,85.2585076 C68.3767547,85.2677012 58.0248192,85.2707657 47.6728837,85.2523481 C46.2938515,85.2493141 45.0098192,85.4760883 44.0353031,86.4996367 C43.5633676,86.9960883 42.9228837,87.5814109 43.3059482,88.3781851 C43.6215934,89.0339915 44.3509482,88.7796367 44.9025611,88.7796367 C57.6540128,88.7949593 70.4054644,88.7918947 83.5614321,88.7918947 M55.524174,81.5780238 C51.4514321,73.2578625 39.659174,73.2302818 35.568045,81.0662496 C34.244174,83.5944754 32.9877224,84.7068947 29.9998192,83.5515722 C26.9812708,82.380927 24.3917547,83.812056 22.3293353,86.1165722 C21.7899805,86.7202818 21.1004644,87.4435076 21.5570773,88.3414109 C21.9523999,89.1106044 22.8349805,88.7765722 23.496916,88.7827012 C28.0599805,88.8102818 32.6199805,88.7551205 37.183045,88.8194754 C38.5988515,88.840927 39.178045,88.4118947 39.6223999,86.9593141 C40.7348192,83.3094754 43.5020773,81.6423786 47.2561095,81.5841528 C49.8578837,81.5473786 52.4627224,81.5780238 55.524174,81.5780238 M79.1699805,13.4293141 C74.0001418,13.4293141 68.818045,13.6468947 63.6665934,13.3496367 C60.3875611,13.1596367 59.9738515,14.5294754 60.0075611,17.299798 C60.0412708,19.8985076 60.4151418,21.1365722 63.4827224,20.9802818 C68.9957869,20.7014109 74.5394966,20.9036689 80.0678837,20.9006044 C81.5265934,20.9006044 83.3622386,20.7780238 83.3714321,22.727056 C83.3806257,24.6760883 81.5511095,24.5688302 80.0862708,24.5688302 C74.4353031,24.5657657 68.7873999,24.5289915 63.1364321,24.5964109 C61.9044966,24.6117334 60.1209482,23.8149593 60.0688515,26.3401205 C60.0136902,28.9817334 61.8278837,28.4117334 63.2743353,28.414798 C73.7335289,28.4393141 84.1927224,28.4331851 94.651916,28.427056 C97.026916,28.4239915 103.692239,23.6678625 104.433851,21.4368947 C104.538045,21.1335076 104.544174,20.7443141 104.449174,20.4439915 C103.756593,18.2589915 97.0238515,13.4354431 94.6764321,13.4323786 C89.5065934,13.4201205 84.3367547,13.4293141 79.1699805,13.4293141 M50.286916,44.6383464 C50.7864321,43.5504431 51.711916,42.7812496 52.8273999,42.9681851 C56.6457869,43.6086689 56.3853031,41.2091528 56.3699805,38.6778625 C56.3086902,29.0552818 56.3301418,19.4296367 56.3577224,9.80705603 C56.3638515,8.37286248 56.4373999,6.9141528 56.7040128,5.51060442 C57.3199805,2.24995925 60.1362708,-0.0300407453 63.314174,0.000299201169 C66.4828837,0.0312495773 69.6086902,2.32657216 69.7496579,5.61786248 C69.9151418,9.42399151 71.7201418,9.85302377 74.9103031,9.74576571 C81.6399805,9.52512055 88.3849805,9.7825399 95.1177224,9.62931409 C97.8512708,9.56802377 99.9596579,10.2391528 101.789174,12.3475399 C103.756593,14.6122173 105.978368,16.6623786 108.15111,18.7401205 C109.661916,20.1835076 109.802884,21.5104431 108.24611,23.0243141 C105.573851,25.6230238 102.938368,28.2615722 100.333529,30.9307657 C99.0923999,32.2025399 97.5601418,32.1810883 95.9849805,32.1810883 C88.5259482,32.1749593 81.0638515,32.2760883 73.6078837,32.1228625 C71.0857869,32.0738302 70.0499805,32.499798 70.0990128,35.3957657 C70.2920773,46.192056 70.1756257,56.9944754 70.1756257,67.8949593 C72.7161095,67.7877012 74.5364321,66.4760883 76.6846579,66.1206044 C90.4443353,63.855927 102.068045,75.6543141 99.3498192,89.2852818 C99.116916,90.455927 98.9698192,91.792056 97.6643353,92.2762496 C96.2883676,92.7880238 95.8164321,91.5806044 95.2464321,90.6827012 C95.4578837,89.1381851 95.7765934,87.599798 95.8593353,86.0491528 C96.5090128,73.9075399 83.7943353,65.6241528 72.9551418,71.1035076 C71.4075611,71.8880238 70.2798192,72.7307657 70.2215934,74.8452818 C70.0285289,81.5749593 69.9243353,81.5718947 76.7336902,81.5749593 C77.0953031,81.5749593 77.4538515,81.5718947 77.8154644,81.5749593 C84.5757869,81.6086689 87.1070773,84.1093141 87.2357869,90.8818947 C86.671916,92.4754431 85.348045,92.4754431 83.9812708,92.4754431 C62.826916,92.4662496 41.6694966,92.4785076 20.5151418,92.4539915 C17.2820773,92.450927 16.5067547,91.3538302 17.2728837,88.1881851 C18.6427224,82.5004431 23.7665934,78.967056 29.6811095,79.727056 C30.8088515,79.8710883 31.578045,79.9783464 32.4882063,78.9456044 C40.2628837,70.1228625 45.2243353,69.3322173 56.3332063,75.2528625 C56.3332063,72.3415722 56.3301418,69.6417334 56.3332063,66.9388302 C56.3362708,64.9744754 54.8561095,65.4280238 53.7590128,65.4218947 C46.5482063,65.3943141 39.3312708,65.2717334 32.1265934,65.470927 C28.8812708,65.559798 26.346916,64.8212496 24.2201418,62.2531851 C22.464174,60.1356044 20.3833676,58.2785076 18.3883676,56.3662496 C16.8959482,54.9381851 16.6844966,53.6112496 18.2535289,52.0851205 C20.9227224,49.4864109 23.4601418,46.7467334 26.1906257,44.2185076 C28.6483676,41.9415722 37.0144966,42.385927 38.9512708,44.7425399 C38.6907869,46.2502818 37.5385289,46.5567334 36.2882063,46.6272173 C35.093045,46.6946367 33.8856257,46.654798 32.6873999,46.6578625 C29.6228837,46.6639915 23.224174,50.8378625 22.1393353,53.5652818 C22.0198192,53.8686689 21.9462708,54.254798 22.0228837,54.5581851 C22.4794966,56.3662496 29.4267547,61.6494754 31.3757869,61.6525399 C39.1811095,61.6678625 46.9894966,61.7567334 54.7948192,61.6157657 C58.5794966,61.5483464 63.7585289,63.3931851 65.7903031,60.8281851 C67.9967547,58.0425399 66.2377224,52.9891528 66.4399805,48.9286689 C66.5257869,47.2186689 65.8485289,46.5965722 64.1477224,46.6364109 C60.7890128,46.7222173 57.424174,46.6364109 54.0593353,46.667056 C52.4075611,46.6793141 50.9212708,46.4801205 50.286916,44.6383464" id="Fill-1" fill="#14120E"></path>
            </g>
        </g>
    </g>
</svg>